<?xml version="1.0"?><svg width="640" height="480" xmlns="http://www.w3.org/2000/svg">
 <title>grey greedy rat</title>
 <g>
  <title>Layer 1</title>
  <switch>
   <g>
    <g transform="rotate(-13.2952, 345.887, 232.535)" id="Layer_1">
     <g>
      <linearGradient id="XMLID_1_" x1="0.573867" y1="3.065444" x2="0.573867" y2="3.065444" gradientTransform="translate(-2.0863, -5.89843) matrix(-0.621872, 0, 0, 0.678372, 445.625, -388.522)">
       <stop offset="0" stop-color="#000000"/>
       <stop offset="1" stop-color="#000000"/>
      </linearGradient>
      <path fill-rule="evenodd" clip-rule="evenodd" fill="url(#XMLID_1_)" stroke="#000000" stroke-width="0" stroke-linejoin="bevel" stroke-miterlimit="2.4142" d="m262.238159,215.139877c2.328247,2.538788 4.363403,11.818466 6.182159,10.629242c2.036102,-1.348572 -3.128021,-5.790695 -2.473389,-9.994797c3.855774,2.221054 8.872894,11.184021 10.836884,9.518723c1.81604,-1.508926 -9.309387,-7.378326 -6.617706,-19.910919c1.01709,-5.394302 2.109985,-4.441147 4.146088,-5.156265c1.525696,-1.348572 3.780884,-0.316727 5.016205,2.141388c1.600586,3.093567 -3.198334,5.234955 -1.163177,7.534714c3.708801,-4.520828 7.127197,-4.362473 6.472534,-13.247742c-0.146057,-3.329605 4.87384,-2.458115 7.635742,-2.061691c8.361633,0.953156 11.780975,9.756744 19.487976,9.279678c13.307556,23.640915 11.853119,61.16301 15.125458,57.354324c4.726776,-5.633331 2.1091,0.316742 1.31015,1.267914c-3.7836,4.522797 6.254364,21.498535 6.835052,26.814148c0,9.994812 2.837738,19.196777 6.18219,29.191589c-5.018982,5.475006 -13.526672,2.222076 -30.543945,8.171143c-8.506805,2.379456 -5.161407,-0.952148 -7.853027,8.884247c-1.018951,2.697174 -0.437347,3.332611 1.016174,3.808685c0.58252,2.537811 0.87558,1.745026 3.56543,1.428284c5.089264,2.062683 8.578949,-0.873505 9.524872,-2.538788c1.600525,0.635437 2.981964,0.476074 4.072113,-0.635437c5.673676,3.887329 12.725952,1.03186 18.543884,-2.617462c6.618622,-2.697174 5.018982,-1.905365 10.690796,-0.714142c2.545532,0.554779 2.98288,1.189209 6.400391,4.838531c-9.963104,7.218964 -23.708008,3.808685 -38.614319,5.235931c-2.473389,0.237061 -4.292175,0.554779 -5.38327,4.283752c-3.853027,-0.080658 -3.853027,8.170166 -7.344482,12.295563c0.728577,1.983032 3.054108,1.983032 5.59967,1.42627c-0.945007,3.808685 5.018036,0.556763 7.489655,0.556763c-0.361572,4.917236 1.746643,2.537781 3.491486,3.331604c6.762878,-0.317719 -2.982941,-6.107422 9.453613,-3.727997c2.980164,0.396393 4.943207,-0.316711 9.525757,-3.648315c10.761993,-4.522827 21.089417,-1.507965 31.56015,-4.283813c5.454529,-1.507904 2.763794,-10.154144 8.362549,-8.250793c11.56369,4.125397 9.817017,-1.586609 11.054199,-5.315613c24.361755,-5.075592 78.610992,20.388 55.485474,49.422211c-12.87204,16.579315 -63.266388,-6.662201 -94.317993,-6.187134c-50.686584,1.506958 -75.629883,34.74527 -76.35672,45.613586c2.326447,-0.238037 36.724335,-53.227936 112.788818,-25.145874c75.920258,26.890839 102.899689,-21.419861 58.613556,-70.125946c-0.873779,-2.698181 5.671814,1.506927 3.126251,-1.744995c-14.035217,-5.315643 -4.581635,-11.899139 -10.253387,-17.294434c6.399445,-56.480865 5.381439,-103.600357 -25.378906,-149.690002c-6.036102,-9.202988 -24.943359,-25.622955 -20.216553,-27.686661c6.035217,-2.617462 -8.798981,-0.316727 -11.416656,-8.725891c-2.327332,-7.218971 -13.671875,-17.769547 -26.981262,-21.41787c-8.434662,-10.868294 -17.234558,-27.52829 -18.106537,-32.128792c-0.943146,-4.601494 6.107361,2.856522 -3.853882,-6.2658c14.325562,-24.037327 -9.891022,-27.209568 -19.05249,-21.894939c0.362488,-2.538788 -1.382324,-6.979927 -12.506775,-1.983025c-3.564545,-1.111534 -22.107452,-8.568542 -51.923721,-7.853416c0.147018,0 -1.455383,0.555763 0.073044,-2.061714c-1.090179,1.110542 -1.381424,0.633453 -1.236252,2.061714c-1.528442,0 -1.308411,0 -2.617676,0.159363c-1.745743,-2.934196 -1.380554,-2.14138 -4.071274,-2.934196c1.889969,0.715126 2.61676,1.428253 2.763779,2.776833c-2.763779,0 -6.401352,0.159363 -9.673721,0.714134c-4.145157,0.3964 -2.834946,9.043625 0.437363,11.899139c0,0 0,5.870392 -0.80069,4.918221l-5.962143,-2.61747c0,0 6.036072,2.856506 6.181259,3.569641c0.145203,0.714127 0.510376,2.221062 0.654663,2.855515c-1.163208,0.238045 -11.999207,1.824661 -11.999207,1.824661l11.999207,-1.031837c1.746628,3.649323 2.981964,4.046711 4.726791,6.504833c0,2.77684 -1.671753,6.187111 1.818771,6.902237c6.399475,4.36245 -4.508591,-1.190208 -0.291229,8.566544c3.635712,8.329498 7.126251,1.585625 9.743958,3.488983c12.580795,9.441017 16.652939,15.468788 20.798111,23.560234c10.47171,5.474976 12.36261,37.681458 17.525848,44.504013c-9.3815,9.361359 -33.960541,17.769547 -46.395233,22.290359c-5.017151,2.697144 -11.707932,7.694046 -14.982086,14.437927c-1.962143,4.045731 4.293106,-1.189224 5.092026,-2.06369c-0.145172,3.333588 -3.200211,12.852295 -0.145172,14.99469c0.798859,-0.952179 1.81694,-13.883163 6.835007,-13.168045c1.163223,5.631348 -0.363403,12.373245 2.326447,12.850311c1.963913,0.317734 -0.945023,-11.02565 4.729538,-14.120209c3.272324,1.98204 6.906204,-4.919205 9.379654,-4.919205c5.89093,-1.824677 13.307556,4.126404 18.252625,4.126404c0,1.824661 -4.654694,3.09256 -7.562744,7.138275c-6.473419,9.04364 -12.725983,22.212677 -8.509552,29.988403c0.872894,1.822678 0.872894,-7.299652 1.671814,-9.995804z"/>
      <linearGradient id="XMLID_2_" x1="0.977493" y1="7.128226" x2="0.977493" y2="7.128226" gradientTransform="translate(-2.0863, -5.89843) matrix(-0.621872, 0, 0, 0.678372, 445.625, -388.522)">
       <stop offset="0" stop-color="#615A44"/>
       <stop offset="1" stop-color="#BFBFBF"/>
      </linearGradient>
      <path fill-rule="evenodd" clip-rule="evenodd" fill="url(#XMLID_2_)" stroke="#000000" stroke-width="0" stroke-linejoin="bevel" stroke-miterlimit="2.4142" d="m242.386856,39.032146c3.345383,1.74498 7.273254,15.468788 -3.853973,13.40509c-0.511292,1.66729 -1.237152,1.825653 -0.799805,2.856506c2.399445,0.873489 3.126205,0.873489 5.743881,1.506943c-0.363358,0.713135 -0.146042,0.555763 -0.581589,1.030853c-2.256104,-0.47509 -3.926071,-1.267899 -5.308411,-1.267899c0,0.951172 0.290359,1.505943 0.579803,2.299744c2.184891,-0.159355 1.602386,-0.159355 3.419327,-0.159355c1.018036,0.953171 -0.073059,-0.792809 0.291275,0.873489c-1.38237,0.317719 -2.109161,0.396408 -3.710602,0.396408c2.184891,8.488865 19.853134,9.518719 19.418533,20.544376c-0.146088,3.253906 -5.817001,-4.520821 -10.835968,-4.520821c-1.598724,0 -3.634796,2.141388 -2.761932,4.282776c4.071259,10.631241 3.853958,0.237045 10.688934,4.998894c13.527649,9.202988 17.599762,19.276482 20.071381,22.528397c3.198395,0 4.508606,-0.554764 7.490601,5.39431c-3.854858,-5.076584 -4.508606,-4.362465 -7.127197,-4.126411c11.562714,9.520714 12.579865,35.380714 16.434723,41.330788c16.508728,-22.924797 18.47171,-33.554054 15.926178,-58.937965c5.161407,21.577209 -1.59967,38.076851 -10.762939,53.466957c3.346313,-3.569626 9.815216,-14.755661 12.798096,-22.291344c1.963989,-4.918221 3.201996,-24.513412 8.001007,-20.94278c3.635712,2.855522 -9.528534,-17.373123 -4.437408,-14.755646c7.709717,4.205086 -10.90625,-18.403992 0.654663,-29.350964c2.910767,-9.835442 31.488922,-13.564445 18.254425,14.994701c17.306702,-33.477367 -17.235504,-26.020359 -20.579926,-19.673885c-1.673615,-1.825653 9.670044,-8.566544 -6.109192,-3.806686c-17.45459,-10.947968 -40.434906,-11.027649 -62.903885,-10.076477z"/>
      <linearGradient id="XMLID_3_" x1="7.486701" y1="56.7662" x2="7.486701" y2="56.7662" gradientTransform="translate(-2.0863, -5.89843) matrix(-0.621872, 0, 0, 0.678372, 445.625, -388.522)">
       <stop offset="0" stop-color="#A69F77"/>
       <stop offset="1" stop-color="#CAA48C"/>
      </linearGradient>
      <path fill-rule="evenodd" clip-rule="evenodd" fill="url(#XMLID_3_)" stroke="#000000" stroke-width="0" stroke-linejoin="bevel" stroke-miterlimit="2.4142" d="m240.204666,39.271191c-9.235382,-0.792816 -3.635742,13.009674 -2.763763,7.53569c1.60144,-1.825661 3.272339,4.918221 6.182205,3.728004c2.181229,-0.873489 1.962997,-10.867294 -3.418442,-11.263695z"/>
      <linearGradient id="XMLID_4_" x1="4.977508" y1="80.606065" x2="4.977508" y2="80.606065" gradientTransform="translate(-2.0863, -5.89843) matrix(-0.621872, 0, 0, 0.678372, 445.625, -388.522)">
       <stop offset="0" stop-color="#000000"/>
       <stop offset="1" stop-color="#000000"/>
      </linearGradient>
      <path fill-rule="evenodd" clip-rule="evenodd" fill="url(#XMLID_4_)" stroke="#000000" stroke-width="0" stroke-linejoin="bevel" stroke-miterlimit="2.4142" d="m257.947754,56.008869c-4.654678,0.953171 -6.544647,0.47509 -13.016266,8.092457c0.654617,0 5.963043,-7.536686 14.253448,-7.139286c-1.309265,-0.556763 -0.872864,-0.636444 -1.237183,-0.953171z"/>
      <linearGradient id="XMLID_5_" x1="2.384418" y1="52.950672" x2="2.384418" y2="52.950672" gradientTransform="translate(-2.0863, -5.89843) matrix(-0.621872, 0, 0, 0.678372, 445.625, -388.522)">
       <stop offset="0" stop-color="#000000"/>
       <stop offset="1" stop-color="#000000"/>
      </linearGradient>
      <path fill-rule="evenodd" clip-rule="evenodd" fill="url(#XMLID_5_)" stroke="#000000" stroke-width="0" stroke-linejoin="bevel" stroke-miterlimit="2.4142" d="m278.892059,52.51791c-2.254333,0.079681 -2.545624,-2.856514 -5.382416,-0.87149c5.672699,0 5.964905,8.329498 13.1633,4.045723c5.380524,-0.396408 13.306641,6.74189 12.144379,5.554665c-4.291321,-4.681175 -3.78186,-9.520714 -3.491486,-4.681175c0.072144,1.983025 -8.216431,-1.74498 -8.216431,-1.74498c3.055023,-3.413277 -5.59967,-10.315514 -8.217346,-2.302742z"/>
      <linearGradient id="XMLID_6_" x1="24.976303" y1="362.846668" x2="24.976303" y2="362.846668" gradientTransform="translate(-2.0863, -5.89843) matrix(-0.621872, 0, 0, 0.678372, 445.625, -388.522)">
       <stop offset="0" stop-color="#FFFFFF"/>
       <stop offset="1" stop-color="#FFFFFF"/>
      </linearGradient>
      <path fill-rule="evenodd" clip-rule="evenodd" fill="url(#XMLID_6_)" stroke="#000000" stroke-width="0" stroke-linejoin="bevel" stroke-miterlimit="2.4142" d="m285.872223,51.963146c-0.21637,-0.792816 -2.1091,0.079674 -1.743011,0.792809c0.50769,1.110535 2.544617,0.792809 1.743011,-0.792809z"/>
      <linearGradient id="XMLID_7_" x1="1.060328" y1="10.264269" x2="1.060328" y2="10.264269" gradientTransform="translate(-2.0863, -5.89843) matrix(-0.621872, 0, 0, 0.678372, 445.625, -388.522)">
       <stop offset="0" stop-color="#615A44"/>
       <stop offset="1" stop-color="#BFBFBF"/>
      </linearGradient>
      <path fill-rule="evenodd" clip-rule="evenodd" fill="url(#XMLID_7_)" stroke="#000000" stroke-width="0" stroke-linejoin="bevel" stroke-miterlimit="2.4142" d="m308.780396,126.688622c10.616821,-20.862099 34.830688,-10.550575 38.976776,-8.725914c-0.798889,-1.824661 -7.053223,-9.518715 -19.853119,-7.456009c7.780884,-3.808685 21.088501,-3.887367 27.780151,-2.062706c-5.089294,-9.043633 -22.834259,-33.238327 -18.979401,-33.238327c4.434692,0 -4.29126,-5.552666 -3.854858,-2.935188c1.308411,7.0606 -6.253387,2.299744 -8.945038,2.61747c-1.671753,0.159363 -2.61676,1.74498 -5.527557,0.239037c-1.526581,-0.793808 -0.654633,-3.64933 1.59964,-3.64933c11.707947,-0.159355 12.001038,-6.029739 13.1633,-11.820454c-8.50769,-1.506943 -2.109955,-6.743881 -10.68985,-5.473984c2.182159,4.442131 2.690735,7.456009 1.236237,11.661098c-0.944061,-2.299755 -2.1091,-8.250813 -4.944092,-8.725903c-2.1091,14.673985 -4.000061,3.728004 -7.344482,7.694057c-5.164185,6.426147 10.688965,31.810066 4.000031,24.512398c-6.18222,-6.743866 10.616821,21.578239 1.889984,13.327415c-3.853973,-3.48996 -3.853973,15.310425 -8.507721,24.036339z"/>
      <linearGradient id="XMLID_8_" x1="16.734262" y1="100.716883" x2="16.734262" y2="100.716883" gradientTransform="translate(-2.0863, -5.89843) matrix(-0.621872, 0, 0, 0.678372, 445.625, -388.522)">
       <stop offset="0" stop-color="#FFFFFF"/>
       <stop offset="1" stop-color="#FFFFFF"/>
      </linearGradient>
      <path fill-rule="evenodd" clip-rule="evenodd" fill="url(#XMLID_8_)" stroke="#000000" stroke-width="0" stroke-linejoin="bevel" stroke-miterlimit="2.4142" d="m242.459869,67.113213c-0.365204,1.587616 -1.309296,6.981926 1.01709,4.920212c0.945938,-0.873482 -0.728546,1.428261 2.327377,1.586617c0.871964,-0.874481 0,-4.521812 -3.344467,-6.506828z"/>
      <linearGradient id="XMLID_9_" x1="15.440076" y1="72.648132" x2="15.440076" y2="72.648132" gradientTransform="translate(-2.0863, -5.89843) matrix(-0.621872, 0, 0, 0.678372, 445.625, -388.522)">
       <stop offset="0" stop-color="#000000"/>
       <stop offset="1" stop-color="#000000"/>
      </linearGradient>
      <path fill-rule="evenodd" clip-rule="evenodd" fill="url(#XMLID_9_)" stroke="#000000" stroke-width="0" stroke-linejoin="bevel" stroke-miterlimit="2.4142" d="m256.931549,75.205666c1.669952,1.585625 5.380585,9.281677 1.380524,8.567558c5.3815,3.013863 1.454468,-7.139305 -1.380524,-8.567558z"/>
      <linearGradient id="XMLID_10_" x1="0.722221" y1="6.146713" x2="0.722221" y2="6.146713" gradientTransform="translate(-2.0863, -5.89843) matrix(-0.621872, 0, 0, 0.678372, 445.625, -388.522)">
       <stop offset="0" stop-color="#615A44"/>
       <stop offset="1" stop-color="#BFBFBF"/>
      </linearGradient>
      <path fill-rule="evenodd" clip-rule="evenodd" fill="url(#XMLID_10_)" stroke="#000000" stroke-width="0" stroke-linejoin="bevel" stroke-miterlimit="2.4142" d="m334.596588,108.919075c7.999176,2.300751 17.741333,8.329506 16.725098,14.199905c-40.577332,-30.619865 -51.559418,31.01725 -61.522461,33.317986c17.671844,-3.330597 19.562775,-17.769531 22.033447,-13.246704c-0.798889,9.917099 -21.523102,12.295532 -29.013702,18.244614c4.362549,-2.141388 18.616913,-3.728012 23.561005,0.792801c-4.944092,-2.935181 -26.177734,-1.189209 -32.286957,5.790726c0.800781,0 6.908112,-0.87149 7.780029,0c-4.654633,1.269882 -18.323761,-0.633453 -20.725098,5.157257c-1.090149,2.697159 1.673645,1.189209 2.328278,3.568649c0.289429,1.905334 -4.654694,3.252914 -2.910797,4.522812c5.528473,3.966049 18.398712,5.95105 25.089447,8.885254c13.744019,6.108444 12.361694,5.631363 21.451904,11.661102c10.108276,5.631348 23.27066,-22.291351 50.466492,20.147964c-3.344452,-2.300751 -3.344452,-1.585617 -5.669983,-2.061707c4.288544,11.502747 0.944092,20.307327 0.944092,30.303146c11.562744,-10.94899 24.433868,-59.496735 30.323883,-50.769821c4.436493,6.503845 0.873779,-27.052216 4.945953,-20.863098c6.325562,9.75676 2.835907,-40.220245 -3.055023,-44.583694c2.545563,6.981918 4.726807,12.851318 2.255219,17.374115c-1.30838,-42.519989 -35.559265,-45.058777 -52.720825,-42.441307z"/>
      <linearGradient id="XMLID_11_" x1="0.491185" y1="4.57144" x2="0.491185" y2="4.57144" gradientTransform="translate(-2.0863, -5.89843) matrix(-0.621872, 0, 0, 0.678372, 445.625, -388.522)">
       <stop offset="0" stop-color="#615A44"/>
       <stop offset="1" stop-color="#BFBFBF"/>
      </linearGradient>
      <path fill-rule="evenodd" clip-rule="evenodd" fill="url(#XMLID_11_)" stroke="#000000" stroke-width="0" stroke-linejoin="bevel" stroke-miterlimit="2.4142" d="m387.391357,135.177475c4.290375,13.406067 8.944183,43.311813 2.472534,47.676254c-2.036072,1.34758 -1.30838,-5.315613 -2.472534,-2.617462c-1.817871,4.679169 0.436462,19.355148 -3.70874,23.797272c-1.237183,1.348587 -1.018097,-6.82254 -2.836823,-3.173218c-5.743958,10.869278 -12.652924,23.005463 -13.087524,29.668671c15.415771,-2.617462 -2.401306,-0.87149 -4.727753,8.647232c13.744934,-1.984024 19.925293,0.555756 24.653015,6.743866c-23.85318,-16.262589 -41.887543,12.929001 -48.287079,30.937576c-5.672668,15.151062 0.944092,42.518005 7.635773,48.469055c4.726837,4.28479 21.233673,5.236938 23.05249,15.866211c-6.543823,-10.153168 -14.835114,-9.835449 -18.5448,-10.393219c1.456299,4.126404 5.164154,7.220978 6.763794,9.04364c0.799835,1.744965 -7.999146,3.25293 -2.763794,4.362427c14.5448,4.362488 6.982056,6.585541 6.982056,9.281677c4.144287,-0.953156 10.470764,3.013885 14.252594,-7.139282c2.254272,-6.108429 14.253448,3.88739 14.762024,-7.059601c14.615906,-12.375244 -16.289581,-26.812164 13.525787,-41.646484c-11.780975,13.325409 -6.544708,16.579315 -6.18219,28.477448c0.364288,-8.647186 22.180481,-10.94696 14.908112,-21.17981c3.781799,2.299744 1.745697,4.205078 1.745697,6.979919c3.345367,0.87149 13.96225,-11.661102 15.853149,-21.81427c0.727692,16.737671 -23.925323,22.925812 -11.635773,38.473297c6.036072,-17.134094 27.561035,-6.901276 19.052399,-14.834351c-1.526581,-1.506958 -3.127167,-5.712036 -8.872009,-4.362457c4.000916,-1.744965 4.508575,-0.396423 9.963074,2.460114c4.364349,-26.177765 4.872925,-62.828323 -1.381409,-88.370605c-15.416687,-67.270447 -51.558502,-81.628708 -45.668457,-84.326859c4.799835,-2.06369 -3.709686,-3.252899 -5.453613,-3.967041z"/>
      <linearGradient id="XMLID_12_" x1="3.517901" y1="26.108403" x2="2.050768" y2="26.108403" gradientTransform="translate(-2.0863, -5.89843) matrix(-0.621872, 0, 0, 0.678372, 445.625, -388.522)">
       <stop offset="0" stop-color="#FEE0B3"/>
       <stop offset="1" stop-color="#99998E"/>
      </linearGradient>
      <path fill-rule="evenodd" clip-rule="evenodd" fill="url(#XMLID_12_)" stroke="#000000" stroke-width="0" stroke-linejoin="bevel" stroke-miterlimit="2.4142" d="m258.312073,173.016296c-13.889175,3.093536 -18.107407,4.918213 -26.834259,16.340286c-0.362473,2.063705 4.726837,-3.965057 9.525742,-6.662216c-2.32637,2.537796 -2.616745,3.014862 -4.072128,4.75885c-1.308395,1.903351 -2.762863,11.741791 -1.816956,11.741791c0.945007,0 0.363373,-8.410187 7.927002,-12.295563c-0.145157,4.99791 -0.800735,13.643127 0.727676,13.485764c1.453598,-0.238037 -1.528412,-8.092453 4.071274,-13.167038c5.090179,3.410278 6.835022,-5.315628 11.200287,-5.712021c0.871948,0 -1.8909,-0.873505 1.090149,-4.126419c1.30838,-1.428238 -0.219147,-4.681168 -1.818787,-4.363434z"/>
      <linearGradient id="XMLID_13_" x1="3.226989" y1="20.614708" x2="1.757791" y2="20.614708" gradientTransform="translate(-2.0863, -5.89843) matrix(-0.621872, 0, 0, 0.678372, 445.625, -388.522)">
       <stop offset="0" stop-color="#FEE0B3"/>
       <stop offset="1" stop-color="#99998E"/>
      </linearGradient>
      <path fill-rule="evenodd" clip-rule="evenodd" fill="url(#XMLID_13_)" stroke="#000000" stroke-width="0" stroke-linejoin="bevel" stroke-miterlimit="2.4142" d="m260.129944,222.51622c1.162292,4.759857 0.290314,-8.091461 2.327362,-9.599396c0.291199,2.301743 4.508606,12.295547 5.453552,11.265701c0.292175,-0.316742 -3.344452,-6.267792 -3.417511,-12.930008c1.090179,3.728012 10.835083,13.960846 11.490662,13.168045c1.527466,-0.476089 -3.635742,-0.951172 -6.326477,-11.897156c-1.746674,-7.53569 0.798889,-11.662109 2.981079,-12.772629c5.018036,-1.03186 1.962128,-2.856522 7.491486,2.220062c0.508545,0.716125 -0.801697,3.728012 -1.746643,6.2668c0.799805,0.317719 2.689819,-2.221054 4.2164,-3.727997c1.163269,-1.428268 1.529358,-2.140396 0.728607,-6.663208c0,-2.299759 0.146088,-4.760849 3.417511,-4.760849c-0.873749,-0.951172 -5.090179,-4.123413 -7.927032,-3.965057c-6.690704,1.824661 -9.453583,6.108429 -10.980225,8.962952c-1.744812,3.332596 -10.254364,13.486755 -7.708771,24.432739z"/>
      <linearGradient id="XMLID_14_" x1="1.097" y1="9.530332" x2="1.097" y2="9.530332" gradientTransform="translate(-2.0863, -5.89843) matrix(-0.621872, 0, 0, 0.678372, 445.625, -388.522)">
       <stop offset="0" stop-color="#BFBFBF"/>
       <stop offset="1" stop-color="#615A44"/>
      </linearGradient>
      <path fill-rule="evenodd" clip-rule="evenodd" fill="url(#XMLID_14_)" stroke="#000000" stroke-width="0" stroke-linejoin="bevel" stroke-miterlimit="2.4142" d="m313.289917,203.874191c9.815186,22.530396 11.270599,50.215073 14.469818,54.658188c1.383301,-1.744995 7.27243,-5.315613 5.673676,-2.936188c-8.436523,12.613281 -4.509521,11.899139 2.253387,31.414642c1.091095,-11.343384 6.255219,-22.210693 14.325592,-31.810089c1.018036,-6.741867 5.091095,-34.823914 -0.50946,-36.172501c2.834045,-2.856506 9.890045,4.60051 3.563599,-1.745987c-7.99823,-12.613266 -21.597992,-24.990479 -39.776611,-13.408066z"/>
      <linearGradient id="XMLID_15_" x1="0.229336" y1="19.098041" x2="0.229336" y2="19.098041" gradientTransform="translate(-2.0863, -5.89843) matrix(-0.621872, 0, 0, 0.678372, 445.625, -388.522)">
       <stop offset="0" stop-color="#615A44"/>
       <stop offset="1" stop-color="#BFBFBF"/>
      </linearGradient>
      <path fill-rule="evenodd" clip-rule="evenodd" fill="url(#XMLID_15_)" stroke="#000000" stroke-width="0" stroke-linejoin="bevel" stroke-miterlimit="2.4142" d="m414.806335,317.471344c-1.454468,1.348572 -1.018036,4.126404 -1.59964,6.505829c-1.091125,-2.380432 -0.363403,-5.474976 1.745728,-10.947968c-7.562744,10.392212 -12.87204,7.139282 -16.072235,15.311401c-0.654694,1.585632 -2.399475,9.360382 -6.035217,11.184021c7.343567,-1.50592 35.195892,0.872498 50.104004,16.659027c3.19931,-1.506927 -1.091095,-8.486877 -6.108246,-13.882202c0.871979,-1.824646 7.635773,3.966095 6.617737,0.952209c-1.309326,-4.362457 0.799805,-5.95108 5.090179,-3.649323c3.272339,1.824646 -3.053192,-6.347504 -1.381409,-6.347504c-10.47168,-7.535706 -2.327332,-11.820435 -6.617737,-13.485748c-1.381409,0.396393 -14.762024,-4.918213 -20.798126,9.518707c-3.054108,-2.774841 -4.290405,-6.02774 -4.945038,-11.818451z"/>
      <linearGradient id="XMLID_16_" x1="1.829143" y1="37.081999" x2="0.362706" y2="37.081999" gradientTransform="translate(-2.0863, -5.89843) matrix(-0.621872, 0, 0, 0.678372, 445.625, -388.522)">
       <stop offset="0" stop-color="#FEE0B3"/>
       <stop offset="1" stop-color="#99998E"/>
      </linearGradient>
      <path fill-rule="evenodd" clip-rule="evenodd" fill="url(#XMLID_16_)" stroke="#000000" stroke-width="0" stroke-linejoin="bevel" stroke-miterlimit="2.4142" d="m303.399841,337.460938c2.761932,-1.585632 -2.617676,-5.949066 8.287659,-8.009766c-2.834076,3.410248 -7.999146,2.300751 -7.271454,10.629242c4.800781,1.267883 3.200195,-8.329498 11.562714,-8.410187c-3.054077,1.587616 -9.379608,8.726898 -7.198364,8.965942c7.198364,0.87149 5.162323,-2.301758 7.198364,-3.175232c2.037048,-0.950165 1.89093,1.191193 5.59967,-0.394409c11.490692,4.757874 19.489807,-7.298645 27.707184,-4.205109c-8.799896,-6.82254 1.237152,-3.490936 2.036072,-3.331573c0.79892,0.158356 -7.709686,-2.934204 -9.380585,-9.756775c-10.472565,6.266785 -14.181366,0.87149 -29.015533,7.059631c-8.871063,3.729004 -7.782745,-2.379456 -9.525726,10.628235z"/>
      <linearGradient id="XMLID_17_" x1="0.5319" y1="10.46676" x2="0.5319" y2="10.46676" gradientTransform="translate(-2.0863, -5.89843) matrix(-0.621872, 0, 0, 0.678372, 445.625, -388.522)">
       <stop offset="0" stop-color="#CAA48C"/>
       <stop offset="1" stop-color="#99998E"/>
      </linearGradient>
      <path fill-rule="evenodd" clip-rule="evenodd" fill="url(#XMLID_17_)" stroke="#000000" stroke-width="0" stroke-linejoin="bevel" stroke-miterlimit="2.4142" d="m450.657806,339.444946c-0.872864,1.824646 -1.453552,1.348572 -4.362549,0.714142c-1.817841,-0.239075 -4.145172,6.979919 -1.164093,12.77063c7.127167,6.980927 17.380646,30.780182 -1.454498,43.154449c-13.670959,8.965912 -48.358276,-5.472992 -77.737183,-9.994812c-30.979462,-4.75885 -72.284485,11.185028 -86.391907,38.315887c30.323914,-34.270142 65.592834,-33.873779 95.482117,-27.527283c82.318848,34.904633 117.369568,-8.487854 75.628113,-57.433014z"/>
      <linearGradient id="XMLID_18_" x1="1.684896" y1="36.639441" x2="0.216976" y2="36.639441" gradientTransform="translate(-2.0863, -5.89843) matrix(-0.621872, 0, 0, 0.678372, 445.625, -388.522)">
       <stop offset="0" stop-color="#FEE0B3"/>
       <stop offset="1" stop-color="#99998E"/>
      </linearGradient>
      <path fill-rule="evenodd" clip-rule="evenodd" fill="url(#XMLID_18_)" stroke="#000000" stroke-width="0" stroke-linejoin="bevel" stroke-miterlimit="2.4142" d="m319.76062,365.067902c7.56366,0.87149 2.690765,-3.251923 4.799896,-3.88739c2.109985,-0.553772 11.343567,2.2211 15.198425,-2.458099c6.18222,-5.395294 17.815277,-1.190216 21.96228,-5.633331c1.817871,-4.441132 0.217316,-4.997925 -9.383301,-9.281677c-4.215515,-0.951172 -11.560059,1.744995 -19.850433,1.824646c-8.074005,0.078705 -17.235474,-2.379425 -18.76297,2.459106c-0.79895,0 9.236328,-1.269867 10.109192,0.555786c-17.744049,0.476074 -9.308472,-1.428253 -17.598846,12.057495c6.255219,3.173248 5.598724,-5.633301 7.854858,-7.933075c1.817902,-1.905334 0.289459,-2.538788 12.216492,-0.475098c-13.890106,-0.714142 -12.652924,4.996918 -14.106506,10.629242c8.653839,0.792816 4.871124,-5.870392 9.017212,-6.108429c4.434631,-0.317719 5.670898,-2.935181 7.927002,0c-10.038849,-1.028839 -9.529388,3.094574 -9.383301,8.250824z"/>
      <path fill-rule="evenodd" clip-rule="evenodd" fill="none" stroke="#000000" stroke-width="0" stroke-linejoin="bevel" stroke-miterlimit="2.4142" d="m289.219421,418.058807c-0.873749,0.952148 -0.873749,0.952148 -1.672668,1.905334c-0.800781,0.792786 -0.800781,0.792786 1.672668,-1.905334z"/>
      <linearGradient id="XMLID_19_" x1="5.25361" y1="336.278985" x2="5.25361" y2="336.278985" gradientTransform="translate(-2.0863, -5.89843) matrix(-0.621872, 0, 0, 0.678372, 445.625, -388.522)">
       <stop offset="0" stop-color="#000000"/>
       <stop offset="1" stop-color="#000000"/>
      </linearGradient>
      <path fill-rule="evenodd" clip-rule="evenodd" fill="url(#XMLID_19_)" stroke="#000000" stroke-width="0" stroke-linejoin="bevel" stroke-miterlimit="2.4142" d="m258.312073,43.474277c-8.945023,-0.792809 -10.762024,-0.237045 -3.344452,0.714134c4.145172,0 14.470795,2.221069 3.344452,-0.714134z"/>
      <linearGradient id="XMLID_20_" x1="6.783803" y1="68.187853" x2="6.783803" y2="68.187853" gradientTransform="translate(-2.0863, -5.89843) matrix(-0.621872, 0, 0, 0.678372, 445.625, -388.522)">
       <stop offset="0" stop-color="#000000"/>
       <stop offset="1" stop-color="#000000"/>
      </linearGradient>
      <path fill-rule="evenodd" clip-rule="evenodd" fill="url(#XMLID_20_)" stroke="#000000" stroke-width="0" stroke-linejoin="bevel" stroke-miterlimit="2.4142" d="m263.111053,57.276775c-1.744873,4.126396 -3.926117,6.901241 -9.672775,8.806583c2.400375,-1.348579 7.78093,-2.935207 8.580765,-9.5994c0.654633,-0.078682 1.237152,1.348579 1.09201,0.792816z"/>
     </g>
    </g>
   </g>
  </switch>
 </g>
</svg>