<?xml version="1.0" encoding="UTF-8" standalone="no"?>
<!-- Created with Inkscape (http://www.inkscape.org/) -->

<svg
   width="210mm"
   height="297mm"
   viewBox="0 0 210 297"
   version="1.1"
   id="svg5"
   inkscape:version="1.2.2 (b0a8486541, 2022-12-01)"
   sodipodi:docname="orchestrator.svg"
   xmlns:inkscape="http://www.inkscape.org/namespaces/inkscape"
   xmlns:sodipodi="http://sodipodi.sourceforge.net/DTD/sodipodi-0.dtd"
   xmlns="http://www.w3.org/2000/svg"
   xmlns:svg="http://www.w3.org/2000/svg">
  <sodipodi:namedview
     id="namedview7"
     pagecolor="#ffffff"
     bordercolor="#666666"
     borderopacity="1.0"
     inkscape:showpageshadow="2"
     inkscape:pageopacity="0.0"
     inkscape:pagecheckerboard="0"
     inkscape:deskcolor="#d1d1d1"
     inkscape:document-units="mm"
     showgrid="false"
     inkscape:zoom="2.28034"
     inkscape:cx="197.55826"
     inkscape:cy="426.47149"
     inkscape:window-width="1854"
     inkscape:window-height="1131"
     inkscape:window-x="0"
     inkscape:window-y="0"
     inkscape:window-maximized="1"
     inkscape:current-layer="layer2" />
  <defs
     id="defs2">
    <marker
       style="overflow:visible"
       id="Arrow5"
       refX="0"
       refY="0"
       orient="auto-start-reverse"
       inkscape:stockid="Arrow5"
       markerWidth="5.8874264"
       markerHeight="6.6094756"
       viewBox="0 0 5.8874262 6.6094758"
       inkscape:isstock="true"
       inkscape:collect="always"
       preserveAspectRatio="xMidYMid">
      <path
         transform="scale(0.5)"
         style="fill:context-stroke;fill-rule:evenodd;stroke:context-stroke;stroke-width:1pt"
         d="m 6,0 c -3,1 -7,3 -9,5 0,0 0,-4 2,-5 -2,-1 -2,-5 -2,-5 2,2 6,4 9,5 z"
         id="path8893" />
    </marker>
    <marker
       style="overflow:visible"
       id="EmptyTriangleIn"
       refX="0"
       refY="0"
       orient="auto-start-reverse"
       inkscape:stockid="EmptyTriangleIn"
       markerWidth="5.8241119"
       markerHeight="6.7330775"
       viewBox="0 0 5.8241121 6.7330776"
       inkscape:isstock="true"
       inkscape:collect="always"
       preserveAspectRatio="xMidYMid">
      <path
         transform="scale(0.5)"
         style="fill:context-fill;fill-rule:evenodd;stroke:context-stroke;stroke-width:2"
         d="M 5.77,0 -2.88,5 V -5 Z"
         id="path153" />
    </marker>
    <marker
       style="overflow:visible"
       id="Arrow5-3"
       refX="0"
       refY="0"
       orient="auto-start-reverse"
       inkscape:stockid="Arrow5"
       markerWidth="5.8874264"
       markerHeight="6.6094756"
       viewBox="0 0 5.8874262 6.6094758"
       inkscape:isstock="true"
       inkscape:collect="always"
       preserveAspectRatio="xMidYMid">
      <path
         transform="scale(0.5)"
         style="fill:context-stroke;fill-rule:evenodd;stroke:context-stroke;stroke-width:1pt"
         d="m 6,0 c -3,1 -7,3 -9,5 0,0 0,-4 2,-5 -2,-1 -2,-5 -2,-5 2,2 6,4 9,5 z"
         id="path8893-5" />
    </marker>
  </defs>
  <g
     inkscape:label="Layer 1"
     inkscape:groupmode="layer"
     id="layer1">
    <rect
       style="fill:none;stroke:#000000;stroke-width:1;stroke-linecap:square;stroke-linejoin:bevel;paint-order:markers fill stroke;stroke-opacity:1;stroke-dasharray:none"
       id="rect1877"
       width="58.446236"
       height="44.624352"
       x="21.263548"
       y="94.487999" />
    <rect
       style="fill:none;stroke:#000000;stroke-width:1.1;stroke-linecap:square;stroke-linejoin:round;stroke-dasharray:none;stroke-opacity:1;paint-order:markers fill stroke"
       id="rect1877-6"
       width="51.19334"
       height="38.352142"
       x="24.932943"
       y="97.631798" />
    <rect
       style="fill:none;stroke:#000000;stroke-width:1;stroke-linecap:square;stroke-linejoin:round;stroke-dasharray:none;stroke-opacity:1;paint-order:markers fill stroke"
       id="rect1877-3"
       width="71.616051"
       height="7.8741207"
       x="14.614543"
       y="138.80127" />
    <circle
       style="fill:#ffffff;stroke:none;stroke-width:1.1;stroke-linecap:square;stroke-linejoin:round;stroke-dasharray:none;stroke-opacity:1;paint-order:markers fill stroke;fill-opacity:1"
       id="path4926"
       cx="52.123703"
       cy="95.91864"
       r="13.906491" />
    <path
       style="fill:none;fill-rule:evenodd;stroke:#000000;stroke-width:2;stroke-linecap:round;stroke-linejoin:miter;stroke-dasharray:none;stroke-opacity:1;marker-end:url(#EmptyTriangleIn)"
       d="M 51.3712,134.89733 51.2789,118.97307"
       id="path7548"
       sodipodi:nodetypes="cc" />
  </g>
  <g
     inkscape:groupmode="layer"
     id="layer2"
     inkscape:label="TOP">
    <g
       id="g13198"
       transform="matrix(1.2240239,0,0,1.2240239,-119.33012,25.677725)"
       style="stroke:#000000;stroke-opacity:1">
      <path
         style="fill:#ffffff;fill-opacity:1;stroke:#000000;stroke-width:1;stroke-linecap:square;stroke-linejoin:round;stroke-dasharray:none;stroke-opacity:1;marker-end:url(#Arrow5);paint-order:markers fill stroke"
         id="path4926-5"
         sodipodi:type="arc"
         sodipodi:cx="140.38181"
         sodipodi:cy="58.275883"
         sodipodi:rx="10.628112"
         sodipodi:ry="10.628112"
         sodipodi:start="5.9341195"
         sodipodi:end="2.6179939"
         sodipodi:arc-type="arc"
         d="m 150.36896,54.640855 a 10.628112,10.628112 0 0 1 -5.49552,13.267368 10.628112,10.628112 0 0 1 -13.69585,-4.318285"
         sodipodi:open="true" />
      <path
         style="fill:#ffffff;fill-opacity:1;stroke:#000000;stroke-width:1;stroke-linecap:square;stroke-linejoin:round;stroke-dasharray:none;stroke-opacity:1;marker-end:url(#Arrow5-3);paint-order:markers fill stroke"
         id="path4926-5-6"
         sodipodi:type="arc"
         sodipodi:cx="139.65742"
         sodipodi:cy="56.855782"
         sodipodi:rx="10.628112"
         sodipodi:ry="10.628112"
         sodipodi:start="3.1415927"
         sodipodi:end="5.4977871"
         sodipodi:arc-type="arc"
         d="m 129.02931,56.855782 a 10.628112,10.628112 0 0 1 6.56091,-9.819095 10.628112,10.628112 0 0 1 11.58241,2.303884"
         sodipodi:open="true" />
    </g>
    <ellipse
       style="fill:#ffffff;fill-opacity:1;stroke:#000000;stroke-width:0.836398;stroke-linecap:square;stroke-linejoin:round;stroke-dasharray:none;stroke-opacity:1;paint-order:markers fill stroke"
       id="path4926-7"
       cx="51.791897"
       cy="95.934959"
       rx="5.9324627"
       ry="5.7693176" />
    <g
       inkscape:label="Rendered Gears"
       transform="matrix(1.2506931,0,0,1.2506931,51.854975,95.765033)"
       id="g14178"
       style="stroke-width:1.13808;stroke-dasharray:none">
      <path
         style="fill:none;stroke:#000000;stroke-width:1.13808;stroke-dasharray:none"
         d="m 4.94083,-1.05958 1.24965,-0.26799 0.41762,0.01314 1.80152,0.85881 V 0.45562 L 6.6081,1.31443 6.19048,1.32757 4.94083,1.05958 4.24293,2.74446 5.31607,3.4386 5.60208,3.74319 6.26867,5.62432 5.62432,6.26867 3.74319,5.60208 3.4386,5.31607 2.74446,4.24293 1.05958,4.94083 1.32757,6.19048 1.31443,6.6081 0.45562,8.40962 H -0.45562 L -1.31443,6.6081 -1.32757,6.19048 -1.05958,4.94083 -2.74446,4.24293 -3.4386,5.31607 -3.74319,5.60208 -5.62432,6.26867 -6.26867,5.62432 -5.60208,3.74319 -5.31607,3.4386 -4.24293,2.74446 -4.94083,1.05958 -6.19048,1.32757 -6.6081,1.31443 -8.40962,0.45562 v -0.91124 l 1.80152,-0.85881 0.41762,-0.01314 1.24965,0.26799 0.6979,-1.68488 -1.07314,-0.69414 -0.28601,-0.30459 -0.66659,-1.88113 0.64435,-0.64435 1.88113,0.66659 0.30459,0.28601 0.69414,1.07314 1.68488,-0.6979 -0.26799,-1.24965 0.01314,-0.41762 0.85881,-1.80152 h 0.91124 l 0.85881,1.80152 0.01314,0.41762 -0.26799,1.24965 1.68488,0.6979 0.69414,-1.07314 0.30459,-0.28601 1.88113,-0.66659 0.64435,0.64435 -0.66659,1.88113 -0.28601,0.30459 -1.07314,0.69414 z"
         id="path14176" />
    </g>
  </g>
</svg>
