<?xml version="1.0" encoding="iso-8859-1"?>
<!-- Generator: Adobe Illustrator 13.0.2, SVG Export Plug-In . SVG Version: 6.00 Build 14948)  -->
<!DOCTYPE svg PUBLIC "-//W3C//DTD SVG 1.1//EN" "http://www.w3.org/Graphics/SVG/1.1/DTD/svg11.dtd">
<svg version="1.1" id="Layer_1" xmlns="http://www.w3.org/2000/svg" xmlns:xlink="http://www.w3.org/1999/xlink" x="0px" y="0px"
	 width="98.842px" height="163.939px" viewBox="0 0 98.842 163.939" style="enable-background:new 0 0 98.842 163.939;"
	 xml:space="preserve">
<path d="M20.055,67.829c1.389,0.416,0.537,0.715,0.478,1.91C19.144,69.323,19.996,69.024,20.055,67.829z"/>
<path d="M18.623,75.469c1.766-0.408,0.078,2.139,0,2.865C17.278,77.851,18.754,76.306,18.623,75.469z"/>
<path d="M16.235,111.759c0.513,1.596,1.293,4.8,0.478,6.207C15.903,116.669,16.096,112.49,16.235,111.759z"/>
<path d="M14.325,113.669c1.019-0.223,0.91,0.683,0.955,1.433c-0.387-0.091-0.476-0.479-0.955-0.478
	C14.325,114.306,14.325,113.987,14.325,113.669z"/>
<path d="M14.803,117.489c0.555-0.078,0.85,0.104,0.955,0.477c0.75,0.871,0.419,2.786,0.478,4.775
	c0.046,1.569,0.717,4.129-0.478,3.82C14.617,125.284,15.547,120.438,14.803,117.489z"/>
<path d="M82.608,129.903c0.843-0.152,0.852,2.676-0.479,1.91C82.069,130.957,82.715,130.807,82.608,129.903z"/>
<path d="M80.22,138.021c0.348,1.303-0.947,0.961-0.955,1.909C78.252,139.78,79.162,137.668,80.22,138.021z"/>
<path d="M37.723,143.274c-1.779-0.506-1.542,1.005-2.387,1.432c-1.701,0.109-2.497-0.687-2.388-2.387
	C34.913,143.916,36.958,140.182,37.723,143.274z"/>
<path d="M19.1,146.616c0,0.955,0,1.91,0,2.865C17.615,149.503,16.976,146.224,19.1,146.616z"/>
<path d="M12.893,139.931c0.911,0.049-0.38,1.778-0.478,2.389c0.878-0.117,1.614,0.744,2.865,1.432
	c-2.288,2.986,2.785,3.722,2.865,7.162c-4.944-0.626-4.901-6.24-9.072-7.639c-3.696-11.062-8.391-21.569-6.208-36.291
	c0.114-0.771,0.15-0.935,0.955-0.955c0.346-1.46-0.824-1.404-0.478-2.865c3.17-1.397,1.31-5.725,1.91-9.072
	c0.431-2.401,2.561-4.062,1.91-6.207c0.707-0.247,1.204-0.706,1.91-0.954c1.417-9.521,5.963-19.427,3.82-30.561
	C10.665,44.795,1.118,38.359,0,25.809c1.745,5.194,0.482-3.33,0.955-6.686C1.975,11.898,6.221,3.806,13.37,1.456
	c0.706-0.231,1.651,0.126,2.388,0c1.375-0.233,3.125-1.34,4.297-1.433c2.996-0.236,5.895,1.414,9.55,0.478
	c1.518,1.348,3.639,2.091,6.208,2.389c7.102,6.987,10.564,11.638,9.55,23.396c-0.262,3.031-1.101,7.229-2.388,10.027
	c-0.27,0.587-1.16,0.733-1.433,1.433c-1.412,3.619-2.098,7.812-3.82,11.46c-0.658,1.395-2.261,2.381-2.865,3.82
	c-0.283,0.675,0.204,1.68,0,2.387c-2.829,9.805-7.34,21.252-6.685,32.47c2.5-1.077,4.937,0.188,7.163,0
	c2.414-0.205,4.771-1.716,7.162-1.909c3.231-0.264,6.585,1.524,10.027-0.479c-1.618-2.003-1.735-5.53,0.955-6.685
	c1.018,1.875,0.388,5.639,0,7.64c4.051,0.678,8.517-1.065,11.938-0.478c1.142,0.195,2.915,0.159,3.342,1.909
	c3.029,0.153,6.771-0.403,9.072,0.479c1.229-0.362,1.659-1.524,1.433-3.343c3.248-5.348,6.133-11.059,12.416-13.37
	c2.018,2.439,5.12,3.792,7.161,6.208c-2.153,3.098-4.384,6.121-6.207,9.55c-0.226,1.499,1.285,1.262,1.433,2.388
	c-0.039,4.101-0.459,7.817-2.387,10.027c-0.285,4.797,0.231,10.584,0.478,15.758c0.683,14.453-1.683,27.519-10.027,34.38
	c-0.884,0.071-0.293,1.616-0.955,1.909c-1.214,0.697-2.911,0.909-2.864,2.865c-8.242,4.902-17.26,10.109-32.471,9.072
	c-11.512-0.784-21.386-5.249-27.218-11.459c0.962-0.948,0.83-2.99,1.433-4.299c0.871,1.135,1.115,2.894,0.478,4.299
	c2.365,0.612-0.455-3.957,1.91-3.344c0,1.273,0,2.546,0,3.819c1.158,0.593,2.223,1.279,2.865,2.389
	c0.738-0.926-0.423-4.014-0.478-5.729c3.526,0.931,6.357,2.557,9.073,4.297c3.823-2.382,8.977,1.762,13.37,0.479
	c-0.123-0.991-2.098-0.131-2.388-0.955c1.548-1.315,4.867-0.33,7.641-0.479c3.408-0.18,6.582-1.039,9.072-1.432
	c-1.688,2.77-7.145,1.77-10.506,2.864c7.068,1.972,12.064-2.259,16.235-4.774c0.188-1.146-2.175,0.265-1.433-1.434
	c5.698,0.606,6.653-3.532,10.506-4.773c-1.043,1.504-2.517,2.578-3.344,4.297c7.123-4.814,11.373-12.502,12.416-23.397
	c0.383,0.253,0.774,0.498,1.432,0.479c0.647-2.081-1.137-1.729-1.432-2.865c0-3.979,0-7.958,0-11.938
	c0.795-1.518,0.158,2.332,0.954,2.388c1.271-0.479,2.067-7.456-0.479-7.163c-0.464-1.737,2.325-0.221,1.434-2.387
	c-1.668-1.176-2.973-0.429-4.774-1.91c-0.387,0.091-0.478,0.479-0.955,0.478c-1.162,3.812-0.312,9.253-0.479,12.894
	c-1.812,4.325-3.521,11.003-3.818,15.279c-2.322,1.34-3.414,3.907-3.82,7.162c-1.605,0.49-0.744-1.484-0.955-2.388
	c-1.182,0.57-1.867,1.635-2.389,2.865c-3.187,2.544-8.412,3.046-10.981,6.208c-3.871,0.405-9.93,2.155-13.37,0
	c-0.446,0.35-0.724,0.867-0.955,1.432c-3.378-2.25-7.024-1.77-7.163-4.774c-2.039,0.918-2.343,0.602-4.297,1.434
	c-1.532-1.215-4.518-2.297-3.343-4.775c-2.481-1.756-6.267-1.896-7.162-6.207c-1.277-0.143,1.269,1.853-0.955,1.433
	c-1.401-1.568,0.234-2.377,0.955-3.82c-2.197-0.189-1.207-3.567-2.865-4.297c-1.293,2.248,0.811,3.308,0,5.252
	c-2.686-1.293-2.563-5.395-3.342-8.595c0.627,0.169,0.751,0.841,1.432,0.955c0.767-0.665,0.509-2.356,1.433-2.864
	c-2.161-2.297-2.067-6.848-1.91-11.461c-0.641,0.313-0.889,1.021-0.955,1.91c-0.94-2.121-3.081-2.062-1.91-5.252
	c0.385,0.33,1.308,0.742,1.433,0c1.072,0.2,0.013,2.533,0.955,2.864c1.055-1.029,0.08-4.375,2.387-2.864
	c-0.264-1.328-1.961-1.224-1.91-2.865c-1.266-0.152,0.447,2.675-1.432,1.91c0.04-2.459-4.454-1.881-7.163-2.865
	c0.219,1.039-2.795,3.217-2.388,2.388c-0.299,0.609,0.495,0.836,0.478,0.954c-0.069,0.484-0.922,0.289-0.955,0.479
	c-0.145,0.827,0.158,1.788,0,2.865c-0.343,2.348-0.596,5.577-0.955,9.071c-0.421,4.099,2.139,8.388,0,11.459
	c0.044,1.709,1.135-0.016,1.91,0.955C8.764,129.999,9.329,141.315,12.893,139.931z M78.31,144.706
	c-1.791,0.914-3.209,2.202-4.297,3.82c1.653-0.062,1.082,2.101,2.389,2.387C74.156,147.755,79.711,146.902,78.31,144.706z
	 M76.401,149.481c0.477,0,0.953,0,1.432,0C78.091,147.752,76.142,147.752,76.401,149.481z M29.128,52.549
	c0.248-0.752,1.838-2.558,0.477-3.343C29.476,50.077,27.886,51.883,29.128,52.549z M35.335,32.016
	c-0.027,0.292-0.072,0.564-0.478,0.478c-0.292-0.027-0.565-0.071-0.478-0.478c1.311-2.986-0.104-8.699,2.387-10.506
	c0.224,3.099-1.675,6.589-0.478,9.072c0.568-2.54,1.346-5.329,1.433-8.117c0.135-4.324-1.652-7.896-1.433-10.982
	C33.441,3.29,19.573-0.354,10.505,4.799c-1.359,3.641-5.986,5.249-3.82,10.982c-1.698,1.354-1.16,5.711-2.865,7.163
	c0.369-0.327,1.243-2.845-0.478-2.388c-0.567,2.954,0.709,4.065,1.433,5.729c-1.559,2.838,1.027,5.219,1.91,7.163
	c0.234,1.507-0.86,1.686-0.478,3.342c0.456,0.817,1.585,0.962,1.91,1.91c-0.491,4.348,4.713,4.883,3.343,8.595
	c3.743,1.45,3.328,5.13,2.865,9.072c0.818,0.824,1.877-0.702,1.91,1.433c-3.33,0.104-0.183,2.827,0.478,3.343
	c-0.896,0.537-1.015,1.851-1.91,2.388c1.454,2.66-0.553,9.937-1.433,11.938c-0.769,1.75,0.211,2.707,0,3.82
	c-0.494,2.604-1.82,4.83-2.865,7.163c1.522,1.155,6.07,1.388,8.117,0.479c-0.17-2.099-0.118-6.461,1.433-5.253
	c-0.152,1.122-0.754,1.792-0.478,3.343c2.489-0.81,0.497-4.216,1.91-6.686c-0.429-0.845-1.153-1.395-1.433-2.388
	c1.502-1.682,0.481-5.886,2.388-7.163c0.457,0.889-1.43,1.596,0,1.91c1.967-1.864-2.365-4.461,0.478-5.73
	c0.081,0.714-0.171,1.763,0.478,1.91c0.366-2.191,2.03-5.594,1.432-7.163c-0.231,0.564-0.509,1.083-0.955,1.434
	c-0.867-2.479,2.033-3.834,2.865-5.252c1.661-2.831,1.639-6.749,3.342-9.551c-0.562-0.074-1.355,0.082-1.432-0.478
	c0.221-1.53,1.818-1.684,1.91-3.343c0.567-2.523,1.047-5.83,2.388-6.686c0.591,2.052-1.859,3.517-0.478,4.775
	C33.351,38.232,36.054,32.839,35.335,32.016z M4.298,19.124c-0.82-1.928,2.524-3.726,0-4.297
	C4.603,16.607,2.045,18.265,4.298,19.124z M39.155,21.034c0.757-0.714,0.352-1.953-0.478-2.388
	C38.027,19.254,37.94,20.985,39.155,21.034z M38.678,23.898c0.14-0.293,1.188-1.838,0-1.91
	C38.538,22.282,37.49,23.827,38.678,23.898z M37.245,30.583c-0.864,2.948-3.232,5.79-2.387,8.118
	c0.846-2.019,2.215-3.515,2.387-6.208c0.819,0.653,1.878,1.543,1.91-0.478c-0.053-1.691-1.579,1.015-1.433-0.479
	c0.354-2.351,1.918-3.494,1.433-6.685C36.829,25.54,37.805,28.673,37.245,30.583z M1.433,29.629c0.13-0.649-0.295-1.863-0.478-0.955
	C0.825,29.324,1.251,30.538,1.433,29.629z M37.723,36.313c-0.222-0.913,1.472-2.056-0.478-1.91
	C37.327,35.118,37.075,36.166,37.723,36.313z M36.29,37.746c0.318,0,0.637,0,0.955,0c0-0.318,0-0.637,0-0.955
	c-0.318,0-0.637,0-0.955,0C36.29,37.109,36.29,37.427,36.29,37.746z M37.723,38.224c0.479-0.001,0.568,0.387,0.955,0.478
	c-0.045-0.75,0.064-1.656-0.955-1.433C37.723,37.587,37.723,37.905,37.723,38.224z M30.56,47.296
	c1.848-0.222,1.505-2.633,2.388-3.819C31.017,44.148,29.792,45.08,30.56,47.296z M31.038,52.071c0.275-0.29,1.118-2.265,0-2.388
	C31.323,50.534,29.638,51.667,31.038,52.071z M26.263,61.144c0.266-0.887,1.303-3.421,0.478-3.82
	C26.566,58.302,25.145,60.453,26.263,61.144z M27.218,60.666C26.715,63.438,29.287,60.865,27.218,60.666L27.218,60.666z
	 M25.308,65.441c0.13-0.65-0.295-1.864-0.478-0.955C24.7,65.135,25.126,66.35,25.308,65.441z M23.875,72.604
	c0.776-1.448,1.159-3.489,0.478-5.252C24.42,69.186,21.711,71.644,23.875,72.604z M22.443,79.766
	c1.033-2.029,1.107-4.035,1.432-5.73c-0.477,0-0.955,0-1.432,0C22.861,76.07,20.98,78.272,22.443,79.766z M90.248,74.514
	c0.577,1.65,1.872,2.585,3.819,2.864C94.14,75.199,91.661,73.693,90.248,74.514z M80.22,87.884c0.793,0.8,2.805,0.381,4.299,0.479
	c2.407-3.321,3.642-7.818,7.64-9.55C86.823,71.075,83.511,84.658,80.22,87.884z M19.578,89.794c2.104,0.621,1.956-0.025,3.343-0.955
	c-0.081,1.969,2.134,0.896,0.955,2.865c0.327,0.369,2.845,1.242,2.388-0.479c-1.131-0.72-1.763-0.726-0.955-2.388
	c-1.385-1.434-2.992,0.192-3.342-1.91c-0.637,0-1.273,0-1.91,0C20.066,88.054,19.233,88.335,19.578,89.794z M49.661,87.406
	c0,0.318,0,0.637,0,0.955c1.175,0.742,1.404-1.622,0.477-1.434C50.11,87.219,50.067,87.494,49.661,87.406z M48.228,89.316
	c-0.201-0.913-0.173-2.057-1.432-1.91C46.662,88.653,46.634,89.796,48.228,89.316z M61.599,89.316c1.562,0.101,1.885-2.24,0-1.91
	C61.599,88.043,61.599,88.68,61.599,89.316z M11.938,88.839c-0.173,1.631,2.762,2.016,2.388,0
	C13.137,88.786,12.847,87.944,11.938,88.839z M15.758,88.839c1.968,1.717,0.281,1.484,0.955,3.82
	c-0.293,0.662-1.838,0.071-1.91,0.955c0.74,0.533,0.995,1.552,2.388,1.432c0.509-0.444,0.148-1.762,1.432-1.432
	c-0.283,2.352,0.461,3.676,2.865,3.342c-0.299-3.412-3.934-5.324-3.343-8.117C16.958,88.786,16.667,87.944,15.758,88.839z
	 M26.263,88.839c0.089,2.077,0.831,0.869,2.388,0.955C28.985,88.141,26.976,88.081,26.263,88.839z M31.038,90.749
	c-0.036,1.627,1.77,1.414,3.343,1.433C34.486,90.476,31.899,90.027,31.038,90.749z M32.47,89.794
	c0.232-1.571-2.753-2.006-2.865-0.478C30.613,90.159,31.017,90.393,32.47,89.794z M33.903,89.316c0.554,0.399,1.28,0.63,2.387,0.478
	C36.475,88.313,33.991,87.85,33.903,89.316z M54.435,89.794c0.318,0,0.637,0,0.955,0c0-0.479,0.387-0.567,0.479-0.955
	c-0.61-0.025-0.661-0.611-1.434-0.478C54.435,88.839,54.435,89.316,54.435,89.794z M10.505,89.794
	c0.765-1.33-2.062-1.319-1.91-0.478C9.241,89.466,9.507,89.996,10.505,89.794z M42.02,90.271c0.478,0,0.955,0,1.433,0
	c0-0.479,0-0.955,0-1.434c-0.318,0-0.637,0-0.955,0C42.472,89.449,41.886,89.5,42.02,90.271z M58.255,88.839
	c-0.423-0.366-1.363,0.293-1.434,0.479C56.14,91.14,59.201,89.661,58.255,88.839z M60.644,92.659c-0.73-1.52-0.168-2.102,0-3.82
	C58.704,88.829,58.575,92.521,60.644,92.659z M63.508,89.316c0.858,1.788-0.743,3.069,0.955,3.818
	c1.256-1.856-0.25-1.764,1.433-3.818C65.269,88.704,64.135,88.704,63.508,89.316z M72.581,89.794
	c0.973,0.267,0.936,1.438,1.91,0.479C74.617,88.876,72.638,88.438,72.581,89.794z M76.877,90.749c0.752-0.71,0.532-2.134-0.955-1.91
	C75.79,89.927,76.038,90.634,76.877,90.749z M78.788,89.316c-0.145,1.258,0.662,1.566,1.91,1.433
	C81.06,89.069,79.448,88.612,78.788,89.316z M82.13,89.316c-0.145,1.258,0.661,1.566,1.909,1.433
	C84.401,89.069,82.791,88.612,82.13,89.316z M84.995,89.316c-0.525,1.989,3.393,1.989,2.865,0
	C86.358,89.555,85.994,88.275,84.995,89.316z M88.338,89.316c-0.219,1.491,1.021,1.525,2.388,1.433
	C90.76,89.317,89.321,88.325,88.338,89.316z M44.408,90.749c0.318,0,0.637,0,0.955,0c0.026-0.61,0.612-0.662,0.478-1.433
	c-0.318,0-0.637,0-0.955,0C44.859,89.927,44.273,89.978,44.408,90.749z M49.183,90.271c0.646,0.148,0.912,0.68,1.91,0.478
	c0-0.317,0-0.637,0-0.955c-0.479,0.002-0.568-0.387-0.955-0.478C50.132,89.947,49.301,89.753,49.183,90.271z M40.588,91.226
	c0.069-0.563,0.85-1.082,0-1.433C40.519,90.358,39.737,90.876,40.588,91.226z M46.318,93.135c1.114,0.142,1.114,1.294,0,1.435
	c1.27,1.846-0.041,1.883,0.478,3.342c2.063-0.789,1.586-5.238,0.955-6.207C47.697,92.606,46.171,92.035,46.318,93.135z
	 M48.228,89.794c-1.258-0.145-1.567,0.661-1.432,1.91C48.082,91.671,49.09,90.612,48.228,89.794z M55.39,95.524
	c-0.25-1.652,0.377-2.028,0.479-5.253c-0.479,0-0.955,0-1.434,0C55.452,91.706,53.094,94.746,55.39,95.524z M12.415,92.181
	c0.571-2.03-3.616-1.759-4.297-0.955C8.887,92.208,10.512,92.334,12.415,92.181z M15.758,92.181
	c0.278-1.709-1.414-1.451-2.865-1.433C12.615,92.459,14.306,92.2,15.758,92.181z M21.488,94.569c0.637,0,1.273,0,1.91,0
	c-0.474-2.143-0.614-2.133-0.955-3.82c-0.637,0-1.273,0-1.91,0C20.297,92.575,22.191,92.273,21.488,94.569z M30.56,92.181
	c0.312-1.902-1.815-1.367-3.342-1.433C26.906,92.651,29.033,92.116,30.56,92.181z M34.858,91.704
	c1.15-0.195,1.038,0.871,2.387,0.478C38.086,90.044,34.718,90.464,34.858,91.704z M53.002,93.135
	c-0.211-0.901,0.649-2.877-0.955-2.387C51.127,91.624,52.456,92.366,53.002,93.135z M56.823,92.181c0.318,0,0.637,0,0.955,0
	c0.025-0.609,0.611-0.66,0.478-1.433c-0.478,0-0.955,0-1.433,0C56.823,91.226,56.823,91.704,56.823,92.181z M61.599,91.704
	c0.317,0,0.637,0,0.955,0c0-0.318,0-0.637,0-0.955c-0.318,0-0.638,0-0.955,0C61.599,91.067,61.599,91.385,61.599,91.704z
	 M42.02,93.135c1.258,0.146,1.567-0.659,1.433-1.909c-0.478,0-0.955,0-1.433,0C42.02,91.862,42.02,92.499,42.02,93.135z
	 M44.408,92.659c0.931,0.226,2.442-1.285,1.433-1.434C46.029,92.37,43.666,90.962,44.408,92.659z M49.183,93.135
	c1.109-0.163,2.238-0.309,1.91-1.909c-0.477,0-0.955,0-1.432,0C49.767,92.129,49.122,92.28,49.183,93.135z M70.67,95.046
	c0.313-1.43,1.021,0.457,1.91,0c0.358-2.21-1.824-0.664-1.91-1.432c0.146-1.114,1.021-2.058-0.478-2.389
	C70.483,92.368,69.593,94.69,70.67,95.046z M74.967,93.135c0.438-2.028-1.146-2.038-2.864-1.909
	C71.665,93.256,73.247,93.265,74.967,93.135z M78.31,92.181c-0.371-0.105-0.556-0.399-0.478-0.955c-0.638,0-1.272,0-1.91,0
	C75.372,93.116,78.144,93.765,78.31,92.181z M82.13,92.181c-0.849-0.425-1.214-1.332-2.865-0.955
	C78.642,93.251,81.926,93.804,82.13,92.181z M82.608,92.181c0.91,0.203,0.863,1.364,2.387,0.954
	C85.722,91.069,82.813,90.56,82.608,92.181z M85.474,92.181c0.623,0.672,2.526,1.717,2.864,0
	C87.438,91.785,85.856,90.419,85.474,92.181z M92.158,95.046c-1.065-1.32-1.146-3.63-3.343-3.819
	c-0.51,1.784,1.186,1.36,0.955,2.864c-1.15,0.195-1.037-0.871-2.388-0.477c-0.438,2.029,1.144,2.039,2.864,1.91
	c0.081-0.715-0.171-1.764,0.479-1.91C90.993,94.302,91.47,94.778,92.158,95.046z M40.588,93.135c0.069-0.562,0.85-1.081,0-1.432
	C40.519,92.269,39.737,92.786,40.588,93.135z M65.896,93.135c0.478,0,0.955,0,1.433,0c0.062-0.856-0.474-1.116-1.433-0.954
	C65.896,92.499,65.896,92.817,65.896,93.135z M8.595,93.135c0.146,1.445,1.478,1.707,0.955,3.82c1.47,0.334,0.917,0.334,2.387,0
	c-0.524-1.949-2.053-1.471-0.477-3.342C10.006,93.749,9.604,92.084,8.595,93.135z M12.415,95.046
	c0.903,0.107,1.054-0.538,1.91-0.477c-0.058-1.216-0.695-1.854-1.91-1.91C11.802,93.286,11.802,94.419,12.415,95.046z
	 M24.353,93.135c-0.107,0.903,0.539,1.056,0.478,1.91c2.226-1.059,3.695-0.146,5.73-0.955C28.412,91.835,26.69,93.508,24.353,93.135
	z M31.038,94.569c0.796,0,1.592,0,2.388,0c0.223-1.498-1.201-1.347-1.91-1.91C31.365,93.304,30.835,93.571,31.038,94.569z
	 M34.38,94.091c1.086,0.347,2.439,0.427,3.342,0.955c0-0.317,0-0.637,0-0.955c0.292-0.026,0.565-0.069,0.478-0.477
	C36.415,93.914,34.636,91.234,34.38,94.091z M56.823,93.614c0.82,0.025,1.225-0.368,1.433-0.955
	C57.504,92.704,56.601,92.594,56.823,93.614z M61.599,94.091c0.317,0,0.637,0,0.955,0c-0.003-0.479,0.387-0.567,0.477-0.955
	c-0.609-0.024-0.66-0.61-1.432-0.477C61.599,93.135,61.599,93.614,61.599,94.091z M41.065,97.911c-0.124-2.191-0.508-2.307,0-4.297
	c-0.715,0.081-1.762-0.171-1.91,0.477C40.736,94.962,38.865,97.155,41.065,97.911z M43.93,94.091c0,0.318,0,0.638,0,0.955
	c0.292,0.027,0.565,0.072,0.478,0.479c0.318,0,0.637,0,0.955,0c0.027-0.292,0.071-0.566,0.478-0.479c0-0.317,0-0.637,0-0.955
	c-0.292-0.026-0.565-0.069-0.478-0.477c-0.318,0-0.637,0-0.955,0C44.381,93.905,44.336,94.179,43.93,94.091z M50.138,97.434
	c0.854-1.215-0.53-2.329,0.954-3.344c-0.646-0.149-0.911-0.68-1.91-0.477C50.042,95.402,48.439,96.685,50.138,97.434z
	 M75.922,95.524c0.328-1.603-0.801-1.746-1.909-1.91C73.685,95.215,74.813,95.359,75.922,95.524z M77.356,95.046
	c1.193,0.062,1.494,0.912,1.908-0.477c-0.947-0.007-0.605-1.303-1.908-0.955C77.356,94.091,77.356,94.569,77.356,95.046z
	 M80.698,97.911c1.504,0.535,1.08,0.043,2.865,0c-0.08-3.013-2.633-0.964-0.955-3.82c-1.15,0.195-1.039-0.871-2.389-0.477
	C81.084,95.364,81.038,95.542,80.698,97.911z M84.519,97.434c0.553,0.4,1.278,0.63,2.387,0.478c-0.848-2.241-1.498-1.448-0.477-3.82
	c-1.552,0.277-2.223-0.323-3.344-0.477C83.056,95.728,86.007,95.146,84.519,97.434z M42.975,96.001
	c-0.107-0.901,0.538-1.053,0.478-1.91c-0.478,0-0.955,0-1.433,0C41.887,95.18,42.135,95.885,42.975,96.001z M53.481,94.569
	c-0.646-0.15-0.912-0.68-1.91-0.479C51.211,95.719,53.394,95.954,53.481,94.569z M65.896,95.046c0.478,0,0.955,0,1.433,0
	c0.062-0.856-0.474-1.116-1.433-0.955C65.896,94.409,65.896,94.728,65.896,95.046z M26.263,95.524
	c-0.525,1.863,2.844,1.913,2.865,0.477C27.886,95.392,27.688,94.954,26.263,95.524z M32.948,96.956
	c-0.017-1.574-1.358-1.825-2.865-1.91C29.764,96.956,31.346,96.966,32.948,96.956z M62.075,96.956c0.141-0.293,1.188-1.838,0-1.91
	C61.937,95.339,60.888,96.884,62.075,96.956z M8.595,96.956c0.069-1.342-1.169-1.377-2.388-1.432
	C5.603,97.401,7.334,96.944,8.595,96.956z M14.803,96.956c0.144-1.258-0.661-1.565-1.91-1.432
	C12.925,96.81,13.984,97.819,14.803,96.956z M18.145,96.956c0.144-1.258-0.661-1.565-1.91-1.432
	C15.756,97.117,16.898,97.089,18.145,96.956z M23.875,98.389c0.275-0.999,1.184-1.362,0.955-2.864c-0.796,0-1.591,0-2.387,0
	C22.813,96.585,22.718,98.112,23.875,98.389z M36.29,96.001c0.215-0.778-2.603-0.778-2.387,0
	C33.96,96.681,36.521,97.968,36.29,96.001z M37.723,96.479c0.318,0,0.637,0,0.955,0c0-0.318,0-0.638,0-0.954
	c-0.318,0-0.637,0-0.955,0C37.723,95.842,37.723,96.16,37.723,96.479z M44.408,96.956c0.318,0,0.637,0,0.955,0
	c0-0.317,0-0.637,0-0.955c-0.318,0-0.637,0-0.955,0C44.408,96.319,44.408,96.638,44.408,96.956z M63.985,97.434
	c1.393,0.701,1.393-2.135,0-1.434C63.985,96.479,63.985,96.956,63.985,97.434z M75.922,97.434c0.146-1.259-0.659-1.567-1.909-1.434
	C73.534,97.594,74.675,97.567,75.922,97.434z M77.356,96.479c-0.07,1.343,1.168,1.378,2.387,1.433
	C80.278,95.979,78.276,95.55,77.356,96.479z M52.047,97.434c0.318,0,0.638,0,0.955,0c0-0.318,0-0.638,0-0.955
	c-0.317,0-0.637,0-0.955,0C52.047,96.797,52.047,97.115,52.047,97.434z M90.248,96.956c0.081-1.035-1.692-0.217-2.388-0.478
	C87.155,97.989,90.604,98.774,90.248,96.956z M69.237,98.389c-1.293,0.298-1.188,1.994-2.864,1.909
	c-5.712-0.419-19.478-0.907-25.785-0.478c-1.286-0.307-1.341-1.843-2.865-1.91c-2.806,0.994-5.837-0.501-10.505,0
	c-1.109,0.323-1.278,1.587-2.388,1.91c-1.822,20.352,2.901,35.158,18.145,40.109c3.973,1.291,7.627,1.993,11.938,1.434
	c5.23-0.682,13.123-3.746,16.234-7.163c1.74-1.909,3.102-6.085,4.299-9.55c2.762-7.999,2.768-15.941,1.91-25.785
	C73.948,98.915,70.924,98.878,69.237,98.389z M79.743,99.344c0,0.318,0,0.638,0,0.955c1.176,0.742,1.404-1.622,0.479-1.433
	C80.194,99.157,80.149,99.432,79.743,99.344z M88.338,102.209c0.009,0.25-0.188-1.236-0.479,0
	C87.21,104.969,88.394,103.926,88.338,102.209z M18.623,104.118C17.166,106.064,20.208,107.197,18.623,104.118L18.623,104.118z
	 M18.623,112.714c0.903-0.106,1.054,0.538,1.91,0.479c-0.261-0.694,0.558-2.468-0.478-2.388
	C20.197,112.06,18.203,111.18,18.623,112.714z M21.488,112.236c0.479-0.001,0.568,0.387,0.955,0.478
	c-0.046-0.75,0.064-1.655-0.955-1.433C21.488,111.6,21.488,111.918,21.488,112.236z M86.905,117.489
	c-0.104-1.538,0.846-2.021,0.479-3.82c-0.611-0.025-0.662-0.611-1.434-0.478C86.894,114.96,85.397,116.997,86.905,117.489z
	 M90.248,116.534c0.13-0.65-0.296-1.864-0.478-0.955C89.64,116.229,90.065,117.442,90.248,116.534z M86.905,121.786
	c0.436-1.223,0.773-2.707-0.477-3.342C85.776,119.088,85.519,121.777,86.905,121.786z M85.95,130.858
	c-0.521-1.218,1.632-2.457-0.477-2.387C85.733,129.165,84.915,130.939,85.95,130.858z M26.263,133.724
	c-0.286-2.262-1.621-3.474-2.865-4.775C23.727,131.167,24.78,132.66,26.263,133.724z M82.608,139.454
	c1.627,0.035,1.414-1.77,1.432-3.343c0.949,0.006,0.607,1.303,1.91,0.955c0.225-1.497-1.2-1.348-1.91-1.91
	C83.681,136.638,81.699,138.196,82.608,139.454z M80.698,141.841c0.478,0,0.955,0,1.433,0c-0.655-1.088,1.231-1.795,0-1.909
	C81.99,140.905,80.838,140.868,80.698,141.841z M10.028,142.319c0.025-0.822-0.368-1.226-0.955-1.435
	C9.047,141.708,9.44,142.11,10.028,142.319z M80.698,144.229C80.194,147,82.767,144.427,80.698,144.229L80.698,144.229z
	 M72.103,149.959c-1.267,0.505-3.099,2.922-4.297,1.909c1.018-1.211,3.237-1.217,3.342-3.342c-3.518,1.416-6.073,3.795-9.072,5.729
	c1.873-1.11,1.775,0.584,3.82,0.478C67.584,153.073,72.931,152.548,72.103,149.959z M27.218,155.688
	c-0.429-1.321,0.981-4.482-0.955-4.297C26.188,153.216,26.288,154.868,27.218,155.688z M31.038,157.599
	c-0.223-1.688,0.781-4.602-1.433-4.298C30.725,155.138,28.632,157.552,31.038,157.599z M28.173,151.868c0,1.115,0,2.229,0,3.344
	c0.562-0.075,1.355,0.082,1.432-0.479C28.446,154.46,29.829,151.645,28.173,151.868z M50.616,154.733
	c0.673-1.523-2.858-1.206-2.866-0.478C48.927,154.193,50.051,154.185,50.616,154.733z M32.948,157.121
	c-0.805-1.298,0.757-2.236-0.955-2.864C32.282,155.241,31.222,157.573,32.948,157.121z M53.481,156.166
	c-1.265,1.921-7.018-0.712-9.073,1.434c-0.415-2.429-2.46-0.939-4.775-1.91c-1.027,1.313,0.277,1.994-0.478,3.343
	c1.733,0.46,0.401-2.146,1.91-1.91c0.6,1.854,2.576-0.143,3.82,1.434c-1.319-0.755-2.143,1.239-0.955,1.433
	c3.156-2.998,9.061-0.413,12.893-2.388c-0.547,0.979,0.75,2.275,0.955,0.955c-1.604-1.791,3.01-1.427,4.297-1.91
	c0.246-1.396-2.191-2.533-2.864-1.433C59.935,156.348,54.837,156.95,53.481,156.166z M36.768,157.599
	c-1.136,0.28,1.36-2.853-0.955-2.388C35.135,155.347,35.838,159.215,36.768,157.599z M38.678,157.121c0-0.478,0-0.955,0-1.433
	c-0.478,0-0.955,0-1.433,0C37.159,156.73,37.636,157.208,38.678,157.121z M33.903,157.599c0.479-0.002,0.568,0.387,0.955,0.478
	c-0.046-0.75,0.064-1.655-0.955-1.433C33.903,156.962,33.903,157.28,33.903,157.599z"/>
<path d="M4.298,93.614c0.542,0.09,0.265,0.479,0,0.477C4.666,98.018,3.008,95.216,4.298,93.614z"/>
<path d="M31.993,14.826c-1.226,2.245,0.849,4.914,0.955,8.118c0.211,6.335-2.188,13.396-4.775,17.189
	c-0.061,0.856,0.584,1.008,0.478,1.91c-2.379,1.19-2.498,4.012-5.73,5.252c-0.383,1.656,0.711,1.835,0.478,3.343
	c-3.408-1.025-3.605-6.806-6.685-6.686c-2.152-3.896-4.053-8.044-5.73-12.415c-0.78,3.651,1.973,7.892,3.82,10.505
	c-2.903,0.29-3.853-5.674-4.775-9.55c-1.848-7.768-1.126-17.203,2.865-22.442c4.307,1.443,6.788-1.394,12.415-0.954
	c1.577,1.766,4.543,2.142,4.775,5.252C30.23,14.997,31.278,14.745,31.993,14.826z M22.92,14.349
	c-2.377,0.095-3.267,1.502-5.73,2.388c-1.138,2.522-2.155,5.167-3.343,7.64c2.048,8.298,4.528,16.164,10.027,21.011
	C29.03,40.78,37.766,13.756,22.92,14.349z M10.028,28.196c0.338-0.354,1.19-2.337-0.478-1.91C9.631,27,9.379,28.048,10.028,28.196z"
	/>
</svg>
