<?xml version="1.0" encoding="UTF-8" standalone="no"?>
<!-- Created with Inkscape (http://www.inkscape.org/) -->
<svg
   xmlns:dc="http://purl.org/dc/elements/1.1/"
   xmlns:cc="http://creativecommons.org/ns#"
   xmlns:rdf="http://www.w3.org/1999/02/22-rdf-syntax-ns#"
   xmlns:svg="http://www.w3.org/2000/svg"
   xmlns="http://www.w3.org/2000/svg"
   xmlns:xlink="http://www.w3.org/1999/xlink"
   xmlns:sodipodi="http://sodipodi.sourceforge.net/DTD/sodipodi-0.dtd"
   xmlns:inkscape="http://www.inkscape.org/namespaces/inkscape"
   width="400"
   height="400"
   id="svg2"
   inkscape:version="0.46"
   version="1.0"
   inkscape:output_extension="org.inkscape.output.svg.inkscape"
   inkscape:export-filename="C:\LIN\PROJECT\wk2008\MyMotudo\OpenClipArt\QianlongEmperor\emperor70-1.png"
   inkscape:export-xdpi="90"
   inkscape:export-ydpi="90"
   sodipodi:version="0.32"
   sodipodi:docname="emperor70-1.svg"
   style="display:inline">
  <sodipodi:namedview
     inkscape:window-height="994"
     inkscape:window-width="1680"
     inkscape:pageshadow="2"
     inkscape:pageopacity="0.0"
     guidetolerance="10.0"
     gridtolerance="10.0"
     objecttolerance="10.0"
     borderopacity="1.0"
     bordercolor="#666666"
     pagecolor="#ffffff"
     id="base"
     showgrid="false"
     inkscape:zoom="1.975"
     inkscape:cx="200"
     inkscape:cy="200"
     inkscape:window-x="-4"
     inkscape:window-y="-4"
     inkscape:current-layer="layer2" />
  <defs
     id="defs4">
    <inkscape:perspective
       sodipodi:type="inkscape:persp3d"
       inkscape:vp_x="0 : 200 : 1"
       inkscape:vp_y="0 : 1000 : 0"
       inkscape:vp_z="400 : 200 : 1"
       inkscape:persp3d-origin="200 : 133.33333 : 1"
       id="perspective17" />
    <linearGradient
       id="linearGradient3203">
      <stop
         style="stop-color:#ff0000;stop-opacity:1;"
         offset="0"
         id="stop3205" />
      <stop
         style="stop-color:#ff6800;stop-opacity:1;"
         offset="1"
         id="stop3207" />
    </linearGradient>
    <linearGradient
       id="linearGradient3183">
      <stop
         style="stop-color:#ffffff;stop-opacity:0.27433628;"
         offset="0"
         id="stop3185" />
      <stop
         style="stop-color:#ffffff;stop-opacity:0;"
         offset="1"
         id="stop3187" />
    </linearGradient>
    <linearGradient
       inkscape:collect="always"
       xlink:href="#linearGradient3203"
       id="linearGradient3229"
       x1="316.50101"
       y1="181.67508"
       x2="127.23658"
       y2="180.7045"
       gradientUnits="userSpaceOnUse" />
    <linearGradient
       inkscape:collect="always"
       xlink:href="#linearGradient3203"
       id="linearGradient3239"
       x1="127.23658"
       y1="188.46919"
       x2="316.50101"
       y2="188.46919"
       gradientUnits="userSpaceOnUse" />
    <linearGradient
       inkscape:collect="always"
       xlink:href="#linearGradient3203"
       id="linearGradient3260"
       gradientUnits="userSpaceOnUse"
       x1="127.23658"
       y1="188.46919"
       x2="316.50101"
       y2="188.46919" />
    <linearGradient
       inkscape:collect="always"
       xlink:href="#linearGradient3183"
       id="linearGradient3262"
       gradientUnits="userSpaceOnUse"
       gradientTransform="matrix(1.0672364,0,0,1.0672364,-10.106186,-17.443017)"
       x1="211.1076"
       y1="122.72435"
       x2="246.98857"
       y2="181.57127" />
    <inkscape:perspective
       id="perspective2397"
       inkscape:persp3d-origin="372.04724 : 350.78739 : 1"
       inkscape:vp_z="744.09448 : 526.18109 : 1"
       inkscape:vp_y="0 : 1000 : 0"
       inkscape:vp_x="0 : 526.18109 : 1"
       sodipodi:type="inkscape:persp3d" />
    <inkscape:perspective
       id="perspective2398"
       inkscape:persp3d-origin="372.04724 : 350.78739 : 1"
       inkscape:vp_z="744.09448 : 526.18109 : 1"
       inkscape:vp_y="0 : 1000 : 0"
       inkscape:vp_x="0 : 526.18109 : 1"
       sodipodi:type="inkscape:persp3d" />
    <inkscape:perspective
       id="perspective2399"
       inkscape:persp3d-origin="372.04724 : 350.78739 : 1"
       inkscape:vp_z="744.09448 : 526.18109 : 1"
       inkscape:vp_y="0 : 1000 : 0"
       inkscape:vp_x="0 : 526.18109 : 1"
       sodipodi:type="inkscape:persp3d" />
    <inkscape:perspective
       id="perspective2400"
       inkscape:persp3d-origin="372.04724 : 350.78739 : 1"
       inkscape:vp_z="744.09448 : 526.18109 : 1"
       inkscape:vp_y="0 : 1000 : 0"
       inkscape:vp_x="0 : 526.18109 : 1"
       sodipodi:type="inkscape:persp3d" />
  </defs>
  <metadata
     id="metadata7">
    <rdf:RDF>
      <cc:Work
         rdf:about="">
        <dc:format>image/svg+xml</dc:format>
        <dc:type
           rdf:resource="http://purl.org/dc/dcmitype/StillImage" />
        <cc:license
           rdf:resource="http://creativecommons.org/licenses/publicdomain/" />
        <dc:title>Foo</dc:title>
        <dc:creator>
          <cc:Agent>
            <dc:title>motudo</dc:title>
          </cc:Agent>
        </dc:creator>
      </cc:Work>
      <cc:License
         rdf:about="http://creativecommons.org/licenses/publicdomain/">
        <cc:permits
           rdf:resource="http://creativecommons.org/ns#Reproduction" />
        <cc:permits
           rdf:resource="http://creativecommons.org/ns#Distribution" />
        <cc:permits
           rdf:resource="http://creativecommons.org/ns#DerivativeWorks" />
      </cc:License>
    </rdf:RDF>
  </metadata>
  <g
     inkscape:groupmode="layer"
     id="layer2"
     inkscape:label="draw">
    <path
       style="fill:#000000;fill-opacity:1;fill-rule:evenodd;stroke:#000000;stroke-width:1.25559735px;stroke-linecap:butt;stroke-linejoin:miter;stroke-opacity:1"
       d="M 43.530721,174.86436 C 53.47287,168.12936 63.41502,161.39437 73.357163,154.65936 C 65.419482,148.72613 57.481796,142.79292 49.544114,136.8597 C 54.110284,131.97516 58.384083,124.44887 64.307005,131.82347 C 71.573193,136.70936 78.839381,141.59525 86.105566,146.48114 C 97.009865,139.1047 107.91416,131.72827 118.81844,124.35183 C 120.46619,128.54263 130.76085,134.18472 124.9897,137.13031 C 116.1976,142.65261 107.40552,148.17491 98.613445,153.69722 C 108.71595,160.75294 118.81844,167.80865 128.92096,174.86436 C 127.70427,180.31963 127.48094,186.88839 120.24242,183.89878 C 112.79138,182.04781 107.71035,175.12655 101.28103,171.11517 C 95.040612,168.52901 88.873727,156.451 82.572696,161.68753 C 71.964065,169.60767 61.355431,177.5278 50.746794,185.44795 C 48.341435,181.9201 45.936076,178.39222 43.530721,174.86436 z M 35.352499,226.5796 C 47.397066,215.04275 61.971802,204.771 75.281454,193.8667 C 71.16911,189.20445 64.631403,181.08388 72.018203,177.11793 C 80.132801,174.02374 83.654092,184.28359 88.225294,186.21467 C 92.991879,183.21073 96.913375,172.44389 102.70255,178.83323 C 111.53893,181.66482 100.49951,187.02421 98.012095,191.29596 C 101.21708,195.87011 110.33467,199.58636 115.82897,203.80372 C 127.58824,210.71105 137.80328,219.72155 148.16383,228.50387 C 145.29431,231.78791 143.40289,240.6701 138.83735,234.23888 C 124.09541,222.71447 108.93065,211.75216 93.562178,201.08279 C 95.240532,207.13566 91.596545,216.45327 98.751735,219.14715 C 105.36652,224.8517 117.09859,225.54211 118.80864,235.26 C 122.35601,243.96271 121.61357,253.59132 122.84181,262.76613 C 122.89619,268.94125 124.74793,275.35134 122.85719,281.36339 C 117.82615,283.8119 109.85972,281.185 111.48835,273.87422 C 109.75097,264.1004 109.57267,254.1529 108.70346,244.31426 C 109.01241,236.80791 99.813135,230.56483 95.348021,238.63574 C 95.020011,250.17424 97.141965,261.84604 97.714055,273.4397 C 98.332365,283.46098 98.473015,293.51633 98.132365,303.55107 C 92.397329,303.31812 82.922816,307.28781 85.225042,297.98379 C 84.004266,279.01531 83.710619,260.00785 83.219138,241.01173 C 79.925807,237.24784 76.726716,232.11041 74.402054,239.55535 C 69.701613,246.45033 72.207956,255.41061 71.13297,263.27349 C 69.941479,269.81197 72.79996,280.60752 69.448462,284.39841 C 63.91227,283.81528 56.467485,284.9907 58.86294,277.15443 C 58.935267,265.56915 58.030385,253.87729 58.869915,242.35791 C 58.73508,234.33779 64.266007,229.08637 70.63557,225.20298 C 76.656191,221.73539 87.833587,222.01981 84.391757,212.47817 C 83.92854,206.82859 85.937579,196.75789 78.383516,203.67623 C 71.829344,207.59956 66.540867,212.53985 60.623838,218.8471 C 53.85717,223.75359 49.212175,228.84756 41.846971,234.27673 C 39.682148,231.71102 37.517316,229.1453 35.352499,226.5796 z"
       id="path3183"
       sodipodi:nodetypes="cccccccccccccccccccccccccccccccccccccccccccccc" />
    <path
       style="fill:#000000;fill-opacity:1;fill-rule:evenodd;stroke:#000000;stroke-width:1.25559735px;stroke-linecap:butt;stroke-linejoin:miter;stroke-opacity:1"
       d="M 306.19633,122.78426 C 310.31425,122.7094 314.43219,122.63453 318.55014,122.55966 C 319.67321,141.27756 319.4486,159.99546 319.89784,178.71338 C 335.03195,178.0596 350.43559,177.94485 366.16853,178.48875 C 366.24339,182.68156 366.31826,186.87438 366.39312,191.0672 C 351.04442,191.21694 335.69575,191.36668 320.34708,191.51641 C 320.34708,206.04151 320.34708,220.56662 320.34708,235.09172 C 326.15188,236.66093 336.90552,238.08278 336.21314,228.94871 C 337.69847,224.44017 333.1631,215.08923 336.99603,213.27739 C 340.95506,213.21141 344.9141,213.14544 348.87314,213.07945 C 349.56848,231.26472 350.91385,249.6662 348.15305,267.73727 C 346.94052,276.33809 341.07179,284.41281 332.33028,286.41716 C 319.46831,290.01525 305.85044,287.93386 292.93724,285.72214 C 286.16756,283.86792 279.82493,278.69287 279.35481,271.26809 C 275.55718,252.86461 276.21769,233.99753 276.54716,215.3256 C 281.03947,214.12462 285.53177,214.78522 290.02407,215.3256 C 290.99617,222.0042 286.77738,231.41318 293.11088,235.91636 C 297.16944,236.06151 307.70485,238.46194 307.7439,232.91649 C 308.05163,219.41595 307.46092,205.46618 307.31942,191.74104 C 290.84766,190.5431 274.37588,191.5913 257.90412,191.51641 C 257.82925,187.62309 257.75438,183.72977 257.67951,179.83645 C 274.00153,179.53696 290.32354,179.23748 306.64557,178.93799 C 305.37274,160.22009 306.34607,141.50218 306.19633,122.78426 z M 292.04557,251.26398 C 306.55731,250.5572 321.098,250.32498 335.62088,250.81476 C 336.31197,257.94886 336.94833,266.46805 330.67935,271.47933 C 323.17285,277.21322 313.0064,276.23869 304.28976,275.07812 C 300.72744,272.40065 295.9741,270.84944 294.3821,266.2663 C 291.75073,261.78132 292.42895,256.24786 292.04557,251.26398 z"
       id="path2407"
       sodipodi:nodetypes="ccccccccccccccccccccccccccccc" />
    <path
       style="fill:#000000;fill-opacity:1;fill-rule:evenodd;stroke:#000000;stroke-width:1.25559735px;stroke-linecap:butt;stroke-linejoin:miter;stroke-opacity:1"
       d="M 143.83249,50.248418 C 182.11741,50.620117 220.40236,50.991815 258.68729,51.363513 C 257.4353,56.142627 262.14058,66.989342 254.12934,64.884039 C 239.44259,64.614556 224.53284,64.345074 209.8461,64.075593 C 209.18534,69.389927 207.07218,78.12943 214.22599,79.715439 C 221.88283,81.903991 231.12168,81.393763 237.50047,85.039389 C 242.05103,87.640133 247.23442,93.154176 246.86287,99.41206 C 247.62621,116.71171 248.21191,134.05571 251.17019,151.15496 C 252.4206,159.69625 253.5515,168.27568 252.88879,176.92324 C 247.85496,180.73848 240.7576,179.62856 241.13378,172.21275 C 238.91014,153.05737 237.56246,133.79751 235.73026,114.61729 C 233.55445,108.47342 235.07356,100.95474 230.47538,95.96732 C 226.79182,89.682801 218.1405,95.630427 219.52125,102.09569 C 220.51659,130.49924 221.90432,158.98636 226.28003,187.10116 C 227.45861,192.77299 231.10087,203.69921 221.87441,202.77079 C 211.79841,202.15159 214.46073,190.18978 212.45345,182.95929 C 211.23447,161.93172 208.4787,140.97621 208.75439,119.88058 C 208.24108,111.4573 208.45106,102.75854 205.84967,94.666205 C 201.85361,89.880005 193.4281,92.438498 193.80223,100.85477 C 194.31882,119.50474 191.53176,138.00891 190.76418,156.61327 C 189.8035,170.26048 188.07374,183.83723 186.65213,197.44099 C 184.17258,202.57806 173.48753,202.54676 171.94005,197.63416 C 170.89604,189.88261 174.54682,182.04559 175.17968,174.22553 C 178.4826,156.48471 180.07104,138.48811 180.81,120.41914 C 180.84382,112.12033 181.88456,103.37173 179.96155,95.521279 C 175.20167,91.443462 168.14869,93.720288 168.04387,100.39872 C 165.28143,116.13096 163.79873,132.06912 161.99304,147.92621 C 160.09518,156.19454 158.59787,164.55156 156.55549,172.78723 C 155.2843,178.70658 146.36601,180.89431 144.54504,174.2233 C 142.67297,168.27477 145.55945,161.69351 145.85864,155.5126 C 147.86632,144.18028 149.67869,132.83979 150.82176,121.38398 C 151.99726,112.56994 153.45351,103.79296 155.20643,95.075238 C 158.28683,86.561085 166.84106,82.585979 175.28783,81.493435 C 181.08229,79.058458 191.01774,81.453932 194.29798,76.741554 C 193.97029,72.365214 197.9253,62.196509 190.63858,63.817728 C 174.7392,63.680667 158.83979,63.543605 142.9404,63.406546 C 141.8418,59.020505 142.56904,54.63445 143.83249,50.248418 z"
       id="path3190"
       sodipodi:nodetypes="cccccsccccccccccccccccccccccccccccccc" />
    <path
       style="fill:#000000;fill-opacity:1;fill-rule:evenodd;stroke:#000000;stroke-width:1.25559735px;stroke-linecap:butt;stroke-linejoin:miter;stroke-opacity:1"
       d="M 174.83212,232.23197 C 186.46169,221.82975 205.06317,226.29831 219.65895,226.65649 C 227.6101,229.79432 227.82276,238.77312 228.04976,246.25598 C 228.30578,254.69572 226.10005,262.54226 219.08185,267.26374 C 212.72799,271.42317 208.96202,273.69238 209.14723,285.78555 C 208.89596,292.31354 206.45856,302.04143 217.71344,301.54845 C 225.81276,301.56004 232.54433,301.31867 236.51859,294.78227 C 241.34769,288.78467 239.1953,280.69032 239.82785,273.63187 C 239.93415,265.46724 240.12162,257.27532 241.29179,249.18141 C 247.00889,249.38633 257.18142,247.50451 253.46118,256.88583 C 252.53166,269.39963 252.34811,282.03989 250.2303,294.41433 C 247.17353,300.75517 241.95555,306.54419 235.74578,309.9154 C 229.4266,312.47761 223.79443,313.38591 215.94201,313.78806 C 207.80534,314.30521 210.09758,320.13423 209.75545,324.70475 C 209.26618,331.85923 208.83862,339.34724 204.78562,345.52581 C 200.84687,353.64078 194.83569,361.04822 187.01932,365.65562 C 179.22408,368.22587 170.36296,371.25893 162.25595,368.21854 C 159.89705,363.94586 160.7553,354.04404 168.4902,357.51554 C 175.44144,358.6038 181.7428,355.28366 186.34565,350.35224 C 191.16536,343.80169 195.28683,336.25831 196.87946,327.57732 C 197.78799,322.36115 201.4154,312.51975 188.53504,316.02527 C 180.41,315.28307 173.13704,312.99667 165.83834,309.81038 C 159.53921,305.34054 153.23194,299.95823 150.4889,292.48243 C 146.27345,284.86559 145.38189,278.44866 144.07952,269.98697 C 143.77465,264.4673 139.62177,258.15382 148.59093,256.04085 C 153.18017,254.00545 155.65119,265.66487 156.66717,271.90701 C 158.09689,280.69118 160.8745,288.74887 166.10162,295.38985 C 172.49,302.34948 182.48822,302.61833 191.24651,302.05169 C 200.39097,302.24769 195.82488,291.68785 196.79435,286.13031 C 197.27447,270.38387 188.67988,272.43174 182.96878,268.00128 C 177.08348,262.66866 174.97983,254.46015 173.08923,247.04221 C 172.29582,242.07408 172.77749,236.85169 174.83212,232.23197 z M 197.80307,262.78557 C 205.29422,266.54908 214.13554,257.44139 214.34042,248.81012 C 214.51722,241.36176 211.11948,237.15917 203.61245,238.08688 C 197.74484,238.812 186.46635,235.49117 187.43346,244.80486 C 188.1896,252.08685 191.54404,259.64107 197.80307,262.78557 z"
       id="path3194"
       sodipodi:nodetypes="ccsccccccccccccccccccccccscccccccssss" />
    <path
       style="fill:#000000;fill-opacity:1;fill-rule:evenodd;stroke:#000000;stroke-width:0.6371572;stroke-linecap:round;stroke-linejoin:round;stroke-miterlimit:4;stroke-dasharray:none;stroke-opacity:1"
       d="M 201.33563,19.822763 C 99.743555,19.822763 17.272921,102.7087 17.272921,204.82718 C 17.272921,306.94565 99.743545,389.79235 201.33563,389.79235 C 302.92772,389.79235 385.35909,306.94565 385.35911,204.82718 C 385.35911,102.7087 302.92771,19.822762 201.33563,19.822763 z M 202.19886,27.395584 C 236.4606,27.3657 270.41001,38.069823 298.87984,56.980595 C 349.73883,89.923826 380.11321,150.85262 377.78629,211.22288 C 376.43394,275.67992 335.89382,336.67267 278.08402,364.68041 C 218.32289,394.8565 142.25514,385.21602 90.607645,343.06058 C 37.310584,301.22486 13.543433,227.36802 29.907369,161.97991 C 47.587989,85.83707 120.65028,27.206022 198.86367,27.434822 C 199.9693,27.41143 201.09364,27.396549 202.19886,27.395584 z"
       id="path3202" />
  </g>
</svg>
