<?xml version="1.0" encoding="UTF-8" standalone="no"?>
<!-- Created with Inkscape (http://www.inkscape.org/) -->
<svg
   xmlns:dc="http://purl.org/dc/elements/1.1/"
   xmlns:cc="http://creativecommons.org/ns#"
   xmlns:rdf="http://www.w3.org/1999/02/22-rdf-syntax-ns#"
   xmlns:svg="http://www.w3.org/2000/svg"
   xmlns="http://www.w3.org/2000/svg"
   xmlns:sodipodi="http://sodipodi.sourceforge.net/DTD/sodipodi-0.dtd"
   xmlns:inkscape="http://www.inkscape.org/namespaces/inkscape"
   width="756.27722"
   height="549.66852"
   id="svg2"
   sodipodi:version="0.32"
   inkscape:version="0.46+devel r custom"
   sodipodi:docname="robo.svg"
   inkscape:output_extension="org.inkscape.output.svg.inkscape"
   version="1.0">
  <title
     id="title4098">Robot claw</title>
  <defs
     id="defs4">
    <inkscape:perspective
       sodipodi:type="inkscape:persp3d"
       inkscape:vp_x="0 : 526.18109 : 1"
       inkscape:vp_y="0 : 1000 : 0"
       inkscape:vp_z="744.09448 : 526.18109 : 1"
       inkscape:persp3d-origin="372.04724 : 350.78739 : 1"
       id="perspective10" />
  </defs>
  <sodipodi:namedview
     id="base"
     pagecolor="#ffffff"
     bordercolor="#666666"
     borderopacity="1.0"
     inkscape:pageopacity="0.0"
     inkscape:pageshadow="2"
     inkscape:zoom="0.51413354"
     inkscape:cx="423.86041"
     inkscape:cy="205.15928"
     inkscape:document-units="px"
     inkscape:current-layer="layer1"
     showgrid="false"
     inkscape:window-width="1280"
     inkscape:window-height="725"
     inkscape:window-x="0"
     inkscape:window-y="25" />
  <metadata
     id="metadata7">
    <rdf:RDF>
      <cc:Work
         rdf:about="">
        <dc:format>image/svg+xml</dc:format>
        <dc:type
           rdf:resource="http://purl.org/dc/dcmitype/StillImage" />
        <dc:title>Robot claw</dc:title>
        <dc:date>02/25/2009</dc:date>
        <dc:creator>
          <cc:Agent>
            <dc:title>Jos   Maria Silveira Neto</dc:title>
          </cc:Agent>
        </dc:creator>
        <dc:rights>
          <cc:Agent>
            <dc:title></dc:title>
          </cc:Agent>
        </dc:rights>
        <dc:subject>
          <rdf:Bag>
            <rdf:li>robot claw mat tank</rdf:li>
          </rdf:Bag>
        </dc:subject>
        <cc:license
           rdf:resource="http://creativecommons.org/licenses/publicdomain/" />
        <dc:description>A robot with a claw.</dc:description>
      </cc:Work>
      <cc:License
         rdf:about="http://creativecommons.org/licenses/publicdomain/">
        <cc:permits
           rdf:resource="http://creativecommons.org/ns#Reproduction" />
        <cc:permits
           rdf:resource="http://creativecommons.org/ns#Distribution" />
        <cc:permits
           rdf:resource="http://creativecommons.org/ns#DerivativeWorks" />
      </cc:License>
    </rdf:RDF>
  </metadata>
  <g
     inkscape:label="Camada 1"
     inkscape:groupmode="layer"
     id="layer1"
     transform="translate(-88.915398,-120.60461)">
    <path
       style="stroke-width:1px"
       d="m 465.83228,426.06575 57.11625,15.30426 0,42.07383 -53.30764,14.28374 -3.80861,-71.66183 z"
       id="path4086" />
    <g
       id="g4082"
       transform="translate(-47.493125,88.858104)">
      <path
         id="path4070"
         d="m 268.10635,404.31084 -35.23684,-105.7105 -16.8524,1.53203 13.78833,-19.91647 -24.51258,0 16.8524,-24.51258 -15.32036,1.53204 -21.44851,-65.87756"
         style="fill:none;stroke:#000000;stroke-width:2.5;stroke-miterlimit:4;stroke-opacity:1;stroke-dasharray:none" />
      <path
         transform="translate(76.601814,65.87756)"
         d="m 119.49883,124.71422 c 0,6.34263 -5.14764,11.49027 -11.49027,11.49027 -6.34263,0 -11.490273,-5.14764 -11.490273,-11.49027 0,-6.34263 5.147643,-11.49028 11.490273,-11.49028 6.34263,0 11.49027,5.14765 11.49027,11.49028 z"
         sodipodi:ry="11.490273"
         sodipodi:rx="11.490273"
         sodipodi:cy="124.71422"
         sodipodi:cx="108.00856"
         id="path4080"
         style="fill:#000000;fill-opacity:1;stroke:none"
         sodipodi:type="arc" />
    </g>
    <g
       id="g4008"
       transform="matrix(1.7216936,0.16657596,-0.16657596,1.7216936,-338.71639,-517.02705)"
       inkscape:transform-center-x="-223.84048"
       inkscape:transform-center-y="-121.80999">
      <g
         id="g4000">
        <g
           transform="matrix(0.59781218,0,0,0.59781218,310.18871,219.93138)"
           id="g3988">
          <path
             transform="matrix(0.44166667,0,0,0.44166667,344.66532,144.75591)"
             d="m 571.83958,424.91031 c 0,40.04086 -32.49693,72.53779 -72.53779,72.53779 -40.04086,0 -72.53779,-32.49693 -72.53779,-72.53779 0,-40.04086 32.49693,-72.53779 72.53779,-72.53779 40.04086,0 72.53779,32.49693 72.53779,72.53779 z"
             sodipodi:ry="72.537788"
             sodipodi:rx="72.537788"
             sodipodi:cy="424.91031"
             sodipodi:cx="499.30179"
             id="path3990"
             style="fill:#241f1c;fill-opacity:1;stroke:none"
             sodipodi:type="arc" />
          <path
             sodipodi:type="arc"
             style="fill:#ac9d93;fill-opacity:1;stroke:none"
             id="path3992"
             sodipodi:cx="499.30179"
             sodipodi:cy="424.91031"
             sodipodi:rx="72.537788"
             sodipodi:ry="72.537788"
             d="m 571.83958,424.91031 c 0,40.04086 -32.49693,72.53779 -72.53779,72.53779 -40.04086,0 -72.53779,-32.49693 -72.53779,-72.53779 0,-40.04086 32.49693,-72.53779 72.53779,-72.53779 40.04086,0 72.53779,32.49693 72.53779,72.53779 z"
             transform="matrix(0.23923611,0,0,0.23923611,442.26853,218.94125)" />
          <path
             transform="matrix(0.19322917,0,0,0.19322917,465.23988,238.92679)"
             d="m 571.83958,424.91031 c 0,40.04086 -32.49693,72.53779 -72.53779,72.53779 -40.04086,0 -72.53779,-32.49693 -72.53779,-72.53779 0,-40.04086 32.49693,-72.53779 72.53779,-72.53779 40.04086,0 72.53779,32.49693 72.53779,72.53779 z"
             sodipodi:ry="72.537788"
             sodipodi:rx="72.537788"
             sodipodi:cy="424.91031"
             sodipodi:cx="499.30179"
             id="path3994"
             style="fill:#e3dedb;fill-opacity:1;stroke:none"
             sodipodi:type="arc" />
        </g>
        <path
           style="fill:#ffcc00;fill-opacity:1;stroke-width:1px"
           d="m 659.73776,402.9159 44.41585,-7.5832 27.08283,55.24898 -9.20817,11.37479 -21.66626,-46.58247 -34.12437,5.41656 -6.49988,-17.87466 z"
           id="path3996" />
        <path
           id="path3998"
           d="m 637.23052,431.36758 -3.21708,44.94356 57.62605,21.56774 10.42293,-10.27321 -48.47278,-17.02185 2.06405,-34.48988 -18.42317,-4.72636 z"
           style="fill:#ffcc00;fill-opacity:1;stroke-width:1px" />
      </g>
      <g
         transform="matrix(1.1204227,0,0,1.1204227,-176.08711,106.57431)"
         id="g3980">
        <path
           sodipodi:type="arc"
           style="fill:#241f1c;fill-opacity:1;stroke:none"
           id="path3982"
           sodipodi:cx="499.30179"
           sodipodi:cy="424.91031"
           sodipodi:rx="72.537788"
           sodipodi:ry="72.537788"
           d="m 571.83958,424.91031 c 0,40.04086 -32.49693,72.53779 -72.53779,72.53779 -40.04086,0 -72.53779,-32.49693 -72.53779,-72.53779 0,-40.04086 32.49693,-72.53779 72.53779,-72.53779 40.04086,0 72.53779,32.49693 72.53779,72.53779 z"
           transform="matrix(0.44166667,0,0,0.44166667,344.66532,144.75591)" />
        <path
           transform="matrix(0.23923611,0,0,0.23923611,442.26853,218.94125)"
           d="m 571.83958,424.91031 c 0,40.04086 -32.49693,72.53779 -72.53779,72.53779 -40.04086,0 -72.53779,-32.49693 -72.53779,-72.53779 0,-40.04086 32.49693,-72.53779 72.53779,-72.53779 40.04086,0 72.53779,32.49693 72.53779,72.53779 z"
           sodipodi:ry="72.537788"
           sodipodi:rx="72.537788"
           sodipodi:cy="424.91031"
           sodipodi:cx="499.30179"
           id="path3984"
           style="fill:#ac9d93;fill-opacity:1;stroke:none"
           sodipodi:type="arc" />
        <path
           sodipodi:type="arc"
           style="fill:#e3dedb;fill-opacity:1;stroke:none"
           id="path3986"
           sodipodi:cx="499.30179"
           sodipodi:cy="424.91031"
           sodipodi:rx="72.537788"
           sodipodi:ry="72.537788"
           d="m 571.83958,424.91031 c 0,40.04086 -32.49693,72.53779 -72.53779,72.53779 -40.04086,0 -72.53779,-32.49693 -72.53779,-72.53779 0,-40.04086 32.49693,-72.53779 72.53779,-72.53779 40.04086,0 72.53779,32.49693 72.53779,72.53779 z"
           transform="matrix(0.19322917,0,0,0.19322917,465.23988,238.92679)" />
      </g>
      <g
         transform="translate(-39.866491,19.290238)"
         id="g3975">
        <path
           transform="matrix(0.44166667,0,0,0.44166667,344.66532,144.75591)"
           d="m 571.83958,424.91031 c 0,40.04086 -32.49693,72.53779 -72.53779,72.53779 -40.04086,0 -72.53779,-32.49693 -72.53779,-72.53779 0,-40.04086 32.49693,-72.53779 72.53779,-72.53779 40.04086,0 72.53779,32.49693 72.53779,72.53779 z"
           sodipodi:ry="72.537788"
           sodipodi:rx="72.537788"
           sodipodi:cy="424.91031"
           sodipodi:cx="499.30179"
           id="path3959"
           style="fill:#241f1c;fill-opacity:1;stroke:none"
           sodipodi:type="arc" />
        <path
           sodipodi:type="arc"
           style="fill:#ac9d93;fill-opacity:1;stroke:none"
           id="path3963"
           sodipodi:cx="499.30179"
           sodipodi:cy="424.91031"
           sodipodi:rx="72.537788"
           sodipodi:ry="72.537788"
           d="m 571.83958,424.91031 c 0,40.04086 -32.49693,72.53779 -72.53779,72.53779 -40.04086,0 -72.53779,-32.49693 -72.53779,-72.53779 0,-40.04086 32.49693,-72.53779 72.53779,-72.53779 40.04086,0 72.53779,32.49693 72.53779,72.53779 z"
           transform="matrix(0.23923611,0,0,0.23923611,442.26853,218.94125)" />
        <path
           transform="matrix(0.19322917,0,0,0.19322917,465.23988,238.92679)"
           d="m 571.83958,424.91031 c 0,40.04086 -32.49693,72.53779 -72.53779,72.53779 -40.04086,0 -72.53779,-32.49693 -72.53779,-72.53779 0,-40.04086 32.49693,-72.53779 72.53779,-72.53779 40.04086,0 72.53779,32.49693 72.53779,72.53779 z"
           sodipodi:ry="72.537788"
           sodipodi:rx="72.537788"
           sodipodi:cy="424.91031"
           sodipodi:cx="499.30179"
           id="path3961"
           style="fill:#e3dedb;fill-opacity:1;stroke:none"
           sodipodi:type="arc" />
      </g>
      <path
         sodipodi:nodetypes="ccccc"
         id="path3957"
         d="m 441.30084,447.82745 53.19437,32.642 39.30294,-98.49561 -41.37366,-23.88709 -51.12365,89.7407 z"
         style="fill:#ffcc00;fill-opacity:1;stroke-width:1px" />
      <path
         style="fill:#ffcc00;fill-opacity:1;stroke-width:1px"
         d="m 553.08479,332.59226 -10.95834,48.10406 90.41294,46.95934 17.25279,-28.26581 -96.70739,-66.79759 z"
         id="path3965"
         sodipodi:nodetypes="ccccc" />
      <path
         sodipodi:nodetypes="ccccc"
         id="path3967"
         d="m 500.51901,362.73484 -50.36153,91.53181 9.94906,5.85698 51.41833,-91.17807 -11.00586,-6.21072 z"
         style="fill:#554400;stroke-width:1px" />
      <path
         style="fill:#554400;stroke-width:1px"
         d="m 515.52329,370.91899 -51.27088,93.35051 9.94906,5.85698 52.32768,-92.99677 -11.00586,-6.21072 z"
         id="path3969"
         sodipodi:nodetypes="ccccc" />
      <path
         style="fill:#554400;stroke-width:1px"
         d="m 649.34249,400.41649 -100.62531,-56.27231 -5.85698,9.94906 100.27158,57.32911 6.21071,-11.00586 z"
         id="path3971"
         sodipodi:nodetypes="ccccc" />
      <path
         sodipodi:nodetypes="ccccc"
         id="path3973"
         d="m 641.15835,415.42077 -96.53324,-53.08958 -5.85698,9.94906 96.1795,54.14638 6.21072,-11.00586 z"
         style="fill:#554400;stroke-width:1px" />
    </g>
    <path
       style="fill:#ffcc00;stroke-width:1px"
       d="m 245.38169,400.47853 224.14244,0 43.31574,145.64988 -306.89617,1.14765 39.43799,-146.79753 z"
       id="path3943"
       sodipodi:nodetypes="ccccc" />
    <g
       id="g3900">
      <path
         id="path3869"
         d="m 597.02441,661.83476 20.43867,-0.48213 20.78806,-21.79249 -0.54238,-22.99349 -40.68435,45.26811 z"
         style="fill:#28170b;fill-opacity:1;stroke-width:1px" />
      <path
         style="fill:#28170b;fill-opacity:1;stroke-width:1px"
         d="m 634.39136,622.09535 9.15557,-18.27968 -9.50427,-28.57839 -20.56463,-10.30004 20.91333,57.15811 z"
         id="path3871" />
      <path
         id="path3873"
         d="m 606.63211,559.33552 -3.68749,-20.10904 -24.78806,-17.1058 -22.62269,4.14842 51.09824,33.06642 z"
         style="fill:#28170b;fill-opacity:1;stroke-width:1px" />
      <path
         style="fill:#28170b;fill-opacity:1;stroke-width:1px"
         d="m 135.43792,661.83476 -20.43867,-0.48213 -20.788063,-21.79249 0.542385,-22.99349 40.684348,45.26811 z"
         id="path3867" />
      <path
         id="path3865"
         d="M 98.070972,622.09535 88.915398,603.81567 98.419663,575.23728 118.9843,564.93724 98.070972,622.09535 z"
         style="fill:#28170b;fill-opacity:1;stroke-width:1px" />
      <path
         style="fill:#28170b;fill-opacity:1;stroke-width:1px"
         d="m 125.83022,559.33552 3.68749,-20.10904 24.78806,-17.1058 22.62268,4.14842 -51.09823,33.06642 z"
         id="path3863" />
      <path
         style="fill:#28170b;fill-opacity:1;stroke-width:1px"
         d="m 127.29608,655.8168 14.45634,14.45633 30.11737,0 16.26338,-16.26338 -60.83709,1.80705 z"
         id="path3859" />
      <path
         id="path3857"
         d="m 544.1205,655.8168 14.45634,14.45633 30.11737,0 16.26338,-16.26338 -60.83709,1.80705 z"
         style="fill:#28170b;fill-opacity:1;stroke-width:1px" />
      <path
         style="fill:#28170b;fill-opacity:1;stroke-width:1px"
         d="m 180.30266,655.8168 14.45634,14.45633 30.11737,0 16.26338,-16.26338 -60.83709,1.80705 z"
         id="path3847" />
      <path
         id="path3849"
         d="m 256.6,655.8168 14.45634,14.45633 30.11737,0 16.26338,-16.26338 L 256.6,655.8168 z"
         style="fill:#28170b;fill-opacity:1;stroke-width:1px" />
      <path
         style="fill:#28170b;fill-opacity:1;stroke-width:1px"
         d="m 330.48795,655.8168 14.45634,14.45633 30.11737,0 16.26338,-16.26338 -60.83709,1.80705 z"
         id="path3851" />
      <path
         id="path3853"
         d="m 401.96651,655.8168 14.45634,14.45633 30.11737,0 16.26338,-16.26338 -60.83709,1.80705 z"
         style="fill:#28170b;fill-opacity:1;stroke-width:1px" />
      <path
         style="fill:#28170b;fill-opacity:1;stroke-width:1px"
         d="m 477.46072,655.8168 14.45634,14.45633 30.11737,0 16.26338,-16.26338 -60.83709,1.80705 z"
         id="path3855" />
      <path
         id="path3764"
         d="M 528.65625,516.9375 C 410.85537,517.71909 293.05084,516.71055 175.25,517.5 c -30.73882,19.49787 -62.72305,42.10539 -77.4375,76.5 -7.067349,19.60862 1.438845,42.114 17.46875,54.4375 19.12032,16.31168 46.22831,19.39467 70.34106,14.92749 34.3707,-1.2382 68.77391,0.18568 103.15894,-0.36499 89.11466,0.17578 178.27563,-0.9109 267.35978,0.76754 24.79497,4.56124 54.10241,-0.73703 69.60897,-22.11129 17.63816,-23.47281 13.50731,-59.8492 -8.44648,-79.12383 -22.25505,-22.91223 -52.20569,-37.11849 -82.80352,-45.31367 -1.92138,-0.30898 -3.89546,-0.35803 -5.84375,-0.28125 z"
         style="fill:#28170b;stroke-width:1px" />
      <path
         sodipodi:nodetypes="czzzscc"
         id="path2842"
         d="m 178.59626,527.21514 c 0,0 -91.588509,53.58283 -70.09892,96.35157 21.74005,43.26719 75.81321,29.36272 75.81321,29.36272 l 368.57143,0 c 0,0 60.63555,15.35174 72.75823,-35.27485 14.24381,-59.48484 -89.90109,-90.43944 -89.90109,-90.43944 l -357.14286,0 z"
         style="fill:#552200;stroke-width:1px" />
      <path
         transform="matrix(0.79371383,-0.29916186,0.29916186,0.79371383,236.85016,365.11281)"
         sodipodi:type="arc"
         style="fill:#2b1100;fill-opacity:1;stroke:none"
         id="path3744"
         sodipodi:cx="272.37225"
         sodipodi:cy="404.88077"
         sodipodi:rx="52.563068"
         sodipodi:ry="52.563068"
         d="m 324.93532,404.88077 c 0,29.01481 -23.54825,52.56307 -52.56307,52.56307 -29.01481,0 -52.56306,-23.54826 -52.56306,-52.56307 0,-29.01482 23.54825,-52.56307 52.56306,-52.56307 29.01482,0 52.56307,23.54825 52.56307,52.56307 z" />
      <path
         d="m 324.93532,404.88077 c 0,29.01481 -23.54825,52.56307 -52.56307,52.56307 -29.01481,0 -52.56306,-23.54826 -52.56306,-52.56307 0,-29.01482 23.54825,-52.56307 52.56306,-52.56307 29.01482,0 52.56307,23.54825 52.56307,52.56307 z"
         sodipodi:ry="52.563068"
         sodipodi:rx="52.563068"
         sodipodi:cy="404.88077"
         sodipodi:cx="272.37225"
         id="path3742"
         style="fill:#2b1100;fill-opacity:1;stroke:none"
         sodipodi:type="arc"
         transform="matrix(0.79371383,-0.29916186,0.29916186,0.79371383,-176.66265,367.11281)" />
      <path
         transform="matrix(0.84822135,0,0,0.84822135,-6.5274166,247.60447)"
         d="m 324.93532,404.88077 c 0,29.01481 -23.54825,52.56307 -52.56307,52.56307 -29.01481,0 -52.56306,-23.54826 -52.56306,-52.56307 0,-29.01482 23.54825,-52.56307 52.56306,-52.56307 29.01482,0 52.56307,23.54825 52.56307,52.56307 z"
         sodipodi:ry="52.563068"
         sodipodi:rx="52.563068"
         sodipodi:cy="404.88077"
         sodipodi:cx="272.37225"
         id="path2844"
         style="fill:#2b1100;fill-opacity:1;stroke:none"
         sodipodi:type="arc" />
      <path
         id="rect3884"
         d="m 160.375,567.78125 -9.34375,0.75 c -1.61508,0.13025 -2.71989,2.76098 -2.46875,5.875 l 0.53125,6.4375 c -1.76941,0.71294 -3.48955,1.61659 -5.09375,2.71875 l -5,-4.25 c -2.37952,-2.02436 -5.13757,-2.67164 -6.1875,-1.4375 L 126.75,585 c -1.04993,1.23414 0.0267,3.88189 2.40625,5.90625 l 5.3125,4.53125 c -0.67883,1.66651 -1.17564,3.38396 -1.5,5.125 l -7.125,0.5625 c -3.11402,0.25114 -5.50525,1.75992 -5.375,3.375 l 0.75,9.34375 c 0.13025,1.61508 2.72973,2.71989 5.84375,2.46875 l 7.5,-0.59375 c 0.63325,1.51444 1.39148,2.98218 2.3125,4.375 l -4.90625,5.78125 c -2.02436,2.37952 -2.67164,5.13757 -1.4375,6.1875 l 7.15625,6.0625 c 1.23414,1.04993 3.85064,0.005 5.875,-2.375 l 5.03125,-5.90625 c 1.49205,0.6392 3.00383,1.11734 4.5625,1.46875 l 0.625,7.71875 c 0.25114,3.11402 1.75992,5.5365 3.375,5.40625 l 9.34375,-0.75 c 1.61508,-0.13025 2.71989,-2.76098 2.46875,-5.875 l -0.59375,-7.5 c 1.56189,-0.58434 3.05527,-1.33532 4.5,-2.21875 l 5.65625,4.8125 c 2.37952,2.02436 5.13757,2.67164 6.1875,1.4375 l 6.09375,-7.125 c 1.04993,-1.23414 -0.0267,-3.88189 -2.40625,-5.90625 l -5.375,-4.5625 c 0.77575,-1.64767 1.39652,-3.35621 1.8125,-5.09375 l 6.875,-0.5625 c 3.11402,-0.25114 5.50525,-1.75992 5.375,-3.375 l -0.75,-9.34375 c -0.13025,-1.61508 -2.76098,-2.71989 -5.875,-2.46875 l -6.5,0.53125 c -0.65085,-1.80593 -1.48363,-3.56899 -2.53125,-5.21875 l 4.15625,-4.875 c 2.02436,-2.37952 2.64039,-5.13757 1.40625,-6.1875 l -7.125,-6.0625 c -1.23414,-1.04993 -3.85064,-0.005 -5.875,2.375 l -4.0625,4.78125 c -1.84486,-0.83275 -3.74066,-1.4564 -5.6875,-1.84375 l -0.5,-6.21875 c -0.25114,-3.11402 -1.75992,-5.5365 -3.375,-5.40625 z"
         style="fill:#d45500;fill-opacity:1;stroke:none" />
      <path
         transform="matrix(0.79371383,-0.29916186,0.29916186,0.79371383,-38.378153,347.15691)"
         sodipodi:type="arc"
         style="fill:#2b1100;fill-opacity:1;stroke:none"
         id="path3638"
         sodipodi:cx="272.37225"
         sodipodi:cy="404.88077"
         sodipodi:rx="52.563068"
         sodipodi:ry="52.563068"
         d="m 324.93532,404.88077 c 0,29.01481 -23.54825,52.56307 -52.56307,52.56307 -29.01481,0 -52.56306,-23.54826 -52.56306,-52.56307 0,-29.01482 23.54825,-52.56307 52.56306,-52.56307 29.01482,0 52.56307,23.54825 52.56307,52.56307 z" />
      <path
         d="m 324.93532,404.88077 c 0,29.01481 -23.54825,52.56307 -52.56307,52.56307 -29.01481,0 -52.56306,-23.54826 -52.56306,-52.56307 0,-29.01482 23.54825,-52.56307 52.56306,-52.56307 29.01482,0 52.56307,23.54825 52.56307,52.56307 z"
         sodipodi:ry="52.563068"
         sodipodi:rx="52.563068"
         sodipodi:cy="404.88077"
         sodipodi:cx="272.37225"
         id="path3712"
         style="fill:#2b1100;fill-opacity:1;stroke:none"
         sodipodi:type="arc"
         transform="matrix(0.79371383,-0.29916186,0.29916186,0.79371383,29.95401,346.75551)" />
      <path
         transform="matrix(0.79371383,-0.29916186,0.29916186,0.79371383,100.08547,348.22264)"
         sodipodi:type="arc"
         style="fill:#2b1100;fill-opacity:1;stroke:none"
         id="path3714"
         sodipodi:cx="272.37225"
         sodipodi:cy="404.88077"
         sodipodi:rx="52.563068"
         sodipodi:ry="52.563068"
         d="m 324.93532,404.88077 c 0,29.01481 -23.54825,52.56307 -52.56307,52.56307 -29.01481,0 -52.56306,-23.54826 -52.56306,-52.56307 0,-29.01482 23.54825,-52.56307 52.56306,-52.56307 29.01482,0 52.56307,23.54825 52.56307,52.56307 z" />
      <path
         d="m 324.93532,404.88077 c 0,29.01481 -23.54825,52.56307 -52.56307,52.56307 -29.01481,0 -52.56306,-23.54826 -52.56306,-52.56307 0,-29.01482 23.54825,-52.56307 52.56306,-52.56307 29.01482,0 52.56307,23.54825 52.56307,52.56307 z"
         sodipodi:ry="52.563068"
         sodipodi:rx="52.563068"
         sodipodi:cy="404.88077"
         sodipodi:cx="272.37225"
         id="path3716"
         style="fill:#2b1100;fill-opacity:1;stroke:none"
         sodipodi:type="arc"
         transform="matrix(0.79371383,-0.29916186,0.29916186,0.79371383,169.35191,348.22264)" />
      <path
         id="path3746"
         d="m 162.67325,587.189 0,37.875 c 8.64574,-1.96927 15.09375,-9.69814 15.09375,-18.9375 0,-9.23717 -6.4511,-16.96596 -15.09375,-18.9375 z m -9.375,0.1875 c -8.27549,2.22891 -14.375,9.77351 -14.375,18.75 0,8.97759 6.09797,16.52212 14.375,18.75 l 0,-37.5 z"
         style="fill:#d4aa00;fill-opacity:1;stroke:none" />
      <path
         style="fill:#d45500;fill-opacity:1;stroke:none"
         d="m 233.82238,554.71602 -9.33058,-0.8992 c -1.61291,-0.15482 -3.16168,2.24156 -3.46019,5.35139 l -0.60521,6.43097 c -1.86698,0.3918 -3.71887,0.97999 -5.4914,1.78394 l -4.17776,-5.06052 c -1.9879,-2.41006 -4.58981,-3.5307 -5.83979,-2.49968 l -7.2174,5.95221 c -1.24997,1.03102 -0.65405,3.82648 1.33388,6.23655 l 4.43612,5.39219 c -0.96039,1.52174 -1.75051,3.12554 -2.37499,4.78278 l -7.1133,-0.69493 c -3.10984,-0.29852 -5.72849,0.76782 -5.88331,2.38073 l -0.8992,9.33058 c -0.15483,1.61291 2.21079,3.1562 5.32063,3.45471 l 7.48797,0.7299 c 0.35803,1.60198 0.84729,3.17989 1.50994,4.71257 l -5.84353,4.8319 c -2.41006,1.9879 -3.5307,4.58982 -2.49968,5.83979 l 5.98297,7.22288 c 1.03103,1.24997 3.79017,0.67978 6.20031,-1.30859 l 5.98851,-4.93305 c 1.35693,0.8908 2.76152,1.62649 4.23447,2.24564 l -0.73746,7.70882 c -0.29851,3.10983 0.76235,5.75925 2.37526,5.91407 l 9.33057,0.8992 c 1.61291,0.15483 3.16168,-2.24156 3.46019,-5.35139 l 0.7299,-7.48798 c 1.64013,-0.30156 3.24201,-0.77918 4.81921,-1.39573 l 4.72526,5.72932 c 1.9879,2.41007 4.58982,3.53071 5.83979,2.49968 l 7.24817,-5.94673 c 1.24997,-1.03102 0.65405,-3.82648 -1.33388,-6.23655 l -4.49218,-5.43391 c 1.05251,-1.48621 1.96312,-3.05951 2.67718,-4.69725 l 6.86717,0.65112 c 3.10984,0.29852 5.72849,-0.76782 5.88331,-2.38073 l 0.8992,-9.33058 c 0.15483,-1.61291 -2.24156,-3.16168 -5.35139,-3.46019 l -6.4925,-0.61617 c -0.32427,-1.89204 -0.83517,-3.77377 -1.57743,-5.5816 l 4.94631,-4.07112 c 2.41006,-1.9879 3.49994,-4.59529 2.46891,-5.84527 l -5.9522,-7.2174 c -1.03103,-1.24997 -3.79017,-0.67978 -6.20031,1.30859 l -4.83759,3.99525 c -1.67036,-1.14319 -3.42751,-2.08945 -5.27633,-2.81201 l 0.59764,-6.21012 c 0.29851,-3.10984 -0.76235,-5.75925 -2.37526,-5.91408 z"
         id="path3888" />
      <path
         style="fill:#d4aa00;fill-opacity:1;stroke:none"
         d="m 243.85442,589.458 -35.68159,12.70195 c 4.7547,7.48463 14.19842,10.96723 22.90271,7.86867 8.70223,-3.09782 13.81996,-11.76729 12.77888,-20.57062 z m -3.32068,-8.76919 c -4.87514,-7.04875 -14.02839,-10.26483 -22.48503,-7.25443 -8.45768,3.01077 -13.52025,11.28577 -12.84329,19.83061 l 35.32832,-12.57618 z"
         id="path3752" />
      <path
         id="path3894"
         d="m 449.77787,551.66979 -9.14091,-2.07656 c -1.5802,-0.35835 -3.42069,1.822 -4.11162,4.86877 l -1.4168,6.30209 c -1.90162,0.15159 -3.8132,0.4999 -5.67346,1.0723 l -3.50145,-5.54999 c -1.66583,-2.64295 -4.1044,-4.08486 -5.47517,-3.22089 l -7.9147,4.9877 c -1.37075,0.86398 -1.13458,3.71247 0.53128,6.35543 l 3.71561,5.91178 c -1.14582,1.38749 -2.13317,2.878 -2.963,4.44254 l -6.96751,-1.59243 c -3.04677,-0.69094 -5.77962,0.0343 -6.13796,1.6145 l -2.07656,9.14091 c -0.35836,1.5802 1.79218,3.41135 4.83895,4.10227 l 7.3347,1.67469 c 0.15174,1.63447 0.43671,3.26173 0.8994,4.86614 l -6.40971,4.05089 c -2.64295,1.66582 -4.08486,4.10441 -3.22089,5.47516 l 5.01752,7.92405 c 0.86398,1.37075 3.67319,1.15548 6.31627,-0.5108 l 6.56637,-4.13281 c 1.23285,1.05587 2.53266,1.96394 3.91509,2.76509 l -1.71023,7.55281 c -0.69093,3.04676 0.025,5.80943 1.60517,6.16778 l 9.1409,2.07655 c 1.5802,0.35836 3.42069,-1.822 4.11161,-4.86876 l 1.67469,-7.33472 c 1.66515,-0.0909 3.3147,-0.36126 4.95742,-0.77257 l 3.95961,6.28289 c 1.66582,2.64295 4.10441,4.08487 5.47516,3.22088 l 7.94453,-4.97835 c 1.37076,-0.86398 1.13458,-3.71248 -0.53127,-6.35544 l -3.76593,-5.96027 c 1.23269,-1.34056 2.33568,-2.78551 3.25189,-4.31934 l 6.72893,1.51773 c 3.04678,0.69094 5.77962,-0.0343 6.13797,-1.61451 l 2.07656,-9.1409 c 0.35835,-1.5802 -1.82201,-3.42069 -4.86877,-4.11162 l -6.36173,-1.43549 c -0.0814,-1.9179 -0.34928,-3.84926 -0.85601,-5.7367 l 5.42316,-3.41018 c 2.64295,-1.66583 4.05505,-4.11374 3.19107,-5.48451 l -4.98769,-7.9147 c -0.86399,-1.37076 -3.6732,-1.15549 -6.31628,0.51079 l -5.30569,3.34873 c -1.5117,-1.34602 -3.13449,-2.50771 -4.87661,-3.45915 l 1.38126,-6.08399 c 0.69093,-3.04677 -0.025,-5.80943 -1.60517,-6.16779 z"
         style="fill:#d45500;fill-opacity:1;stroke:none" />
      <path
         id="path3754"
         d="m 455.29511,586.52373 -35.68159,12.70195 c 4.7547,7.48463 14.19842,10.96723 22.90271,7.86867 8.70223,-3.09782 13.81996,-11.76729 12.77888,-20.57062 z m -3.32068,-8.76919 c -4.87514,-7.04875 -14.02839,-10.26483 -22.48503,-7.25443 -8.45768,3.01077 -13.52025,11.28577 -12.84329,19.83061 l 35.32832,-12.57618 z"
         style="fill:#d4aa00;fill-opacity:1;stroke:none" />
      <path
         id="path3890"
         d="m 309.66648,551.66979 -9.14091,-2.07656 c -1.5802,-0.35835 -3.42069,1.822 -4.11162,4.86877 l -1.4168,6.30209 c -1.90162,0.15159 -3.8132,0.4999 -5.67346,1.0723 l -3.50145,-5.54999 c -1.66583,-2.64295 -4.1044,-4.08486 -5.47517,-3.22089 l -7.9147,4.9877 c -1.37075,0.86398 -1.13458,3.71247 0.53128,6.35543 l 3.71561,5.91178 c -1.14582,1.38749 -2.13317,2.878 -2.963,4.44254 l -6.96751,-1.59243 c -3.04677,-0.69094 -5.77962,0.0343 -6.13796,1.6145 l -2.07656,9.14091 c -0.35836,1.5802 1.79218,3.41135 4.83895,4.10227 l 7.3347,1.67469 c 0.15174,1.63447 0.43671,3.26173 0.8994,4.86614 l -6.40971,4.05089 c -2.64295,1.66582 -4.08486,4.10441 -3.22089,5.47516 l 5.01752,7.92405 c 0.86398,1.37075 3.67319,1.15548 6.31627,-0.5108 l 6.56637,-4.13281 c 1.23285,1.05587 2.53266,1.96394 3.91509,2.76509 l -1.71023,7.55281 c -0.69093,3.04676 0.025,5.80943 1.60517,6.16778 l 9.1409,2.07655 c 1.5802,0.35836 3.42069,-1.822 4.11161,-4.86876 l 1.67469,-7.33472 c 1.66515,-0.0909 3.3147,-0.36126 4.95742,-0.77257 l 3.95961,6.28289 c 1.66582,2.64295 4.10441,4.08487 5.47516,3.22088 l 7.94453,-4.97835 c 1.37076,-0.86398 1.13458,-3.71248 -0.53127,-6.35544 l -3.76593,-5.96027 c 1.23269,-1.34056 2.33568,-2.78551 3.25189,-4.31934 l 6.72893,1.51773 c 3.04678,0.69094 5.77962,-0.0343 6.13797,-1.61451 l 2.07656,-9.1409 c 0.35835,-1.5802 -1.82201,-3.42069 -4.86877,-4.11162 l -6.36173,-1.43549 c -0.0814,-1.9179 -0.34928,-3.84926 -0.85601,-5.7367 l 5.42316,-3.41018 c 2.64295,-1.66583 4.05505,-4.11374 3.19107,-5.48451 l -4.98769,-7.9147 c -0.86399,-1.37076 -3.6732,-1.15549 -6.31628,0.51079 l -5.30569,3.34873 c -1.5117,-1.34602 -3.13449,-2.50771 -4.87661,-3.45915 l 1.38126,-6.08399 c 0.69093,-3.04677 -0.025,-5.80943 -1.60517,-6.16779 z"
         style="fill:#d45500;fill-opacity:1;stroke:none" />
      <path
         style="fill:#d4aa00;fill-opacity:1;stroke:none"
         d="m 308.83562,602.37374 -28.82224,-24.57222 c -4.11054,7.85687 -2.41228,17.77797 4.61872,23.7722 7.02933,5.99282 17.0961,6.09786 24.20352,0.80002 z m 5.93955,-7.25585 c 3.67274,-7.74357 1.88861,-17.27992 -4.94235,-23.10361 -6.83179,-5.8244 -16.52925,-6.07862 -23.59453,-1.22533 l 28.53688,24.32894 z"
         id="path3756" />
      <path
         style="fill:#d45500;fill-opacity:1;stroke:none"
         d="m 379.35539,551.66979 -9.14091,-2.07656 c -1.5802,-0.35835 -3.42069,1.822 -4.11162,4.86877 l -1.4168,6.30209 c -1.90162,0.15159 -3.8132,0.4999 -5.67346,1.0723 l -3.50145,-5.54999 c -1.66583,-2.64295 -4.1044,-4.08486 -5.47517,-3.22089 l -7.9147,4.9877 c -1.37075,0.86398 -1.13458,3.71247 0.53128,6.35543 l 3.71561,5.91178 c -1.14582,1.38749 -2.13317,2.878 -2.963,4.44254 l -6.96751,-1.59243 c -3.04677,-0.69094 -5.77962,0.0343 -6.13796,1.6145 l -2.07656,9.14091 c -0.35836,1.5802 1.79218,3.41135 4.83895,4.10227 l 7.3347,1.67469 c 0.15174,1.63447 0.43671,3.26173 0.8994,4.86614 l -6.40971,4.05089 c -2.64295,1.66582 -4.08486,4.10441 -3.22089,5.47516 l 5.01752,7.92405 c 0.86398,1.37075 3.67319,1.15548 6.31627,-0.5108 l 6.56637,-4.13281 c 1.23285,1.05587 2.53266,1.96394 3.91509,2.76509 l -1.71023,7.55281 c -0.69093,3.04676 0.025,5.80943 1.60517,6.16778 l 9.1409,2.07655 c 1.5802,0.35836 3.42069,-1.822 4.11161,-4.86876 l 1.67469,-7.33472 c 1.66515,-0.0909 3.3147,-0.36126 4.95742,-0.77257 l 3.95961,6.28289 c 1.66582,2.64295 4.10441,4.08487 5.47516,3.22088 l 7.94453,-4.97835 c 1.37076,-0.86398 1.13458,-3.71248 -0.53127,-6.35544 l -3.76593,-5.96027 c 1.23269,-1.34056 2.33568,-2.78551 3.25189,-4.31934 l 6.72893,1.51773 c 3.04678,0.69094 5.77962,-0.0343 6.13797,-1.61451 l 2.07656,-9.1409 c 0.35835,-1.5802 -1.82201,-3.42069 -4.86877,-4.11162 l -6.36173,-1.43549 c -0.0814,-1.9179 -0.34928,-3.84926 -0.85601,-5.7367 l 5.42316,-3.41018 c 2.64295,-1.66583 4.05505,-4.11374 3.19107,-5.48451 l -4.98769,-7.9147 c -0.86399,-1.37076 -3.6732,-1.15549 -6.31628,0.51079 l -5.30569,3.34873 c -1.5117,-1.34602 -3.13449,-2.50771 -4.87661,-3.45915 l 1.38126,-6.08399 c 0.69093,-3.04677 -0.025,-5.80943 -1.60517,-6.16779 z"
         id="path3892" />
      <path
         id="path3758"
         d="m 361.54799,607.64094 0.79623,-37.86663 c -8.68524,1.78707 -15.2943,9.37868 -15.48853,18.616 -0.1942,9.23513 6.093,17.09783 14.6923,19.25063 z m 9.37686,0.01 c 8.32052,-2.05444 14.57729,-9.46915 14.766,-18.44366 0.18873,-8.9756 -5.74929,-16.64666 -13.97765,-19.04806 l -0.78835,37.49172 z"
         style="fill:#d4aa00;fill-opacity:1;stroke:none" />
      <path
         style="fill:#d45500;fill-opacity:1;stroke:none"
         d="m 518.73321,551.66979 -9.14091,-2.07656 c -1.5802,-0.35835 -3.42069,1.822 -4.11162,4.86877 l -1.4168,6.30209 c -1.90162,0.15159 -3.8132,0.4999 -5.67346,1.0723 l -3.50145,-5.54999 c -1.66583,-2.64295 -4.1044,-4.08486 -5.47517,-3.22089 l -7.9147,4.9877 c -1.37075,0.86398 -1.13458,3.71247 0.53128,6.35543 l 3.71561,5.91178 c -1.14582,1.38749 -2.13317,2.878 -2.963,4.44254 l -6.96751,-1.59243 c -3.04677,-0.69094 -5.77962,0.0343 -6.13796,1.6145 l -2.07656,9.14091 c -0.35836,1.5802 1.79218,3.41135 4.83895,4.10227 l 7.3347,1.67469 c 0.15174,1.63447 0.43671,3.26173 0.8994,4.86614 l -6.40971,4.05089 c -2.64295,1.66582 -4.08486,4.10441 -3.22089,5.47516 l 5.01752,7.92405 c 0.86398,1.37075 3.67319,1.15548 6.31627,-0.5108 l 6.56637,-4.13281 c 1.23285,1.05587 2.53266,1.96394 3.91509,2.76509 l -1.71023,7.55281 c -0.69093,3.04676 0.025,5.80943 1.60517,6.16778 l 9.1409,2.07655 c 1.5802,0.35836 3.42069,-1.822 4.11161,-4.86876 l 1.67469,-7.33472 c 1.66515,-0.0909 3.3147,-0.36126 4.95742,-0.77257 l 3.95961,6.28289 c 1.66582,2.64295 4.10441,4.08487 5.47516,3.22088 l 7.94453,-4.97835 c 1.37076,-0.86398 1.13458,-3.71248 -0.53127,-6.35544 l -3.76593,-5.96027 c 1.23269,-1.34056 2.33568,-2.78551 3.25189,-4.31934 l 6.72893,1.51773 c 3.04678,0.69094 5.77962,-0.0343 6.13797,-1.61451 l 2.07656,-9.1409 c 0.35835,-1.5802 -1.82201,-3.42069 -4.86877,-4.11162 l -6.36173,-1.43549 c -0.0814,-1.9179 -0.34928,-3.84926 -0.85601,-5.7367 l 5.42316,-3.41018 c 2.64295,-1.66583 4.05505,-4.11374 3.19107,-5.48451 l -4.98769,-7.9147 c -0.86399,-1.37076 -3.6732,-1.15549 -6.31628,0.51079 l -5.30569,3.34873 c -1.5117,-1.34602 -3.13449,-2.50771 -4.87661,-3.45915 l 1.38126,-6.08399 c 0.69093,-3.04677 -0.025,-5.80943 -1.60517,-6.16779 z"
         id="path3896" />
      <path
         style="fill:#d4aa00;fill-opacity:1;stroke:none"
         d="m 500.3492,606.17381 0.79623,-37.86663 c -8.68524,1.78707 -15.2943,9.37868 -15.48853,18.616 -0.1942,9.23513 6.093,17.09783 14.6923,19.25063 z m 9.37686,0.01 c 8.32052,-2.05444 14.57729,-9.46915 14.766,-18.44366 0.18873,-8.9756 -5.74929,-16.64666 -13.97765,-19.04806 l -0.78835,37.49172 z"
         id="path3760" />
      <path
         id="path3898"
         d="m 603.08095,578.76818 -7.27302,-5.91367 c -1.25756,-1.02176 -3.87391,0.11672 -5.84391,2.54143 l -4.06381,5.02089 c -1.77174,-0.70715 -3.63963,-1.24237 -5.56085,-1.55399 l -0.67817,-6.52705 c -0.32153,-3.10755 -1.86815,-5.48109 -3.47987,-5.31434 l -9.3056,0.96207 c -1.61171,0.16677 -2.66279,2.82475 -2.34125,5.93231 l 0.70975,6.94631 c -1.64217,0.73573 -3.18797,1.63407 -4.62538,2.66859 l -5.53948,-4.51622 c -2.42471,-1.97002 -5.19586,-2.53146 -6.21759,-1.27388 l -5.91368,7.27301 c -1.02175,1.25757 0.0941,3.85233 2.51885,5.82232 l 5.83215,4.75273 c -0.58858,1.53236 -1.05452,3.1173 -1.35105,4.76056 l -7.54127,0.78955 c -3.10753,0.3215 -5.48108,1.86814 -5.31432,3.47985 l 0.98465,9.3272 c 0.16677,1.61171 2.78028,2.66412 5.88814,2.34225 l 7.718,-0.79352 c 0.637,1.49298 1.39954,2.88317 2.28354,4.21416 l -4.88129,6.01189 c -1.97,2.4247 -2.55301,5.21845 -1.29546,6.24018 l 7.27301,5.91367 c 1.25757,1.02176 3.87391,-0.11673 5.84391,-2.54144 l 4.75274,-5.83217 c 1.53288,0.65671 3.13133,1.14565 4.78615,1.50522 l 0.76394,7.38712 c 0.32152,3.10752 1.86816,5.48109 3.47987,5.31431 l 9.32818,-0.94047 c 1.61172,-0.16676 2.6628,-2.82475 2.34127,-5.93231 l -0.73335,-7.01207 c 1.69923,-0.65517 3.32848,-1.4614 4.82972,-2.43009 l 5.35874,4.34349 c 2.42472,1.97003 5.19584,2.53146 6.21759,1.27387 l 5.91368,-7.27299 c 1.02175,-1.25757 -0.11674,-3.87392 -2.54145,-5.84393 l -5.06605,-4.10698 c 0.77727,-1.75523 1.39336,-3.60519 1.77588,-5.52167 l 6.37293,-0.65258 c 3.10753,-0.32153 5.45849,-1.88974 5.29174,-3.50147 l -0.96207,-9.30558 c -0.16677,-1.61173 -2.78028,-2.66414 -5.88813,-2.34227 l -6.24039,0.64959 c -0.75832,-1.8767 -1.69793,-3.63741 -2.83772,-5.26255 l 3.93526,-4.84113 c 1.97,-2.42473 2.55301,-5.21846 1.29547,-6.2402 z"
         style="fill:#d45500;fill-opacity:1;stroke:none" />
      <path
         id="path3762"
         d="m 594.57186,610.30279 -37.87478,0.1302 c 1.99897,8.63893 9.74996,15.06032 18.98927,15.02856 9.23712,-0.0317 16.94368,-6.50938 18.88551,-15.15876 z m -0.21936,-9.3743 c -2.25734,-8.26778 -9.82286,-14.34132 -18.79931,-14.31047 -8.97753,0.0309 -16.50105,6.15474 -18.70047,14.43937 l 37.49978,-0.1289 z"
         style="fill:#d4aa00;fill-opacity:1;stroke:none" />
      <path
         id="path3837"
         d="m 180.30266,522.29644 14.45634,-14.45633 30.11737,0 16.26338,16.26338 -60.83709,-1.80705 z"
         style="fill:#28170b;fill-opacity:1;stroke-width:1px" />
      <path
         style="fill:#28170b;fill-opacity:1;stroke-width:1px"
         d="m 256.6,522.29644 14.45634,-14.45633 30.11737,0 16.26338,16.26338 L 256.6,522.29644 z"
         id="path3839" />
      <path
         id="path3841"
         d="m 330.48795,522.29644 14.45634,-14.45633 30.11737,0 16.26338,16.26338 -60.83709,-1.80705 z"
         style="fill:#28170b;fill-opacity:1;stroke-width:1px" />
      <path
         style="fill:#28170b;fill-opacity:1;stroke-width:1px"
         d="m 401.96651,522.29644 14.45634,-14.45633 30.11737,0 16.26338,16.26338 -60.83709,-1.80705 z"
         id="path3843" />
      <path
         id="path3845"
         d="m 477.46072,522.29644 14.45634,-14.45633 30.11737,0 16.26338,16.26338 -60.83709,-1.80705 z"
         style="fill:#28170b;fill-opacity:1;stroke-width:1px" />
    </g>
    <g
       id="g4031"
       transform="matrix(0.80703805,0,0,0.80703805,15.318239,96.183942)">
      <path
         sodipodi:nodetypes="ccccccc"
         id="path3945"
         d="m 300.59764,415.68819 -6.84429,21.67358 114.07149,0 -6.84429,-26.23644 0.66467,21.7634 -101.56854,-0.33233 0.52096,-16.86821 z"
         style="stroke-width:1px" />
      <path
         style="stroke-width:1px"
         d="m 300.59764,446.70763 -6.84429,21.67358 114.07149,0 -6.84429,-26.23644 0.66467,21.7634 -101.56854,-0.33233 0.52096,-16.86821 z"
         id="path3947"
         sodipodi:nodetypes="ccccccc" />
      <path
         sodipodi:nodetypes="ccccccc"
         id="path3949"
         d="m 300.59764,476.7871 -6.84429,21.67358 114.07149,0 -6.84429,-26.23644 0.66467,21.7634 -101.56854,-0.33234 0.52096,-16.8682 z"
         style="stroke-width:1px" />
    </g>
  </g>
</svg>
