<?xml version="1.0"?><svg width="645.06787" height="707.35486" xmlns="http://www.w3.org/2000/svg">
 <title>PlainWifi</title>

 <metadata id="metadata3799">image/svg+xml</metadata>
 <g>
  <title>Layer 1</title>
  <g id="layer1">
   <g id="g3848">
    <path fill="#333333" id="path3812" d="m363.118683,491.134369c0,26.944183 -21.84259,48.786774 -48.786774,48.786774c-26.944214,0 -48.786774,-21.84259 -48.786774,-48.786774c0,-26.944214 21.84256,-48.786774 48.786774,-48.786774c26.944214,0 48.786774,21.84256 48.786774,48.786774z"/>
    <path fill="#333333" d="m324.48761,153.141754c-88.706253,0 -167.248047,33.722961 -215.500015,85.5625l40,61.65625c35.115707,-46.920776 100.545593,-78.46875 175.500015,-78.46875c69.397095,0 130.639771,27.062576 167.21875,68.3125l41.46875,-58.53125c-48.658264,-47.848236 -124.050781,-78.53125 -208.6875,-78.53125z" id="path3814"/>
    <path fill="#333333" d="m317.36261,307.423004c-50.456665,0 -96.517212,18.781128 -131.562515,49.6875l33.78125,52.09375c26.406311,-22.235291 60.515213,-35.65625 97.781265,-35.65625c34.983948,0 67.176819,11.814789 92.84375,31.65625l35.84375,-50.625c-34.676819,-29.419891 -79.598145,-47.15625 -128.6875,-47.15625z" id="path3822"/>
    <path fill="#333333" id="path3824" d="m323.356445,0c-116.584061,0 -221.307663,45.127411 -293.4375,116.8125l37.90625,58.40625c53.30072,-61.704071 147.013916,-102.6875 253.78125,-102.6875c105.946167,0 199.072021,40.339508 252.59375,101.25l41.3125,-58.28125c-72.107056,-70.929108 -176.272888,-115.5 -292.15625,-115.5z"/>
   </g>
  </g>
 </g>
</svg>