<?xml version="1.0" encoding="UTF-8"?>
<!DOCTYPE svg PUBLIC "-//W3C//DTD SVG 1.1//EN" "http://www.w3.org/Graphics/SVG/1.1/DTD/svg11.dtd">
<!-- Creator: CorelDRAW -->
<svg xmlns="http://www.w3.org/2000/svg" xml:space="preserve" width="19.0195mm" height="38.3871mm" style="shape-rendering:geometricPrecision; text-rendering:geometricPrecision; image-rendering:optimizeQuality; fill-rule:evenodd; clip-rule:evenodd"
viewBox="0 0 1.00371 2.02578"
 xmlns:xlink="http://www.w3.org/1999/xlink">
 <defs>
  <style type="text/css">
   <![CDATA[
    .fil12 {fill:#1F1A17}
    .fil10 {fill:#4D4948}
    .fil1 {fill:#DA251D}
    .fil13 {fill:#DEDEDD}
    .fil8 {fill:#0A090D}
    .fil5 {fill:#1E1D1E}
    .fil4 {fill:#37312E}
    .fil14 {fill:#401B1B}
    .fil6 {fill:#461D24}
    .fil9 {fill:#494646}
    .fil11 {fill:#5D586F}
    .fil0 {fill:#77544D}
    .fil2 {fill:gray}
    .fil7 {fill:#AB9C9C}
    .fil3 {fill:#8F2929}
    .fil15 {fill:#B72927}
   ]]>
  </style>
    <mask id="id0">
  <linearGradient id="id1" gradientUnits="userSpaceOnUse" x1="0.48243" y1="0.166302" x2="0.541915" y2="0.483538">
   <stop offset="0" style="stop-opacity:1; stop-color:white"/>
   <stop offset="0.239216" style="stop-opacity:0.501961; stop-color:white"/>
   <stop offset="1" style="stop-opacity:0; stop-color:white"/>
  </linearGradient>
     <rect style="fill:url(#id1)" x="0.0537804" y="-0.00201063" width="0.916785" height="0.653867"/>
    </mask>
    <mask id="id2">
  <linearGradient id="id3" gradientUnits="userSpaceOnUse" x1="0.475981" y1="0.905834" x2="0.539213" y2="0.90176">
   <stop offset="0" style="stop-opacity:1; stop-color:white"/>
   <stop offset="1" style="stop-opacity:0; stop-color:white"/>
  </linearGradient>
     <rect style="fill:url(#id3)" x="0.453136" y="0.836127" width="0.108922" height="0.135346"/>
    </mask>
 </defs>
 <g id="Capa_x0020_1">
  <metadata id="CorelCorpID_0Corel-Layer"/>
  <g id="_84274816">
   <path id="_84395016" class="fil0" d="M0.0873121 0.206541l-0.0100004 -0.00558861c-0.0327506,0.0490784 -0.036223,0.0367402 -0.036223,0.118896l-0.0102695 0.00515059 0.00383656 0.149362 0.0012982 0.381118 -0.00598968 0.0214573 0.00598968 0.00429568c0.000923519,0.000923519 0.0171827,-0.0253625 0.0188345,-0.0326187 0.00389989,-0.0170983 0.00172566,-0.0370674 0.00170983,-0.0549362 -3.16635e-005,-0.0377693 0,-0.0755385 0,-0.113308 0,-0.0863411 0.00513476,-0.138507 0.00371518,-0.201744l-0.00884995 0.0111825c0.00393683,-0.0147921 0.0108078,-0.0162961 0.0107075,-0.0206552l-0.000438012 -0.0385714 -0.0102695 -0.0025753c0.00624299,-0.0118316 0.010887,-0.0322809 0.00928268,-0.0463131l0.000986846 -0.041247c-0.00090241,-0.0206815 0.00218478,-0.000638547 -0.00513476,-0.0154465l0.0102695 0 0 -0.0669525c0,-0.0206129 0.00867052,-0.0366505 0.0264548,-0.0414633l-0.00591052 -0.0100426zm-0.0564929 0.659239l-0.00514004 0.00515059 -0.00513476 0.00514532 0.00513476 -0.00514532 0.00514004 -0.00515059 0.00513476 -0.00515059 -0.00513476 0.00515059z"/>
   <path id="_84392656" class="fil1" d="M0.14381 0.474356c0,-0.0865469 -0.0116574,-0.240025 -0.0564982,-0.272966l0 0.00515059 0.00591052 0.0100426c-0.0177843,0.00481285 -0.0264548,0.0208504 -0.0264548,0.0414633l0 0.0669525 -0.0102695 0c0.00731954,0.014808 0.00423235,-0.00523503 0.00513476,0.0154465l-0.000986846 0.041247c0.00160428,0.0140322 -0.0030397,0.0344815 -0.00928268,0.0463131l0.0102695 0.0025753 0.000438012 0.0385714c0.000100268,0.00435901 -0.00677071,0.00586302 -0.0107075,0.0206552l0.00884995 -0.0111825c0.00141958,0.0632373 -0.00371518,0.115403 -0.00371518,0.201744 0,0.0377693 -3.16635e-005,0.0755385 0,0.113308 1.58317e-005,0.0178688 0.00219006,0.0378379 -0.00170983,0.0549362 -0.00165178,0.00725622 -0.017911,0.0335422 -0.0188345,0.0326187l-0.00598968 -0.00429568 0.00598968 -0.0214573 0 0.00515059 -0.00513476 0.00515059 -0.00514004 0.00515059 -0.00513476 0.00514532 0 0.0103012 0 0.12876 4.74952e-005 0.051316 0.0256316 0.0053353 0 -0.0205971 0.00931434 0.00036413 0.00609522 0.0176577 -0.0073987 0.00268084 -0.00287082 0.0514004c-0.000401071,0.0109714 0.00435373,0.0117419 0.0096732,0.0203385l-0.0110506 0.0211248 -0.00492895 -0.0271831 -0.0250669 0.0269298 0.00568887 0.13905 -0.0102695 0 0.00298165 0.00853859 0.00728788 0.0120585c0.0285816,-0.00063327 0.0495111,-0.00344604 0.0516854,-0.0229613l0.0563399 -0.00651212 0.00501339 -0.00137736 0.00509255 -0.818945z"/>
   <path id="_84388520" class="fil2" d="M0.0975869 0.191089l-0.0102748 0.0103012c0.0448408,0.0329406 0.0564982,0.186419 0.0564982,0.272966l0 0.824048 -0.0256791 0.0103012 -0.0125546 0.00424819 -0.0241698 0.0114622 0.00590524 0.0100373 0.0102748 0 0 0.0206024 0 -0.0206024 0.0205443 -0.0257477 0.0256791 -0.0103012c0.763512,-0.127567 0.797408,0.298539 0.792258,-0.367988l-0.00414792 -0.536005c-0.0034566,-0.447352 -0.637782,-0.496146 -0.834333,-0.203322z"/>
   <path id="_84385768" class="fil1" d="M0.811514 1.23145l0.0205391 0.0102959 0.0154096 0.00515059 0.0719078 0.0309036c0,-0.0174677 0.0294787,0.00940406 0.0308191,0.0103012 0.00361492,-0.475353 0.053353,-0.836898 0.00811641,-0.993917 -0.0638389,-0.221597 -0.0494373,-0.0152724 -0.037326,0.96808l-0.00649102 -0.000686042 0.0107867 0.00360436 -0.0139108 -0.0025753 0.00258585 -0.00529836 -0.00581025 -0.0151932 -0.00495006 0.00967847 -0.00949905 0.000253308 -0.0615855 -0.0207818 0.0211037 -0.00754119 -0.0416955 0.00772589z"/>
   <path id="_84384976" class="fil3" d="M0.95019 1.2881l-0.000258585 0.0110717 -0.0108711 -0.00678126 -0.00342493 0.00515059 0.00427985 0.00601079 -0.0102748 0 0.0214415 0.0106125 -0.0111667 0.0305869 -0.0154096 0 0 0.00515059 0.0154096 0 0 -0.00515059 0.0410887 -0.00515059 0 -0.0257477 -0.0157209 0 -0.00482341 -1.00431 -0.00734065 -0.0418222 -0.00754119 0.000643824 0.00461232 1.01973zm0.0410887 0.0566513c0.0231777,-0.0366294 -0.00514004,-0.349934 -0.00514004,-0.406871l0.00514004 0.406871z"/>
   <polygon id="_84384184" class="fil4" points="0.179764,1.10784 0.215718,1.10784 0.215718,1.08724 0.194942,1.08299 0.179764,1.08724 "/>
   <polygon id="_84383280" class="fil1" points="0.939915,1.34475 0.939915,1.3499 0.991278,1.34475 0.986138,0.937883 0.965594,0.309548 0.960459,0.309548 0.965283,1.31386 0.981004,1.31386 0.981004,1.3396 "/>
   <path id="_84381976" class="fil5" d="M0.00513476 1.10269l0 0.0309036c0.011325,-0.000253308 0.0256844,0.00157262 0.0256844,-0.0103012 0,-0.0139108 -0.00245392,-0.0142011 -0.0053353,-0.0263862l-0.0203491 0.00578386z"/>
   <path id="_84381184" class="fil6" d="M0.00513476 1.09754l0 0.00515059 0.0203491 -0.00578386c0.00288138,0.0121852 0.0053353,0.0124754 0.0053353,0.0263862 0,0.0118738 -0.0143594,0.0100479 -0.0256844,0.0103012l0 0.00515059c0.0178582,0 0.0308191,0.00315052 0.0308191,-0.0154518l0 -0.0360542 -0.0249139 0.000258585 -0.00590524 0.0100426z"/>
   <path id="_84380392" class="fil3" d="M0.0205443 0.886377l-0.0154096 0.211164 0.00590524 -0.0100426 0.0249139 -0.000258585 0 0.0360542c0,0.0186023 -0.0129609,0.0154518 -0.0308191,0.0154518l-0.00512949 0.201264 0.0873068 -0.00555694 -0.00590524 -0.0100373 0.0241698 -0.0114622 0.0125546 -0.00424819 0.0256791 -0.0103012 0 -0.824048 -0.00509255 0.818945 -0.00501339 0.00137736 -0.0563399 0.00651212c-0.00217423,0.0195153 -0.0231038,0.022328 -0.0516854,0.0229613l-0.00728788 -0.0120585 -0.00298165 -0.00853859 0.0102695 0 -0.00568887 -0.13905 0.0250669 -0.0269298 0.00492895 0.0271831 0.0110506 -0.0211248c-0.00531947,-0.00859664 -0.0100743,-0.00936712 -0.0096732,-0.0203385l0.00287082 -0.0514004 0.0073987 -0.00268084 -0.00609522 -0.0176577 -0.00931434 -0.00036413 0 0.0205971 -0.0256316 -0.0053353 -4.74952e-005 -0.051316 0 -0.12876z"/>
   <path id="_84379600" class="fil3" d="M0.95019 1.2881c-0.00134042,-0.000897132 -0.0308191,-0.0277689 -0.0308191,-0.0103012l0.0100162 0.00953071 -0.0100162 0.00592107 0.00513476 0.00515059 0.00513476 0.00515059 0.0102748 0 -0.00427985 -0.00601079 0.00342493 -0.00515059 0.0108711 0.00678126 0.000258585 -0.0110717z"/>
   <path id="_84378808" class="fil7" d="M0.313305 1.30355l0.0667678 0c0,-0.00631687 -0.0359011,-0.0116574 -0.0463131,-0.0110083l-0.0204546 0.00585775 0 0.00515059z"/>
   <polygon id="_84377704" class="fil8" points="0.272216,1.37051 0.30817,1.37051 0.30817,1.2984 0.268496,1.29786 0.262517,1.35964 "/>
   <polygon id="_84376912" class="fil3" points="0.919371,1.29325 0.924505,1.2984 0.920384,1.30861 0.924505,1.34475 0.939915,1.34475 0.951082,1.31417 0.92964,1.30355 0.924505,1.2984 0.919371,1.29325 0.929387,1.28733 0.919371,1.2778 0.847463,1.2469 "/>
   <polygon id="_84376120" class="fil9" points="0.677973,1.38596 0.724197,1.38596 0.688243,1.38081 0.688243,1.2984 0.708787,1.2984 0.677973,1.29325 "/>
   <polygon id="_84374576" class="fil7" points="0.267082,1.38081 0.267082,1.38596 0.272216,1.38596 0.292761,1.38081 0.30817,1.37566 0.30817,1.37051 0.272216,1.37051 "/>
   <polygon id="_84373784" class="fil9" points="0.729332,1.38596 0.724197,1.39111 0.724197,1.60227 0.724197,1.81343 0.734466,1.81343 0.733326,1.43214 0.739807,1.38659 0.760151,1.38081 0.760151,1.39111 0.769465,1.39074 0.77556,1.37566 0.744741,1.37566 0.744741,1.2984 0.739606,1.2984 0.739606,1.38081 "/>
   <path id="_84372304" class="fil10" d="M0.763576 1.51986l0.0119846 0 0 0.0566565c0,0.00525614 -0.0169611,0.0375423 -0.0154096,0.0566513l0.00548834 -0.000448566 0.0138264 0.170091 -0.0051717 0.00167817 0.0320804 0.029542c0.00134042,-0.0161114 0.00514004,-0.0182962 0.00514004,-0.0360542l0 -0.128754 -0.0308191 0c0,-0.0450571 0.0235418,-0.216182 -0.0171194,-0.226616l0 0.0772536z"/>
   <path id="_84371264" class="fil7" d="M0.724197 1.81343l0 -0.211164 -0.00513476 0 0.00513476 0.211164zm-0.128406 0l0.123271 0.00515059 -0.123271 -0.00515059z"/>
   <path id="_84370096" class="fil9" d="M0.0513635 1.90099l-0.00514004 0 -0.00513476 0.00515059 0.0214204 0.00372574 -0.0111455 -0.00887633zm0.0205443 0.025753l0 -0.0103012c0.00996345,-0.000833805 0.0205443,0.000242753 0.0205443,-0.0103012 0,-0.0196894 0.00157262,-0.00187342 -0.00514004,-0.0154518 -0.0127076,0.0231302 0.0138158,0.0022956 -0.0102695,0.0103012l0.000232199 -0.00939878 -0.0207765 0.00424819 0 0.00515059 0.0107075 0.00542501 -0.00454371 0.00899771 0.00924574 0.0113303z"/>
   <polygon id="_84368248" class="fil11" points="0.0410887,1.90614 0.035099,1.91043 0.0308191,1.91644 0.0359539,1.92674 0.061633,1.92674 0.0719078,1.92674 0.0626621,1.91541 0.0672058,1.90641 0.0564982,1.90099 0.0513635,1.90099 0.0564982,1.89584 0.0564982,1.89069 0.0462234,1.89584 0.0462234,1.90099 0.0513635,1.90099 0.062509,1.90986 "/>
   <path id="_84367072" class="fil9" d="M0.955325 1.99884l0.0410887 -0.0154518 0.00513476 -0.00515059c0.0144544,-0.0350779 -0.0465664,-0.0689367 -0.082267,-0.0772536l0.00522448 -0.551082 0 -0.00515059 -0.0154096 -0.00515059c-0.0103381,0.00572054 -0.0204018,0.00478119 -0.0178213,0.0360647l-0.00675488 0.513914 0.0143119 0.0166022 -0.15494 0.0266026 0.0162592 0.0197052 0.1183 -0.00114516 0.0454266 0.00608995 0.00778922 -0.024117 0.0440597 0.0287399 -0.014048 0.00364658 0.0233254 0.0182276 -0.0121693 -0.00347243 -0.0175099 0.0183807z"/>
   <path id="_84362520" class="fil4" d="M0.0205443 1.92674l-0.00598968 0.0042904 -0.00428513 0.00601079 0.0112353 0.00993178 -0.00524031 -0.0142275 0.00427985 -0.00600551zm0.0410887 0l-0.0256791 0 -0.00513476 -0.0103012 -0.00514004 0.00515059 0.00514004 0.0103012 -0.00999511 -0.000110822 0.00650157 0.0164861 0.0086283 -0.0163753 0.0102695 0c0.0215576,0 0.0108078,0.000374685 0.0154096,-0.00515059zm-0.0513635 0.0360542l0.00514004 0c0.00598968,-0.0145388 0.00843832,-0.00562555 -0.00514004,-0.0154571l0 0.0154571z"/>
   <path id="_84358616" class="fil10" d="M0.760151 2.01944l0.195174 -0.0206024 0.0175099 -0.0183807 0.0121693 0.00347243 -0.0233254 -0.0182276 0.014048 -0.00364658 -0.0440597 -0.0287399 -0.00778922 0.024117 -0.0454266 -0.00608995 -0.1183 0.00114516 -0.0162592 -0.0197052 0.15494 -0.0266026 -0.0143119 -0.0166022 0.00675488 -0.513914c-0.00258057,-0.0312835 0.00748314,-0.0303442 0.0178213,-0.0360647l0.000596329 -0.0170666 -0.0345396 -0.00869691 0.00202119 0.544164 -0.0183173 0.0117894 -0.00535641 -0.0205443 -0.00624299 -0.000205813 -4.2218e-005 0.0237635 -0.087064 0.00757813 -1.05545e-005 0.00484979 0.0915603 6.86042e-005 -0.00435901 0.0200588 -0.169368 0.0265287 0 0.0360489c0.0199111,-0.00922991 0.0214256,0.00515059 0.0513582,0.00515059l0.0249667 0.000237476 0.0111878 0.03645 0.0203438 -0.00578386 -6.3327e-005 0.00962042 -0.0256158 0.00583136zm0.0462234 -0.185411l-0.0320804 -0.029542 0.0051717 -0.00167817 -0.0138264 -0.170091 -0.00548834 0.000448566c-0.00155151,-0.0191089 0.0154096,-0.0513951 0.0154096,-0.0566513l0 -0.0566565 -0.0119846 0 0 -0.0772536c0.0406612,0.0104331 0.0171194,0.181558 0.0171194,0.226616l0.0308191 0 0 0.128754c0,0.0177579 -0.00379962,0.0199427 -0.00514004,0.0360542zm0.00514004 -0.442925l0 0.0515007 -0.0256844 0c-0.00417958,-0.0179849 -0.0102695,-0.017341 -0.0102695,-0.0360489 0,-0.0118685 0.0035727,-0.0154518 0.0154043,-0.0154518l0.0205496 0zm-0.0873174 0.422322l-0.00513476 0.00515059 -0.123271 -0.00515059 -0.287621 0c-0.0402232,0.0255894 -0.0584403,-0.0231724 -0.0411731,0.0525878l0.14903 0.00921408 0.30817 0c0.0348298,0 0.0545615,-0.00471786 0.0822618,-0.00506616 0.04949,-0.000617438 0.0255947,-0.0111508 0.0255947,-0.0515851l-0.00036413 -0.220499 -0.0108606 -0.00617966 -0.0042904 -0.0723194 0.0155151 -0.0048709 0 -0.123604 0.00492895 0.00227449 0.0290724 -0.0668258 -0.0280011 -0.022898 0.00427457 -0.00525614 -0.0975869 0 0 0.0772536 0.0308191 0 -0.00609522 0.0150824 -0.00931434 0.000369407 0 -0.0103012 -0.0203438 0.00578386 -0.00648046 0.0455479 0.00113989 0.381292 -0.0102695 0zm0.0513635 -0.406871c0,0.0187078 0.00608995,0.018064 0.0102695,0.0360489l0.0256844 0 0 -0.0515007 -0.0205496 0c-0.0118316,0 -0.0154043,0.00358325 -0.0154043,0.0154518zm0.0719025 -0.0103012l-0.0102695 0 0.00256474 0.211771 0.00770478 -0.0212093 0 0.0824042 -0.0102695 0 0 0.13734 0.0154096 0.00171511c0.00268084,-0.0115519 0.00513476,-0.0118421 0.00513476,-0.0257477l0 -0.401725 -0.0102748 0 0 0.0154518zm-0.123266 -0.0103012l0.00513476 0 0.0102748 -0.00515059 0 -0.0824042 -0.0308191 0 -0.0205443 0 0 0.0824042 0.0359539 0.00515059z"/>
   <path id="_84358408" class="fil12" d="M0.0102695 1.93704l-0.0102695 0.025753 0.0102695 0 0 -0.0154571c0.0135784,0.00983151 0.0111297,0.000918241 0.00514004,0.0154571 0.0259166,0.0354684 0.31987,0.0618019 0.400617,0.0618019l0.277478 0.00118738 0.0666464 -0.00633798 0.0256158 -0.00583136 6.3327e-005 -0.00962042 -0.0203438 0.00578386 -0.0111878 -0.03645 -0.0249667 -0.000237476c-0.0299326,0 -0.0314471,-0.0143805 -0.0513582,-0.00515059l0 -0.0360489 0.169368 -0.0265287 0.00435901 -0.0200588 -0.0915603 -6.86042e-005 1.05545e-005 -0.00484979 0.087064 -0.00757813 4.2218e-005 -0.0237635 0.00624299 0.000205813 0.00535641 0.0205443 0.0183173 -0.0117894 -0.00202119 -0.544164 0.0345396 0.00869691 -0.000596329 0.0170666 0.0154096 0.00515059 -0.00412153 -0.0361439 0.00412153 -0.0102062 -0.00513476 -0.00515059 -0.0719078 -0.0463554 -0.0154096 -0.00515059 -0.0154043 0 -0.00513476 -0.0102959 -0.0564982 -0.0154518 -0.0717811 -0.0066335c-0.00939878,-0.00474425 -0.00915603,-0.00881828 -0.020671,-0.00881828l-0.107862 0 -0.123266 0.0154518 -0.0410887 0.0103012 -0.246537 0.072103 -0.0256791 0.0103012 -0.0205443 0.0257477 0 0.0206024 -0.00557805 0.519112 -0.0303758 0.0113672 -0.00513476 0.00515059 0 0.00515059 -0.00513476 0.00515059 0.00513476 0 0 -0.00515059 0.0207765 -0.00424819 -0.000232199 0.00939878c0.0240854,-0.00800559 -0.00243809,0.012829 0.0102695,-0.0103012 0.00671266,0.0135784 0.00514004,-0.00423763 0.00514004,0.0154518 0,0.0105439 -0.0105809,0.00946738 -0.0205443,0.0103012l0 0.0103012 -0.0102748 0c-0.00460176,0.00552528 0.00614799,0.00515059 -0.0154096,0.00515059l-0.0102695 0 -0.0086283 0.0163753 -0.00650157 -0.0164861 0.00999511 0.000110822 -0.00514004 -0.0103012 -0.00513476 0.00515059 -0.00427985 0.00600551 0.00524031 0.0142275 -0.0112353 -0.00993178zm0.837193 -0.556233l0.0102748 0 0 0.401725c0,0.0139056 -0.00245392,0.0141958 -0.00513476,0.0257477l-0.0154096 -0.00171511 0 -0.13734 0.0102695 0 0 -0.0824042 -0.00770478 0.0212093 -0.00256474 -0.211771 0.0102695 0 0 -0.0154518zm-0.539293 0.432624l-0.0513635 0 0 -0.432624 0.0102748 0 0.00513476 -0.0103012 -0.00969958 -0.0108711 0.00597912 -0.0617755 0.0396744 0.000543557 0.00513476 0 0.0204546 -0.00585775c0.010412,-0.000649102 0.0463131,0.00469147 0.0463131,0.0110083l0.107862 0 0.184904 -0.00515059 0.00513476 -0.00515059 0.0308139 0.00515059 0.0308191 0 0.00513476 0 0.0975869 0 -0.00427457 0.00525614 0.0280011 0.022898 -0.0290724 0.0668258 -0.00492895 -0.00227449 0 0.123604 -0.0155151 0.0048709 0.0042904 0.0723194 0.0108606 0.00617966 0.00036413 0.220499c0,0.0404343 0.0238954,0.0509677 -0.0255947,0.0515851 -0.0277003,0.000348298 -0.0474319,0.00506616 -0.0822618,0.00506616l-0.30817 0 -0.14903 -0.00921408c-0.0172672,-0.0757602 0.000949905,-0.0269984 0.0411731,-0.0525878z"/>
   <path id="_84357392" class="fil12" style="mask:url(#id0)" d="M0.156043 0.574592c0.0606673,0.199274 0.461448,-0.0621871 0.527382,-0.0450413 0.0729369,0.0189717 0.410201,-0.111756 0.235951,-0.390617 -0.104395,-0.167072 -0.533166,-0.155294 -0.643059,-0.109118 -0.0882725,0.0370938 -0.173885,0.140866 -0.220526,0.207391 0.0923571,-0.020196 0.05853,0.260865 0.100252,0.337385z"/>
   <path id="_84357248" class="fil13" d="M0.301885 0.363713c0.00413736,-7.91587e-005 0.00822195,-0.000242753 0.0123646,-0.000406348 -0.00298165,0.128369 -0.00596329,0.256823 -0.00888689,0.385192 -0.0029236,0.12829 -0.00595801,0.256738 -0.00888689,0.385028 -0.00148818,7.91587e-005 -0.00303442,0.000163595 -0.00441178,7.91587e-005 0.00148818,-0.128285 0.00308719,-0.256659 0.00474425,-0.384944 0.00165178,-0.128205 0.00331411,-0.25658 0.00507671,-0.384949zm0.0253888 -0.000891855c0.00281277,-8.4436e-005 0.0056836,-0.000163595 0.00855442,-0.000411625 -0.00259641,0.128533 -0.00524559,0.256986 -0.00783671,0.385276 -0.00259641,0.128285 -0.00535641,0.256738 -0.00800559,0.385028 -0.00358853,0.000242753 -0.00711901,0.000321912 -0.0107023,0.000406348 0.00302914,-0.12829 0.00604245,-0.256659 0.00905048,-0.385028 0.00300275,-0.128369 0.00601079,-0.256902 0.00893966,-0.385271zm0.0216314 -0.000817974c0.00170983,0 0.00341966,-7.91587e-005 0.00518754,-0.000242753 -0.00231671,0.128533 -0.00469147,0.256907 -0.00700819,0.385271 -0.00231671,0.12829 -0.00474952,0.256743 -0.00711901,0.385113 -0.00237476,0.000163595 -0.00474425,0.000242753 -0.00711901,0.000242753 0.00276,-0.128369 0.00548834,-0.256738 0.0081639,-0.385107 0.00267557,-0.128369 0.00530363,-0.256823 0.00789476,-0.385276zm0.0182646 -0.000733538c0.00160428,0 0.00320329,-7.91587e-005 0.0048023,-0.000163595 -0.0020423,0.128374 -0.00424819,0.256828 -0.00629048,0.385276 -0.00203702,0.128369 -0.00419541,0.256823 -0.00629048,0.385107 -0.00226394,8.4436e-005 -0.00446983,0.000163595 -0.00667572,0.000248031 0.00248031,-0.128374 0.0049395,-0.256743 0.00733538,-0.385192 0.00240115,-0.128448 0.00474952,-0.256823 0.00711901,-0.385276zm0.0178846 -0.000649102c0.00159901,-8.4436e-005 0.00314524,-0.000163595 0.0048023,-0.000242753 -0.00182593,0.128448 -0.00367297,0.256902 -0.00546723,0.385271 -0.00179426,0.128454 -0.00369407,0.256823 -0.00552,0.385192 -0.00220589,7.91587e-005 -0.00441178,7.91587e-005 -0.00661767,0.000163595 0.00220589,-0.12829 0.00435901,-0.256743 0.00650685,-0.385028 0.00215312,-0.128369 0.00425346,-0.256902 0.00629576,-0.385355zm0.0178213 -0.000733538c0.00160428,-7.91587e-005 0.00315052,-7.91587e-005 0.0048023,-0.000163595 -0.00154623,0.128454 -0.00309247,0.256823 -0.00463342,0.385276 -0.00154623,0.128448 -0.00314524,0.256817 -0.00474425,0.385271 -0.00226394,0 -0.00447511,7.91587e-005 -0.006681,0.000163595 0.00193147,-0.128369 0.00386295,-0.256823 0.00574165,-0.385192 0.00187342,-0.128369 0.00375212,-0.256823 0.00551472,-0.385355zm0.0178846 -0.000569943c0.00154096,-7.91587e-005 0.00314524,-0.000163595 0.0048023,-0.000242753 -0.00132459,0.128448 -0.00262279,0.256986 -0.00386822,0.385355 -0.00124015,0.128369 -0.0026439,0.256738 -0.00396849,0.385107 -0.00221117,7.91587e-005 -0.00441706,0.000163595 -0.00662822,0.000242753 0.00160428,-0.128448 0.0033405,-0.256738 0.00491312,-0.385192 0.00157262,-0.128448 0.00315052,-0.256817 0.00474952,-0.385271zm0.0178793 -0.000733538c0.00159901,-7.91587e-005 0.00314524,-0.000163595 0.00474425,-0.000163595 -0.000992123,0.128454 -0.00209507,0.256907 -0.00308719,0.385276 -0.0009974,0.128369 -0.00210035,0.256902 -0.00314524,0.385271 -0.00221117,7.91587e-005 -0.00441706,0.000163595 -0.00662295,0.000242753 0.00143541,-0.128448 0.00284444,-0.256902 0.00419541,-0.385271 0.00135098,-0.128448 0.00264918,-0.256902 0.00391572,-0.385355zm0.0178265 -0.000649102c0.00159901,-8.4436e-005 0.00314524,-0.000163595 0.00474425,-0.000242753 -0.000717706,0.128527 -0.0015779,0.256981 -0.00231671,0.38535 -0.000744092,0.128448 -0.00154623,0.256823 -0.00231671,0.385192 -0.00221117,8.4436e-005 -0.00441706,0.000163595 -0.00662295,0.000242753 0.00110294,-0.128369 0.00229033,-0.256738 0.00336688,-0.385186 0.00107128,-0.128369 0.00209507,-0.256907 0.00314524,-0.385355zm0.0178213 -0.000733538c0.00154623,-7.91587e-005 0.00315052,-7.91587e-005 0.00474952,-0.000163595 -0.000496061,0.128454 -0.00093935,0.256907 -0.00143541,0.385271 -0.000496061,0.128454 -0.00105017,0.256907 -0.00159901,0.385276 -0.00220589,7.91587e-005 -0.00441706,0.000163595 -0.00657017,0.000321912 0.000828528,-0.128369 0.00171511,-0.256902 0.00248558,-0.38535 0.000770478,-0.128374 0.00159901,-0.256902 0.00236948,-0.385355zm0.0179374 -0.000733538c0.00154623,0 0.00309247,0 0.00469147,-7.91587e-005 -0.000274417,0.128448 -0.000496061,0.256986 -0.000717706,0.38535 -0.000216367,0.128374 -0.000548834,0.256823 -0.000770478,0.385192 -0.00221117,8.4436e-005 -0.00446983,8.4436e-005 -0.00662295,0.000163595 0.000606884,-0.128369 0.00124015,-0.256738 0.00182065,-0.385192 0.00057522,-0.128364 0.0010449,-0.256902 0.00159901,-0.385434zm0.0177685 -0.000649102c0.00160428,0 0.00315052,-7.91587e-005 0.00474952,-0.000163595 5.27725e-005,0.128533 0,0.256986 5.27725e-005,0.385355 5.80497e-005,0.128448 0,0.256902 0,0.385271 -0.00220589,7.91587e-005 -0.00441178,0.000163595 -0.00661767,0.000242753 0.000385239,-0.128448 0.00069132,-0.256823 0.000992123,-0.385271 0.000300803,-0.128454 0.000606884,-0.256902 0.000823251,-0.385434zm0.0178318 -0.000733538c0.00154096,8.4436e-005 0.00313996,0 0.00474425,-7.91587e-005 0.000274417,0.128533 0.000527725,0.256981 0.000828528,0.38535 0.000300803,0.128454 0.000496061,0.256823 0.000770478,0.385192 -0.00215312,0.000163595 -0.00441706,0.000163595 -0.00651212,0.000242753 0,-0.128285 0.000195258,-0.256902 0.000168872,-0.385271 -3.16635e-005,-0.128369 0,-0.256981 0,-0.385434zm0.0178213 -0.000649102c0.00154623,0 0.00314524,-8.4436e-005 0.00474952,-8.4436e-005 0.000548834,0.128374 0.00101851,0.256907 0.00159901,0.385355 0.00057522,0.128454 0.00105017,0.256823 0.00154623,0.385271 -0.00221117,8.4436e-005 -0.00436428,8.4436e-005 -0.0065174,0.000163595 -0.000216367,-0.128369 -0.000353576,-0.256823 -0.000606884,-0.385192 -0.000242753,-0.128369 -0.000490784,-0.256981 -0.000770478,-0.385514zm0.0178846 -0.000654379c0.00242226,-0.000163595 0.00490784,-0.000242753 0.0074462,-0.000242753 0.000886578,0.128454 0.00174149,0.257065 0.00259641,0.385434 0.000854914,0.128369 0.00165178,0.256986 0.00242753,0.385192 -0.00314524,0.000163595 -0.00634853,0.000242753 -0.00954654,0.000327189 -0.000501339,-0.128454 -0.000860192,-0.256823 -0.00138264,-0.385192 -0.000522448,-0.128454 -0.0010449,-0.256986 -0.00154096,-0.385519zm0.0205285 -0.000812696c0.00281277,-7.91587e-005 0.0056836,-0.000163595 0.00849637,-0.000327189 0.00121377,0.128617 0.00237476,0.257071 0.00353048,0.385519 0.00116099,0.128369 0.00226394,0.256823 0.00342493,0.385271 -0.00358853,8.4436e-005 -0.00717706,0.000163595 -0.0107075,0.000327189 -0.000770478,-0.128454 -0.00149346,-0.256986 -0.00231671,-0.385434 -0.000828528,-0.128369 -0.00160428,-0.256902 -0.00242753,-0.385355zm0.0215787 -0.000897132c0.00170983,-7.91587e-005 0.00341966,-7.91587e-005 0.00518226,-0.000163595 0.00143541,0.128533 0.00284444,0.256986 0.00430623,0.38544 0.0014618,0.128448 0.00281805,0.257065 0.00419541,0.38535 -0.00237476,8.4436e-005 -0.00474425,0.000163595 -0.00706624,0.000248031 -0.0010449,-0.128369 -0.00206868,-0.256907 -0.00319801,-0.385276 -0.00113461,-0.128448 -0.00226394,-0.257065 -0.00341966,-0.385598zm0.0182118 -0.000649102c0.00154096,-8.4436e-005 0.00319801,-0.000163595 0.00479702,-0.000242753 0.00170983,0.128533 0.00336688,0.257144 0.00508199,0.385598 0.00170983,0.128364 0.00330883,0.256902 0.00496589,0.38535 -0.00221117,0 -0.00441706,0 -0.00662295,8.4436e-005 -0.00132459,-0.12829 -0.00262279,-0.256823 -0.00403182,-0.385271 -0.00140375,-0.128454 -0.00275472,-0.256907 -0.00419014,-0.385519zm0.0178793 -0.000733538c0.00132459,-7.91587e-005 0.00270195,-7.91587e-005 0.00413736,-0.000163595 0.00193147,0.128533 0.00383656,0.257071 0.00579442,0.385519 0.00195786,0.128448 0.00386295,0.256981 0.00574165,0.385355 -0.00198952,7.91587e-005 -0.003921,0.000242753 -0.00590524,0.000242753 -0.00165706,-0.128454 -0.0031769,-0.256902 -0.00486035,-0.385434 -0.00167817,-0.128448 -0.00325079,-0.256986 -0.00490784,-0.385519zm0.0171616 -0.000649102c0.00176788,-8.4436e-005 0.00353048,-8.4436e-005 0.00535113,-0.000163595 0.00221117,0.128533 0.00441706,0.256986 0.00662295,0.385434 0.00220589,0.128533 0.00441706,0.256986 0.00657017,0.385355 -0.00242753,0.000163595 -0.00485507,0.000242753 -0.00722983,0.000406348 -0.00193147,-0.128533 -0.00369935,-0.257065 -0.00563082,-0.385519 -0.00193147,-0.128448 -0.00375212,-0.256981 -0.0056836,-0.385514zm0.0183754 -0.000654379c0.00160428,-7.91587e-005 0.00315052,-0.000163595 0.0048023,-0.000242753 0.00242753,0.128533 0.00486035,0.256986 0.00734065,0.385519 0.00248558,0.128533 0.00491312,0.256902 0.00734065,0.385434 -0.00220589,7.91587e-005 -0.00441706,7.91587e-005 -0.00662295,0.000163595 -0.00209507,-0.128374 -0.00408459,-0.256907 -0.00629048,-0.385276 -0.00221117,-0.128533 -0.00435901,-0.257065 -0.00657017,-0.385598zm0.0178265 -0.000733538c0.00154623,-7.91587e-005 0.00314524,-0.000158317 0.00474425,-0.000242753 0.00270723,0.128533 0.00540918,0.25715 0.00816918,0.385598 0.00276,0.128454 0.00540918,0.256986 0.00805836,0.385355 -0.00220589,7.91587e-005 -0.00435901,0.000163595 -0.00651212,0.000242753 -0.00242753,-0.128448 -0.00474425,-0.256902 -0.00717178,-0.385355 -0.00242753,-0.128533 -0.00486035,-0.256981 -0.00728788,-0.385598zm0.0178265 -0.000812696c0.00159901,0 0.00309247,0 0.00469147,-7.91587e-005 0.00303442,0.128533 0.00596329,0.257065 0.00893966,0.385514 0.00298165,0.128533 0.00596329,0.256986 0.00893966,0.385519 -0.00220589,0 -0.00441178,7.91587e-005 -0.0065649,0.000242753 -0.00270723,-0.128533 -0.00524559,-0.256981 -0.00794754,-0.385519 -0.00270723,-0.128527 -0.00535113,-0.25706 -0.00805836,-0.385677zm0.0177685 -0.000649102c0.00160428,0 0.00315052,-7.91587e-005 0.00474952,-0.000163595 0.00325606,0.128612 0.00645408,0.257065 0.00971014,0.385598 0.00325606,0.128448 0.0064013,0.256902 0.00965737,0.385434 -0.00220589,7.91587e-005 -0.00441178,7.91587e-005 -0.00651212,0.000242753 -0.00298165,-0.128448 -0.00582081,-0.257144 -0.00877079,-0.385514 -0.00295526,-0.128454 -0.00585247,-0.257065 -0.00883411,-0.385598zm0.0177738 -0.000733538c0.00154623,0 0.00314524,-7.91587e-005 0.00474425,-0.000163595 0.00347771,0.128533 0.00698708,0.257065 0.0104859,0.385598 0.00350409,0.128533 0.00695541,0.256986 0.0104278,0.385519 -0.00220589,0 -0.00441178,7.91587e-005 -0.00651212,0.000242753 -0.00314524,-0.128454 -0.00626409,-0.256986 -0.00948849,-0.385519 -0.00322968,-0.128448 -0.00645935,-0.25706 -0.00965737,-0.385677zm0.0178213 -0.000733538c0.00160428,-7.91587e-005 0.00315052,-7.91587e-005 0.00474952,-0.000163595 0.00375212,0.128533 0.00747786,0.25715 0.0112036,0.385598 0.00372046,0.128454 0.00745148,0.257065 0.0111455,0.385434 -0.00215312,0.000163595 -0.00435901,0.000163595 -0.00645408,0.000327189 -0.00342493,-0.128454 -0.00673905,-0.256986 -0.0102115,-0.385434 -0.00347771,-0.128533 -0.00689736,-0.257144 -0.0104331,-0.385762zm0.0177738 -0.000649102c0.00193147,7.91587e-005 0.00391572,0.000163595 0.00585247,0.000163595 0.00385767,0.128533 0.00772589,0.257065 0.0115308,0.385514 0.0038049,0.128369 0.0075623,0.256902 0.0113144,0.385271 -0.00221117,8.4436e-005 -0.00436428,0.000163595 -0.00645935,0.000248031 -0.00369407,-0.128533 -0.00734065,-0.256986 -0.0110928,-0.385519 -0.00375212,-0.128533 -0.00739343,-0.257065 -0.0111455,-0.385677zm0.0238954 -0.00106073c0.00391572,0.128617 0.00778394,0.257313 0.0116997,0.385846 0.00391572,0.128448 0.00772589,0.256981 0.0115361,0.385434 -0.00193147,0.000158317 -0.0037574,0.000242753 -0.00563082,0.000242753 -0.003921,-0.128369 -0.00783671,-0.256738 -0.0118105,-0.385107 -0.00397377,-0.128369 -0.00788949,-0.256823 -0.0118633,-0.385355 0.00198425,-0.000327189 0.00402654,-0.000654379 0.00606884,-0.00106073z"/>
   <path id="_84280600" class="fil14" d="M0.473554 0.910737c0.000126654,-0.0289985 0.0315474,-0.0556011 0.0578809,-0.0572054l0.0720556 -0.00438539c0.0236948,-0.00144597 0.0575273,0.0237265 0.0574481,0.0412259 -0.000179426,0.0417589 -0.05777,0.0571948 -0.0939034,0.0593954 -0.0305447,0.00186287 -0.0936078,-0.00922463 -0.0934812,-0.0390305zm-0.0144069 0.000876023c-0.000168872,0.0386242 0.0513001,0.0594957 0.0861933,0.057369l0.0504347 -0.00307136c0.0265129,-0.00161484 0.0793857,-0.0330567 0.0795334,-0.0674643l7.91587e-005 -0.0179004c0.000142486,-0.0326767 -0.0486087,-0.0507144 -0.0790268,-0.0488568l-0.0576434 0.00350937c-0.0304181,0.00185231 -0.079354,0.0258427 -0.0794965,0.0585194l-7.38815e-005 0.0178952z"/>
   <polygon id="_84279512" class="fil14" points="0.538443,0.897834 0.545609,0.906346 0.552776,0.914853 0.559942,0.923365 0.567109,0.931872 0.559942,0.923365 0.552776,0.914853 0.545609,0.906346 0.538443,0.897834 0.603332,0.884937 0.610615,0.866598 0.530337,0.871733 "/>
   <polygon id="_84278720" class="fil15" points="0.545609,0.906346 0.552776,0.914853 0.559942,0.923365 0.567109,0.931872 0.603332,0.884937 0.538443,0.897834 "/>
   <path id="_84277312" class="fil1" d="M0.567109 0.931872l-0.0071665 -0.00850692 -0.0071665 -0.0085122 -0.0071665 -0.00850692 -0.0071665 -0.0085122 -0.00810585 -0.0261013 0.0802775 -0.00513476 -0.0072826 0.0183384 -0.036223 0.0469359zm-7.38815e-005 0.0178952c0.0361333,-0.00220061 0.0937239,-0.0176366 0.0939034,-0.0593954 7.91587e-005,-0.0174994 -0.0337533,-0.0426718 -0.0574481,-0.0412259l-0.0720556 0.00438539c-0.0263335,0.00160428 -0.0577542,0.0282069 -0.0578809,0.0572054 -0.000126654,0.0298059 0.0629365,0.0408934 0.0934812,0.0390305z"/>
   <path id="_84274856" class="fil3" style="mask:url(#id2)" d="M0.544174 0.838138c-0.0491576,0 -0.0890272,0.0294048 -0.0890272,0.0656648 0,0.0362547 0.0398696,0.0656595 0.0890272,0.0656595 0.0491628,0 -0.0311569,-0.0260696 -0.0311569,-0.0623243 0,-0.0362547 0.0803197,-0.069 0.0311569,-0.069z"/>
  </g>
 </g>
</svg>
