<?xml version="1.0" encoding="UTF-8" standalone="no"?>
<!-- Created with Inkscape (http://www.inkscape.org/) -->

<svg
   xmlns:dc="http://purl.org/dc/elements/1.1/"
   xmlns:cc="http://creativecommons.org/ns#"
   xmlns:rdf="http://www.w3.org/1999/02/22-rdf-syntax-ns#"
   xmlns:svg="http://www.w3.org/2000/svg"
   xmlns="http://www.w3.org/2000/svg"
   xmlns:sodipodi="http://sodipodi.sourceforge.net/DTD/sodipodi-0.dtd"
   xmlns:inkscape="http://www.inkscape.org/namespaces/inkscape"
   id="svg3141"
   version="1.1"
   inkscape:version="0.92.5 (2060ec1f9f, 2020-04-08)"
   width="1339.5038"
   height="1323.0339"
   xml:space="preserve"
   sodipodi:docname="RFC8572-owner.svg"
   inkscape:export-filename="/corp/docs/SSW/talks/brski/Registrar.png"
   inkscape:export-xdpi="100"
   inkscape:export-ydpi="100"><metadata
     id="metadata3147"><rdf:RDF><cc:Work
         rdf:about=""><dc:format>image/svg+xml</dc:format><dc:type
           rdf:resource="http://purl.org/dc/dcmitype/StillImage" /><dc:title></dc:title></cc:Work></rdf:RDF></metadata><defs
     id="defs3145" /><sodipodi:namedview
     pagecolor="#ffffff"
     bordercolor="#666666"
     borderopacity="1"
     objecttolerance="10"
     gridtolerance="10"
     guidetolerance="10"
     inkscape:pageopacity="0"
     inkscape:pageshadow="2"
     inkscape:window-width="1323"
     inkscape:window-height="1016"
     id="namedview3143"
     showgrid="false"
     inkscape:zoom="0.37915309"
     inkscape:cx="744.50232"
     inkscape:cy="647.24206"
     inkscape:window-x="280"
     inkscape:window-y="27"
     inkscape:window-maximized="0"
     inkscape:current-layer="g3149"
     fit-margin-top="0"
     fit-margin-left="0"
     fit-margin-right="0"
     fit-margin-bottom="0" /><g
     id="g3149"
     inkscape:groupmode="layer"
     inkscape:label="immigration2"
     transform="matrix(1.25,0,0,-1.25,262.60064,1059.5419)"><rect
       style="opacity:1;fill:#df5c32;fill-opacity:1;fill-rule:nonzero;stroke:#df5c32;stroke-width:0.81668121;stroke-linecap:round;stroke-linejoin:round;stroke-miterlimit:4;stroke-dasharray:none;stroke-dashoffset:0;stroke-opacity:1"
       id="rect4491"
       width="735.49664"
       height="726.89429"
       x="-373.51324"
       y="-822.03101"
       transform="matrix(0.69220504,-0.72170089,-0.72170089,-0.69220504,0,0)" /><path
       inkscape:connector-curvature="0"
       id="path3153"
       style="fill:#000000;fill-opacity:1;fill-rule:nonzero;stroke:none;stroke-width:0.25600001"
       d="M 88.639999,635.20001 C 44.634881,635.18976 19.85001,612.39552 19.776,565.824 V 85.567999 C 19.85001,42.124032 42.132991,19.312998 86.080001,19.264 H 568.38401 c 44.01919,0.049 66.33727,21.723903 66.30398,66.303999 V 565.824 c 0.0333,45.43488 -22.28479,69.36576 -67.83998,69.37601 0,0 -478.275081,0.14335 -478.208011,0" /><path
       inkscape:connector-curvature="0"
       id="path3155"
       style="fill:none;stroke:#ffffff;stroke-width:3.63520002;stroke-linecap:butt;stroke-linejoin:miter;stroke-miterlimit:10;stroke-dasharray:none;stroke-opacity:1"
       d="M 88.639999,635.20001 C 44.634881,635.18976 19.85001,612.39552 19.776,565.824 V 85.567999 C 19.85001,42.124032 42.132991,19.312998 86.080001,19.264 H 568.38401 c 44.01919,0.049 66.33727,21.723903 66.30398,66.303999 V 565.824 c 0.0333,45.43488 -22.28479,69.36576 -67.83998,69.37601 0,0 -478.275081,0.14335 -478.208011,0 z" /><path
       inkscape:connector-curvature="0"
       id="path3159"
       style="fill:#ffffff;fill-opacity:1;fill-rule:nonzero;stroke:none;stroke-width:0.25600001"
       d="M 316.48001,328.25599 V 216.128 l 122.88,162.81599 h -124.416 C 298.74689,378.95424 288.29184,371.89121 278.592,360 l -39.936,-53.50399 v 0 C 226.112,254.784 205.63013,236.50535 261.696,255.29599 L 226.112,254.784 c 15.81004,-11.53586 28.61006,-6.4699 35.584,0.51199 l 54.78401,72.96"
       sodipodi:nodetypes="ccccccccccc" /><path
       inkscape:connector-curvature="0"
       id="path3161"
       style="fill:#ffffff;fill-opacity:1;fill-rule:nonzero;stroke:none;stroke-width:0.25600001"
       d="m 310.08,525.37601 h 134.4 v -37.632 H 335.93599 l -25.85599,37.632" /><path
       inkscape:connector-curvature="0"
       id="path3163"
       style="fill:#ffffff;fill-opacity:1;fill-rule:nonzero;stroke:none;stroke-width:0.25600001"
       d="M 444.73601,475.968 H 336.96 L 315.19999,448.57601 H 340.8 c -0.11009,-30.25409 23.69791,-51.50976 51.456,-51.456 26.79809,-0.0538 52.58753,21.20191 52.48001,52.47998 V 475.968" /><path
       inkscape:connector-curvature="0"
       id="path3165"
       style="fill:#ffffff;fill-opacity:1;fill-rule:nonzero;stroke:none;stroke-width:0.25600001"
       d="m 470.08001,378.432 c 14.3027,-0.0307 35.02591,-7.33697 35.07199,-38.65601 V 126.016 H 316.73599 v 57.856 h 137.21602 v 26.624 H 345.15199 l 124.92802,167.936" /><path
       inkscape:connector-curvature="0"
       id="path3167"
       style="fill:#000000;fill-opacity:1;fill-rule:nonzero;stroke:none;stroke-width:0.25600001"
       d="m 160.832,493.37599 h 53.76 c 3.00902,0.0103 7.05792,-2.0352 7.168,-6.144 v -75.51998 c -0.11008,-3.69665 -2.63987,-6.25409 -6.144,-6.144 h -6.144 v 43.776 c 0.032,4.67712 -0.98099,9.792 -7.68,14.84798 l -40.96,29.184" /><rect
       style="opacity:1;fill:none;fill-opacity:1;fill-rule:nonzero;stroke:#df5c32;stroke-width:30.23742104;stroke-linecap:round;stroke-linejoin:round;stroke-miterlimit:4;stroke-dasharray:none;stroke-dashoffset:0;stroke-opacity:1"
       id="rect4491-4"
       width="735.98547"
       height="727.76007"
       x="-375.2001"
       y="-819.41949"
       transform="matrix(0.69673898,-0.71732474,-0.7260461,-0.68764603,0,0)" /><path
       d="m 132.84288,225.76089 h 132.29003 l -2.10996,-60.84162 H 133.37928 l -0.5364,60.84162"
       style="fill:#ffffff;fill-opacity:1;fill-rule:nonzero;stroke:none;stroke-width:0.25600001"
       id="path952"
       inkscape:connector-curvature="0"
       sodipodi:nodetypes="ccccc" /><text
       xml:space="preserve"
       style="font-style:normal;font-weight:normal;font-size:32px;line-height:125%;font-family:sans-serif;letter-spacing:0px;word-spacing:0px;fill:#000000;fill-opacity:1;stroke:none;stroke-width:0.80000001px;stroke-linecap:butt;stroke-linejoin:miter;stroke-opacity:1"
       x="173.93323"
       y="-181.65999"
       id="text956"
       transform="scale(1,-1)"><tspan
         sodipodi:role="line"
         id="tspan954"
         x="173.93323"
         y="-181.65999"
         style="stroke-width:0.80000001px">cfg</tspan></text>
<text
       xml:space="preserve"
       style="font-style:normal;font-weight:normal;font-size:56.06104279px;line-height:125%;font-family:sans-serif;letter-spacing:0px;word-spacing:0px;fill:#000000;fill-opacity:1;stroke:#ffffff;stroke-width:1.40152609px;stroke-linecap:butt;stroke-linejoin:miter;stroke-opacity:1"
       x="246.60181"
       y="-38.43708"
       id="text960"
       transform="scale(0.8467386,-1.181002)"><tspan
         sodipodi:role="line"
         id="tspan958"
         x="246.60181"
         y="-38.43708"
         style="font-style:normal;font-variant:normal;font-weight:normal;font-stretch:normal;font-size:67.27325439px;font-family:Hack;-inkscape-font-specification:Hack;stroke:#ffffff;stroke-width:1.40152609px;stroke-opacity:1">RFC8572</tspan></text>
</g></svg>